<?xml version="1.0" standalone="no"?>
<!DOCTYPE svg PUBLIC "-//W3C//DTD SVG 1.1//EN" "http://www.w3.org/Graphics/SVG/1.1/DTD/svg11.dtd" >
<svg xmlns="http://www.w3.org/2000/svg" xmlns:xlink="http://www.w3.org/1999/xlink" version="1.1">
<metadata>
Created by FontForge 20170910 at Tue Aug 22 17:01:38 2017
 By Jimmy Wärting
Copyright (c) 2010-2012 by Claus Eggers Srensen (es@forthehearts.net), with Reserved Font Name 'Playfair'.
</metadata>
<defs>
<font id="PlayfairDisplay-Regular" horiz-adv-x="694" >
  <font-face 
    font-family="Playfair Display"
    font-weight="400"
    font-stretch="normal"
    units-per-em="2048"
    panose-1="0 0 5 0 0 0 0 0 0 0"
    ascent="1638"
    descent="-410"
    x-height="1055"
    cap-height="1450"
    bbox="-547 -494 2479 2047"
    underline-thickness="20"
    underline-position="-110"
    unicode-range="U+000D-FB02"
  />
<missing-glyph horiz-adv-x="1151" 
d="M122 0v1581h905v-1581h-905zM196 61h757v1459h-757v-1459z" />
    <glyph glyph-name="fi" unicode="fi" horiz-adv-x="1268" 
d="M364 1468q63 61 159 97.5t224 36.5q84 0 156.5 -17t117.5 -45q70 -44 70 -113q0 -36 -18 -66.5t-48 -48.5t-65 -18t-65.5 18t-48.5 48t-18 65q0 37 18.5 67.5t49.5 47.5q-47 31 -149 31q-204 0 -291 -158q-30 -54 -43 -134.5t-13 -225.5h330q128 0 201.5 5t138.5 19v-887
q0 -57 15.5 -89t49 -45t91.5 -13v-43q-188 8 -248 8t-248 -8v43q58 0 91.5 13t49 45t15.5 89v641q0 95 -34.5 138t-121.5 43h-330v-822q0 -83 44 -115t133 -32v-43q-224 8 -269 8q-56 0 -248 -8v43q58 0 91.5 13t49 45t15.5 89v822h-164v41h164q0 277 148 415z" />
    <glyph glyph-name="fl" unicode="fl" horiz-adv-x="1272" 
d="M1085.5 101q15.5 -32 49 -45t91.5 -13v-43q-188 8 -248 8t-248 -8v43q58 0 91.5 13t49 45t15.5 89v1141q0 63 -14 102.5t-42 67.5q-36 36 -91 53t-105 17q-102 0 -162 -64q-43 -43 -57.5 -107t-14.5 -155v-192h261v-41h-261v-822q0 -83 44 -115t133 -32v-43
q-224 8 -269 8q-56 0 -248 -8v43q58 0 91.5 13t49 45t15.5 89v822h-164v41h164q0 115 9 194.5t37.5 145.5t84.5 114q109 95 277 95q40 0 91 -7.5t89.5 -12.5t81.5 -5q103 0 184 29v-1416q0 -57 15.5 -89z" />
    <glyph glyph-name="f_f" unicode="ff" horiz-adv-x="1337" 
d="M308 1386q52 62 133.5 98t178.5 36q95 0 171.5 -39t114.5 -112q24 73 72 130q40 48 104 75.5t139 27.5q105 0 178 -56q64 -52 64 -127q0 -47 -30.5 -77.5t-78.5 -30.5q-47 0 -79.5 30t-32.5 80q0 42 23.5 69.5t62.5 35.5q-6 19 -33 32t-68 13q-91 0 -133 -76
q-23 -41 -30 -122.5t-7 -266.5v-53h220v-41h-220v-801q0 -95 54 -131.5t163 -36.5v-43q-252 8 -315 8q-50 0 -242 -8v43q58 0 91.5 13t49 45t15.5 89v822h-473v-822q0 -57 15.5 -89t49 -45t91.5 -13v-43q-188 8 -246 8t-250 -8v43q58 0 91.5 13t49 45t15.5 89v822h-164v41
h164q0 226 92 333zM893 1317q-28 74 -96.5 120t-168.5 46q-118 0 -173 -77.5t-55 -248.5v-104h473q0 169 20 264z" />
    <glyph glyph-name="f_idieresis.liga" unicode="f&#xef;" horiz-adv-x="1268" 
d="M1085.5 101q15.5 -32 49 -45t91.5 -13v-43q-188 8 -248 8t-248 -8v43q58 0 91.5 13t49 45t15.5 89v641q0 95 -34.5 138t-121.5 43h-330v-822q0 -83 44 -115t133 -32v-43q-224 8 -269 8q-56 0 -248 -8v43q58 0 91.5 13t49 45t15.5 89v822h-164v41h164q0 124 10.5 206
t33 138t61.5 102q86 103 262 103q73 0 132.5 -23t95.5 -67t38 -104v-5v-1v-1v0q-1 -49 -36 -83t-83 -34q-49 0 -84 35t-35 84q0 31 16 58.5t43.5 44t58.5 16.5q-53 45 -144 45q-74 0 -119 -40t-55 -116q-11 -68 -11 -358h330q128 0 201.5 5t138.5 19v-887q0 -57 15.5 -89z
M1222.5 1505.5q27.5 -16.5 44 -44t16.5 -58.5q0 -32 -16.5 -59.5t-43.5 -43.5t-59 -16q-49 0 -83.5 35t-34.5 84q0 31 16 58.5t43 44t59 16.5q31 0 58.5 -16.5z" />
    <glyph glyph-name="f_igrave.liga" unicode="f&#xec;" horiz-adv-x="1268" 
d="M1085.5 101q15.5 -32 49 -45t91.5 -13v-43q-188 8 -248 8t-248 -8v43q58 0 91.5 13t49 45t15.5 89v641q0 95 -34.5 138t-121.5 43h-330v-822q0 -83 44 -115t133 -32v-43q-224 8 -269 8q-56 0 -248 -8v43q58 0 91.5 13t49 45t15.5 89v822h-164v41h164q0 114 7.5 194
t32 146t71.5 114q91 95 237 95q68 0 123 -28q-7 17 -7 34q0 34 28 57q20 15 44 15q44 0 79 -46q29 -38 65 -107.5t70.5 -134t87.5 -147.5l-23 -18q-56 59 -102.5 102.5t-91 82.5t-72.5 66q-56 49 -101.5 71t-97.5 22q-88 0 -133 -86q-33 -67 -33 -240v-192h330
q128 0 201.5 5t138.5 19v-887q0 -57 15.5 -89z" />
    <glyph glyph-name="f_f_b.liga" unicode="ffb" horiz-adv-x="2492" 
d="M1816.5 1026q84.5 57 189.5 57q114 0 201.5 -62.5t137.5 -188t50 -306.5q0 -177 -61.5 -302.5t-165.5 -189t-230 -63.5q-75 0 -146 30.5t-123 89.5l-146 -124l-35 15q14 50 14 118v1231q0 112 -55 170q-34 35 -83.5 52.5t-94.5 17.5q-84 0 -142 -58q-43 -43 -56 -109
t-13 -159v-192h260v-41h-260v-822q0 -83 43.5 -115t132.5 -32v-43q-220 8 -268 8q-60 0 -248 -8v43q58 0 91 13t48.5 45t15.5 89v822h-473v-822q0 -57 15.5 -89t49 -45t91.5 -13v-43q-188 8 -246 8t-250 -8v43q58 0 91.5 13t49 45t15.5 89v822h-164v41h164q0 217 100 333
q56 62 139.5 98t184.5 36q184 0 288 -112q29 57 77 99q105 95 260 95q37 0 115 -10.5t137 -10.5q106 0 170 25v-741q45 104 129.5 161zM881 1235.5q8 75.5 30 135.5q-44 52 -108 82t-138 30q-265 0 -265 -326v-104h473q0 107 8 182.5zM1796.5 43.5q61.5 -25.5 125.5 -25.5
q138 0 206.5 124.5t68.5 383.5q0 250 -61.5 373t-188.5 123q-55 0 -106.5 -29t-92 -86t-61.5 -137v-651q48 -50 109.5 -75.5z" />
    <glyph glyph-name="f_f_h.liga" unicode="ffh" horiz-adv-x="2511" 
d="M2338.5 101q15.5 -32 49 -45t91.5 -13v-43q-188 8 -246 8q-57 0 -229 -8v43q51 0 79.5 13t42 45t13.5 89v592q0 74 -11.5 124t-48 81t-106.5 31q-83 0 -148 -47.5t-101.5 -132t-36.5 -191.5v-457q0 -57 13 -89t42 -45t80 -13v-43q-172 8 -230 8q-57 0 -245 -8v43
q58 0 91 13t48.5 45t15.5 89v1141q0 112 -55 170q-34 35 -83.5 52.5t-94.5 17.5q-84 0 -142 -58q-43 -43 -56 -109t-13 -159v-192h260v-41h-260v-822q0 -83 43.5 -115t132.5 -32v-43q-220 8 -268 8q-60 0 -248 -8v43q58 0 91 13t48.5 45t15.5 89v822h-473v-822
q0 -57 15.5 -89t49 -45t91.5 -13v-43q-188 8 -246 8t-250 -8v43q58 0 91.5 13t49 45t15.5 89v822h-164v41h164q0 217 100 333q56 62 139.5 98t184.5 36q184 0 288 -112q29 57 77 99q105 95 260 95q37 0 115 -10.5t137 -10.5q105 0 170 23v-766q50 130 141.5 187.5
t206.5 57.5q143 0 217 -77q38 -42 54.5 -103.5t16.5 -165.5v-547q0 -57 15.5 -89zM881 1235.5q8 75.5 30 135.5q-44 52 -108 82t-138 30q-265 0 -265 -326v-104h473q0 107 8 182.5z" />
    <glyph glyph-name="f_f_i" unicode="ffi" horiz-adv-x="1925" 
d="M1743.5 101q15.5 -32 48.5 -45t91 -13v-43q-188 8 -248 8q-59 0 -247 -8v43q58 0 91 13t48.5 45t15.5 89v641q0 95 -34.5 138t-120.5 43h-330v-822q0 -83 43.5 -115t132.5 -32v-43q-220 8 -268 8q-60 0 -248 -8v43q58 0 91 13t48.5 45t15.5 89v822h-473v-822
q0 -57 15.5 -89t49 -45t91.5 -13v-43q-188 8 -246 8t-250 -8v43q58 0 91.5 13t49 45t15.5 89v822h-164v41h164q0 217 100 333q56 62 139.5 98t184.5 36q205 0 310 -139q30 48 71 87q64 61 160 97.5t223 36.5q84 0 156.5 -17t117.5 -45q70 -44 70 -113q0 -36 -17.5 -66.5
t-48 -48.5t-65.5 -18t-65.5 18t-48 48t-17.5 65q0 37 18 67.5t49 47.5q-46 31 -149 31q-104 0 -177 -41.5t-114 -116.5q-30 -53 -42.5 -133.5t-12.5 -226.5h330q127 0 201 5t139 19v-887q0 -57 15.5 -89zM931 1346q-44 62 -113.5 99.5t-152.5 37.5q-265 0 -265 -326v-104
h473q0 176 58 293z" />
    <glyph glyph-name="f_f_j.liga" unicode="ffj" horiz-adv-x="1884" 
d="M1589 1058q74 5 139 19v-841q0 -166 -23 -291t-86 -205q-48 -61 -114.5 -93t-133.5 -32q-51 0 -86 20q-51 31 -51 89q0 42 26 69t70 27q41 0 66.5 -26.5t25.5 -65.5q0 -48 -32 -82q56 6 90 30q32 24 47 64q16 44 16 127v964q0 95 -34.5 138t-120.5 43h-330v-801
q0 -95 54 -131.5t163 -36.5v-43q-256 8 -315 8q-54 0 -242 -8v43q58 0 91 13t48.5 45t15.5 89v822h-473v-822q0 -57 15.5 -89t49 -45t91.5 -13v-43q-188 8 -246 8t-250 -8v43q58 0 91.5 13t49 45t15.5 89v822h-164v41h164q0 217 100 333q56 62 139.5 98t184.5 36
q205 0 310 -139q30 48 71 87q64 61 160 97.5t223 36.5q84 0 156.5 -17t117.5 -45q70 -44 70 -113q0 -36 -17.5 -66.5t-48 -48.5t-65.5 -18t-65.5 18t-48 48t-17.5 65q0 37 18 67.5t49 47.5q-46 31 -149 31q-104 0 -177 -41.5t-114 -116.5q-30 -53 -42.5 -133.5t-12.5 -226.5
h330q127 0 201 5zM931 1346q-44 62 -113.5 99.5t-152.5 37.5q-265 0 -265 -326v-104h473q0 176 58 293z" />
    <glyph glyph-name="f_f_k.liga" unicode="ffk" horiz-adv-x="2433" 
d="M2343 73.5q31 -24.5 75 -30.5v-43q-124 8 -166 8q-56 0 -228 -8v43q30 0 47 11t17 28q0 14 -12 31l-236 344q-36 52 -67 69.5t-86 20.5v-357q0 -57 13 -89t42 -45t80 -13v-43q-172 8 -230 8q-57 0 -245 -8v43q58 0 91 13t48.5 45t15.5 89v1141q0 112 -55 170
q-34 35 -83.5 52.5t-94.5 17.5q-84 0 -142 -58q-43 -43 -56 -109t-13 -159v-192h260v-41h-260v-822q0 -83 43.5 -115t132.5 -32v-43q-220 8 -268 8q-60 0 -248 -8v43q58 0 91 13t48.5 45t15.5 89v822h-473v-822q0 -57 15.5 -89t49 -45t91.5 -13v-43q-188 8 -246 8t-250 -8
v43q58 0 91.5 13t49 45t15.5 89v822h-164v41h164q0 217 100 333q56 62 139.5 98t184.5 36q184 0 288 -112q29 57 77 99q105 95 260 95q37 0 115 -10.5t137 -10.5q105 0 170 23v-1015q59 8 99.5 27.5t76.5 57.5l151 157q65 68 65 113q0 36 -41 53t-110 17v41q144 -8 232 -8
q96 0 178 8v-41q-99 -9 -185 -96l-248 -262l369 -506q38 -52 69 -76.5zM881 1235.5q8 75.5 30 135.5q-44 52 -108 82t-138 30q-265 0 -265 -326v-104h473q0 107 8 182.5z" />
    <glyph glyph-name="f_b.liga" unicode="fb" horiz-adv-x="1835" 
d="M1159 1025.5q84 57.5 190 57.5q114 0 201.5 -62.5t137.5 -188t50 -306.5q0 -177 -61.5 -302.5t-165.5 -189t-230 -63.5q-75 0 -146 30.5t-124 89.5l-146 -124l-35 15q15 49 15 118v1231q0 110 -55 170q-35 35 -84 52.5t-95 17.5q-83 0 -141 -58q-44 -44 -57 -110.5
t-13 -157.5v-192h261v-41h-261v-822q0 -83 44 -115t133 -32v-43q-224 8 -269 8q-56 0 -248 -8v43q58 0 91.5 13t49 45t15.5 89v822h-164v41h164q0 116 9 195t37.5 144.5t84.5 114.5q107 95 260 95q37 0 115.5 -10.5t136.5 -10.5q107 0 170 25v-742q46 104 130 161.5z
M1138.5 44q61.5 -26 126.5 -26q138 0 206 124.5t68 383.5q0 250 -61.5 373t-188.5 123q-55 0 -107 -29.5t-92.5 -87t-60.5 -138.5v-647q48 -50 109.5 -76z" />
    <glyph glyph-name="f_f_l" unicode="ffl" horiz-adv-x="1929" 
d="M1743.5 101q15.5 -32 48.5 -45t91 -13v-43q-188 8 -248 8q-59 0 -247 -8v43q58 0 91 13t48.5 45t15.5 89v1141q0 63 -13.5 102.5t-41.5 67.5q-36 36 -91 53t-106 17q-102 0 -162 -64q-43 -43 -57 -106.5t-14 -155.5v-192h260v-41h-260v-822q0 -83 43.5 -115t132.5 -32
v-43q-220 8 -268 8q-60 0 -248 -8v43q58 0 91 13t48.5 45t15.5 89v822h-473v-822q0 -57 15.5 -89t49 -45t91.5 -13v-43q-188 8 -246 8t-250 -8v43q58 0 91.5 13t49 45t15.5 89v822h-164v41h164q0 217 100 333q56 62 139.5 98t184.5 36q184 0 288 -112q29 58 77 99
q54 48 126 71.5t150 23.5q41 0 125 -12.5t131 -12.5q108 0 191 29v-1416q0 -57 15.5 -89zM881 1234.5q8 75.5 30 136.5q-44 52 -108 82t-138 30q-265 0 -265 -326v-104h473q0 106 8 181.5z" />
    <glyph glyph-name="f_h.liga" unicode="fh" horiz-adv-x="1853" 
d="M1171.5 1025.5q91.5 57.5 205.5 57.5q143 0 217 -77q39 -42 55.5 -103t16.5 -166v-547q0 -57 15.5 -89t49 -45t91.5 -13v-43q-188 8 -246 8q-57 0 -229 -8v43q51 0 79.5 13t42 45t13.5 89v592q0 74 -12 124t-48.5 81t-105.5 31q-83 0 -148.5 -47.5t-102 -132
t-36.5 -191.5v-457q0 -57 13.5 -89t42 -45t79.5 -13v-43q-172 8 -229 8q-58 0 -246 -8v43q58 0 91.5 13t49 45t15.5 89v1141q0 110 -55 170q-35 35 -84 52.5t-95 17.5q-83 0 -141 -58q-44 -44 -57 -110.5t-13 -157.5v-192h261v-41h-261v-822q0 -83 44 -115t133 -32v-43
q-224 8 -269 8q-56 0 -248 -8v43q58 0 91.5 13t49 45t15.5 89v822h-164v41h164q0 116 9 195t37.5 144.5t84.5 114.5q107 95 260 95q37 0 115.5 -10.5t136.5 -10.5q106 0 170 23v-766q51 130 142.5 187.5z" />
    <glyph glyph-name="f_j.liga" unicode="fj" horiz-adv-x="1227" 
d="M364 1468q63 61 159 97.5t224 36.5q84 0 156.5 -17t117.5 -45q70 -44 70 -113q0 -36 -18 -66.5t-48 -48.5t-65 -18t-65.5 18t-48.5 48t-18 65q0 37 18.5 67.5t49.5 47.5q-47 31 -149 31q-204 0 -291 -158q-30 -54 -43 -134.5t-13 -225.5h330q128 0 201.5 5t138.5 19v-841
q0 -167 -22.5 -291.5t-85.5 -204.5q-48 -61 -114.5 -93t-133.5 -32q-51 0 -88 20q-49 29 -49 89q0 42 26 69t70 27q41 0 66.5 -26.5t25.5 -65.5q0 -48 -33 -82q53 6 84 26q34 22 51 64q19 48 19 131v964q0 95 -34.5 138t-121.5 43h-330v-801q0 -95 54 -131.5t163 -36.5v-43
q-252 8 -315 8q-50 0 -242 -8v43q58 0 91.5 13t49 45t15.5 89v822h-164v41h164q0 277 148 415z" />
    <glyph glyph-name="f_k.liga" unicode="fk" horiz-adv-x="1776" 
d="M1686 73.5q31 -24.5 74 -30.5v-43q-120 8 -166 8q-55 0 -227 -8v43q29 0 46 11t17 28q0 14 -12 31l-235 344q-36 52 -67.5 70t-86.5 20v-357q0 -57 13.5 -89t42 -45t79.5 -13v-43q-172 8 -229 8q-58 0 -246 -8v43q58 0 91.5 13t49 45t15.5 89v1141q0 110 -55 170
q-35 35 -84 52.5t-95 17.5q-83 0 -141 -58q-44 -44 -57 -110.5t-13 -157.5v-192h261v-41h-261v-822q0 -83 44 -115t133 -32v-43q-224 8 -269 8q-56 0 -248 -8v43q58 0 91.5 13t49 45t15.5 89v822h-164v41h164q0 116 9 195t37.5 144.5t84.5 114.5q107 95 260 95
q37 0 115.5 -10.5t136.5 -10.5q106 0 170 23v-1015q60 8 100 27.5t76 57.5l152 157q65 68 65 113q0 36 -41 53t-110 17v41q142 -8 231 -8q96 0 178 8v-41q-100 -9 -184 -96l-249 -262l370 -506q38 -52 69 -76.5z" />
    <glyph glyph-name=".notdef" horiz-adv-x="1151" 
d="M122 0v1581h905v-1581h-905zM196 61h757v1459h-757v-1459z" />
    <glyph glyph-name="space" unicode=" " horiz-adv-x="510" 
 />
    <glyph glyph-name="A" unicode="A" horiz-adv-x="1290" 
d="M1303 41v-41q-84 6 -220 6q-175 0 -262 -6v41q78 3 111.5 19t33.5 57q0 35 -24 96l-126 336h-494l-84 -217q-41 -104 -41 -168q0 -65 43.5 -93t134.5 -30v-41q-117 6 -236 6q-92 0 -153 -6v41q102 23 161 178l482 1241h33l499 -1288q50 -127 142 -131zM572 1201
l-235 -611h464z" />
    <glyph glyph-name="Aacute" unicode="&#xc1;" horiz-adv-x="1290" 
d="M1303 41v-41q-84 6 -220 6q-175 0 -262 -6v41q78 3 111.5 19t33.5 57q0 35 -24 96l-126 336h-494l-84 -217q-41 -104 -41 -168q0 -65 43.5 -93t134.5 -30v-41q-117 6 -236 6q-92 0 -153 -6v41q102 23 161 178l482 1241h33l499 -1288q50 -127 142 -131zM572 1201
l-235 -611h464zM620.5 1699.5q48.5 41.5 119 106t111.5 90.5q31 20 62 20q40 0 63 -34q11 -19 11 -38q0 -45 -54 -81q-41 -25 -113.5 -53t-141 -56t-157.5 -73l-14 27q65 50 113.5 91.5z" />
    <glyph glyph-name="Abreve" unicode="&#x102;" horiz-adv-x="1290" 
d="M1303 41v-41q-84 6 -220 6q-175 0 -262 -6v41q78 3 111.5 19t33.5 57q0 35 -24 96l-126 336h-494l-84 -217q-41 -104 -41 -168q0 -65 43.5 -93t134.5 -30v-41q-117 6 -236 6q-92 0 -153 -6v41q102 23 161 178l482 1241h33l499 -1288q50 -127 142 -131zM572 1201
l-235 -611h464zM877 1672q-103 -70 -245 -70t-245 70t-163 167l27 21q56 -55 151 -93t230 -38q134 0 230 38.5t153 94.5l24 -23q-59 -97 -162 -167z" />
    <glyph glyph-name="Acircumflex" unicode="&#xc2;" horiz-adv-x="1290" 
d="M1303 41v-41q-84 6 -220 6q-175 0 -262 -6v41q78 3 111.5 19t33.5 57q0 35 -24 96l-126 336h-494l-84 -217q-41 -104 -41 -168q0 -65 43.5 -93t134.5 -30v-41q-117 6 -236 6q-92 0 -153 -6v41q102 23 161 178l482 1241h33l499 -1288q50 -127 142 -131zM572 1201
l-235 -611h464zM800.5 1723.5q101.5 -72.5 233.5 -117.5l-11 -29q-124 26 -243 65.5t-189 77.5q-58 -38 -154.5 -77.5t-195.5 -65.5l-10 29q131 45 232.5 117.5t150.5 152.5h37q48 -80 149.5 -152.5z" />
    <glyph glyph-name="Adieresis" unicode="&#xc4;" horiz-adv-x="1290" 
d="M1303 41v-41q-84 6 -220 6q-175 0 -262 -6v41q78 3 111.5 19t33.5 57q0 35 -24 96l-126 336h-494l-84 -217q-41 -104 -41 -168q0 -65 43.5 -93t134.5 -30v-41q-117 6 -236 6q-92 0 -153 -6v41q102 23 161 178l482 1241h33l499 -1288q50 -127 142 -131zM572 1201
l-235 -611h464zM473.5 1802.5q27.5 -16.5 44 -44t16.5 -58.5q0 -32 -16.5 -59.5t-44 -43.5t-58.5 -16q-49 0 -84 35t-35 84q0 31 16 58.5t43.5 44t59.5 16.5q31 0 58.5 -16.5zM907.5 1802.5q27.5 -16.5 44 -44t16.5 -58.5q0 -32 -16.5 -59.5t-43.5 -43.5t-59 -16
q-49 0 -84 35t-35 84q0 31 16 58.5t43.5 44t59.5 16.5q31 0 58.5 -16.5z" />
    <glyph glyph-name="Agrave" unicode="&#xc0;" horiz-adv-x="1290" 
d="M1303 41v-41q-84 6 -220 6q-175 0 -262 -6v41q78 3 111.5 19t33.5 57q0 35 -24 96l-126 336h-494l-84 -217q-41 -104 -41 -168q0 -65 43.5 -93t134.5 -30v-41q-117 6 -236 6q-92 0 -153 -6v41q102 23 161 178l482 1241h33l499 -1288q50 -127 142 -131zM572 1201
l-235 -611h464zM620.5 1644.5q-59.5 25.5 -148 59.5t-129.5 59q-54 36 -54 81q0 19 11 38q23 34 63 34q31 0 62 -20q41 -26 98.5 -79t112 -101t133.5 -108l-14 -27q-75 38 -134.5 63.5z" />
    <glyph glyph-name="Amacron" unicode="&#x100;" horiz-adv-x="1290" 
d="M1303 41v-41q-84 6 -220 6q-175 0 -262 -6v41q78 3 111.5 19t33.5 57q0 35 -24 96l-126 336h-494l-84 -217q-41 -104 -41 -168q0 -65 43.5 -93t134.5 -30v-41q-117 6 -236 6q-92 0 -153 -6v41q102 23 161 178l482 1241h33l499 -1288q50 -127 142 -131zM572 1201
l-235 -611h464zM271 1677v52h721v-52h-721z" />
    <glyph glyph-name="Aogonek" unicode="&#x104;" horiz-adv-x="1290" 
d="M1303 41v-41q-84 6 -220 6q-175 0 -262 -6v41q78 3 111.5 19t33.5 57q0 35 -24 96l-126 336h-494l-84 -217q-41 -104 -41 -168q0 -65 43.5 -93t134.5 -30v-41q-117 6 -236 6q-92 0 -153 -6v41q102 23 161 178l482 1241h33l499 -1288q50 -127 142 -131zM572 1201
l-235 -611h464zM1116 -80q-50 -56 -50 -117q0 -41 23.5 -65.5t64.5 -24.5q37 0 70.5 19.5t54.5 48.5l30 -27q-91 -139 -231 -139q-73 0 -117.5 36.5t-44.5 96.5q0 80 73.5 147t209.5 111h78q-111 -30 -161 -86z" />
    <glyph glyph-name="Aring" unicode="&#xc5;" horiz-adv-x="1290" 
d="M1303 41v-41q-84 6 -220 6q-175 0 -262 -6v41q78 3 111.5 19t33.5 57q0 35 -24 96l-126 336h-494l-84 -217q-41 -104 -41 -168q0 -65 43.5 -93t134.5 -30v-41q-117 6 -236 6q-92 0 -153 -6v41q102 23 161 178l482 1241h33l499 -1288q50 -127 142 -131zM572 1201
l-235 -611h464zM731.5 1871q45.5 -23 72.5 -65t27 -98q0 -57 -27 -99.5t-72.5 -65.5t-99.5 -23q-53 0 -97.5 23t-71.5 65.5t-27 99.5q0 56 27 98t72 65t97 23q54 0 99.5 -23zM566 1834q-32 -17 -52.5 -50t-20.5 -78q0 -46 20.5 -78t52.5 -48.5t66 -16.5q36 0 68.5 16.5
t53 48.5t20.5 78q0 45 -20.5 78t-53.5 50t-68 17q-34 0 -66 -17z" />
    <glyph glyph-name="Atilde" unicode="&#xc3;" horiz-adv-x="1290" 
d="M1303 41v-41q-84 6 -220 6q-175 0 -262 -6v41q78 3 111.5 19t33.5 57q0 35 -24 96l-126 336h-494l-84 -217q-41 -104 -41 -168q0 -65 43.5 -93t134.5 -30v-41q-117 6 -236 6q-92 0 -153 -6v41q102 23 161 178l482 1241h33l499 -1288q50 -127 142 -131zM572 1201
l-235 -611h464zM277 1745q32 49 82 75.5t107 26.5q51 0 96.5 -20t138.5 -78.5t163 -58.5q95 0 127 114l30 -6q-6 -66 -38 -115t-81.5 -75.5t-107.5 -26.5q-51 0 -96 20.5t-138.5 79t-162.5 58.5q-96 0 -127 -115l-31 6q6 66 38 115z" />
    <glyph glyph-name="AE" unicode="&#xc6;" horiz-adv-x="1749" 
d="M1636 262q0 -120 15 -262q-127 6 -428 6q-322 0 -492 -6v41q57 3 82 16t34 47.5t9 112.5v492h-358l-299 -496q-38 -65 -38 -100q0 -36 35 -52.5t107 -19.5v-41q-62 6 -186 6q-86 0 -137 -6v41q33 1 66 31t75 100l718 1184q-15 28 -48 39t-101 14v41q86 -3 203 -4l82 135
h49l-82 -136q83 -1 154.5 -1h126.5q272 0 387 6q-15 -131 -15 -242q0 -84 7 -127h-48q-11 132 -28.5 197.5t-59 95t-125.5 29.5h-129q-74 0 -107 -12t-45.5 -46.5t-12.5 -111.5v-483h149q81 0 108 51.5t33 105.5t9 72h47q-8 -104 -8 -171l1 -79q0 -74 13 -250h-47
q-1 12 -9 84t-45 109t-102 37h-149v-492q0 -77 12.5 -111.5t45.5 -46.5t107 -12h150q99 0 144 33t60.5 102t28.5 228h47q-6 -56 -6 -148zM856 1233q0 39 -3 65l-330 -548h333v483z" />
    <glyph glyph-name="B" unicode="B" horiz-adv-x="1276" 
d="M1087 636.5q96 -99.5 96 -239.5q0 -116 -59.5 -206t-170.5 -140.5t-262 -50.5q-41 0 -144 3t-208 3q-168 0 -254 -6v41q74 3 107.5 16t46 48t12.5 112v1016q0 77 -12.5 112t-46 48t-107.5 16v41q85 -6 250 -6q80 0 176.5 2t132.5 2q140 0 237 -40.5t146 -113t49 -168.5
q0 -118 -74.5 -212t-236.5 -144v-4q226 -30 322 -129.5zM813 861q67 91 67 243q0 154 -68 229.5t-219 75.5q-64 0 -96 -14.5t-44 -51.5t-12 -110v-463h138q167 0 234 91zM453 108q12 -35 44 -48t98 -13q383 0 383 359q0 161 -87.5 245t-277.5 84h-172v-518q0 -74 12 -109z
" />
    <glyph glyph-name="C" unicode="C" horiz-adv-x="1409" 
d="M1211.5 92.5q-11.5 28.5 -33.5 28.5q-16 0 -42 -17q-61 -43 -112.5 -70.5t-117.5 -45t-149 -17.5q-195 0 -341.5 88t-227 255.5t-80.5 398.5q0 226 83 400t231 270t337 96q122 0 208.5 -35t168.5 -98q22 -18 40 -18q42 0 52 122h47q-8 -133 -8 -471h-47q-15 92 -27.5 143
t-29.5 86.5t-46 73.5q-62 80 -157 120t-205 40q-133 0 -233 -88t-155 -251t-55 -382q0 -223 60 -383t165 -243t238 -83q102 0 199 39t151 117q42 56 60 121.5t35 202.5h47q0 -353 8 -492h-47q-5 64 -16.5 92.5z" />
    <glyph glyph-name="Cacute" unicode="&#x106;" horiz-adv-x="1409" 
d="M1211.5 92.5q-11.5 28.5 -33.5 28.5q-16 0 -42 -17q-61 -43 -112.5 -70.5t-117.5 -45t-149 -17.5q-195 0 -341.5 88t-227 255.5t-80.5 398.5q0 226 83 400t231 270t337 96q122 0 208.5 -35t168.5 -98q22 -18 40 -18q42 0 52 122h47q-8 -133 -8 -471h-47q-15 92 -27.5 143
t-29.5 86.5t-46 73.5q-62 80 -157 120t-205 40q-133 0 -233 -88t-155 -251t-55 -382q0 -223 60 -383t165 -243t238 -83q102 0 199 39t151 117q42 56 60 121.5t35 202.5h47q0 -353 8 -492h-47q-5 64 -16.5 92.5zM732.5 1699.5q48.5 41.5 119 106t111.5 90.5q31 20 62 20
q40 0 63 -34q11 -19 11 -38q0 -45 -54 -81q-41 -25 -113.5 -53t-141 -56t-157.5 -73l-14 27q65 50 113.5 91.5z" />
    <glyph glyph-name="Ccaron" unicode="&#x10c;" horiz-adv-x="1409" 
d="M1211.5 92.5q-11.5 28.5 -33.5 28.5q-16 0 -42 -17q-61 -43 -112.5 -70.5t-117.5 -45t-149 -17.5q-195 0 -341.5 88t-227 255.5t-80.5 398.5q0 226 83 400t231 270t337 96q122 0 208.5 -35t168.5 -98q22 -18 40 -18q42 0 52 122h47q-8 -133 -8 -471h-47q-15 92 -27.5 143
t-29.5 86.5t-46 73.5q-62 80 -157 120t-205 40q-133 0 -233 -88t-155 -251t-55 -382q0 -223 60 -383t165 -243t238 -83q102 0 199 39t151 117q42 56 60 121.5t35 202.5h47q0 -353 8 -492h-47q-5 64 -16.5 92.5zM906.5 1749.5q-101.5 -72.5 -149.5 -152.5h-37
q-49 80 -150.5 152.5t-232.5 118.5l10 28q122 -25 241.5 -65t190.5 -78q59 38 155.5 78t194.5 65l11 -28q-132 -46 -233.5 -118.5z" />
    <glyph glyph-name="Ccedilla" unicode="&#xc7;" horiz-adv-x="1409" 
d="M1211.5 92.5q-11.5 28.5 -33.5 28.5q-16 0 -42 -17q-61 -43 -112.5 -70.5t-117.5 -45t-149 -17.5q-195 0 -341.5 88t-227 255.5t-80.5 398.5q0 226 83 400t231 270t337 96q122 0 208.5 -35t168.5 -98q22 -18 40 -18q42 0 52 122h47q-8 -133 -8 -471h-47q-15 92 -27.5 143
t-29.5 86.5t-46 73.5q-62 80 -157 120t-205 40q-133 0 -233 -88t-155 -251t-55 -382q0 -223 60 -383t165 -243t238 -83q102 0 199 39t151 117q42 56 60 121.5t35 202.5h47q0 -353 8 -492h-47q-5 64 -16.5 92.5zM855 -133q58 0 91.5 -25.5t33.5 -70.5q0 -54 -35.5 -89
t-88.5 -51t-107 -16q-105 0 -170 23l8 36q42 -6 78 -6q74 0 129 21.5t55 70.5q0 58 -86 58q-58 0 -100 -15l69 207h56l-54 -157q61 14 121 14z" />
    <glyph glyph-name="Ccircumflex" unicode="&#x108;" horiz-adv-x="1409" 
d="M1211.5 92.5q-11.5 28.5 -33.5 28.5q-16 0 -42 -17q-61 -43 -112.5 -70.5t-117.5 -45t-149 -17.5q-195 0 -341.5 88t-227 255.5t-80.5 398.5q0 226 83 400t231 270t337 96q122 0 208.5 -35t168.5 -98q22 -18 40 -18q42 0 52 122h47q-8 -133 -8 -471h-47q-15 92 -27.5 143
t-29.5 86.5t-46 73.5q-62 80 -157 120t-205 40q-133 0 -233 -88t-155 -251t-55 -382q0 -223 60 -383t165 -243t238 -83q102 0 199 39t151 117q42 56 60 121.5t35 202.5h47q0 -353 8 -492h-47q-5 64 -16.5 92.5zM912.5 1723.5q101.5 -72.5 233.5 -117.5l-11 -29
q-124 26 -243 65.5t-189 77.5q-58 -38 -154.5 -77.5t-195.5 -65.5l-10 29q131 45 232.5 117.5t150.5 152.5h37q48 -80 149.5 -152.5z" />
    <glyph glyph-name="Cdotaccent" unicode="&#x10a;" horiz-adv-x="1409" 
d="M1211.5 92.5q-11.5 28.5 -33.5 28.5q-16 0 -42 -17q-61 -43 -112.5 -70.5t-117.5 -45t-149 -17.5q-195 0 -341.5 88t-227 255.5t-80.5 398.5q0 226 83 400t231 270t337 96q122 0 208.5 -35t168.5 -98q22 -18 40 -18q42 0 52 122h47q-8 -133 -8 -471h-47q-15 92 -27.5 143
t-29.5 86.5t-46 73.5q-62 80 -157 120t-205 40q-133 0 -233 -88t-155 -251t-55 -382q0 -223 60 -383t165 -243t238 -83q102 0 199 39t151 117q42 56 60 121.5t35 202.5h47q0 -353 8 -492h-47q-5 64 -16.5 92.5zM836 1825.5q30 -17.5 48 -48t18 -65.5t-18 -65.5t-48 -48
t-65 -17.5t-65.5 17.5t-48 48t-17.5 65.5t17.5 65.5t48 48t65.5 17.5t65 -17.5z" />
    <glyph glyph-name="D" unicode="D" horiz-adv-x="1481" 
d="M285 1443l50 1q282 6 309 6q362 0 542.5 -181t180.5 -528q0 -223 -87.5 -390.5t-254.5 -259t-399 -91.5q-28 0 -133.5 3t-153.5 3q-168 0 -254 -6v41q74 3 107.5 16t46 48t12.5 112v1016q0 77 -12.5 112t-46 48t-107.5 16v41q110 -7 200 -7zM453 102.5q12 -36.5 44.5 -51
t97.5 -14.5q218 0 342 79t174.5 230.5t50.5 386.5q0 236 -55 384.5t-179.5 222t-334.5 73.5q-64 0 -96 -14.5t-44 -51.5t-12 -110v-1024q0 -74 12 -110.5z" />
    <glyph glyph-name="Eth" unicode="&#xd0;" horiz-adv-x="1483" 
d="M287 1443l50 1q282 6 309 6q362 0 542.5 -181t180.5 -528q0 -223 -87.5 -390.5t-254.5 -259t-399 -91.5q-28 0 -133.5 3t-153.5 3q-168 0 -254 -6v41q74 3 107.5 16t46 48t12.5 112v492h-166v41h166v483q0 77 -12.5 112t-46 48t-107.5 16v41q110 -7 200 -7zM455 102.5
q12 -36.5 44.5 -51t97.5 -14.5q218 0 342 79t174.5 230.5t50.5 386.5q0 236 -55 384.5t-179.5 222t-334.5 73.5q-64 0 -96 -14.5t-44 -51.5t-12 -110v-487h285v-41h-285v-496q0 -74 12 -110.5z" />
    <glyph glyph-name="Dcaron" unicode="&#x10e;" horiz-adv-x="1481" 
d="M285 1443l50 1q282 6 309 6q362 0 542.5 -181t180.5 -528q0 -223 -87.5 -390.5t-254.5 -259t-399 -91.5q-28 0 -133.5 3t-153.5 3q-168 0 -254 -6v41q74 3 107.5 16t46 48t12.5 112v1016q0 77 -12.5 112t-46 48t-107.5 16v41q110 -7 200 -7zM453 102.5q12 -36.5 44.5 -51
t97.5 -14.5q218 0 342 79t174.5 230.5t50.5 386.5q0 236 -55 384.5t-179.5 222t-334.5 73.5q-64 0 -96 -14.5t-44 -51.5t-12 -110v-1024q0 -74 12 -110.5zM806.5 1749.5q-101.5 -72.5 -149.5 -152.5h-37q-49 80 -150.5 152.5t-232.5 118.5l10 28q122 -25 241.5 -65
t190.5 -78q59 38 155.5 78t194.5 65l11 -28q-132 -46 -233.5 -118.5z" />
    <glyph glyph-name="Dcroat" unicode="&#x110;" horiz-adv-x="1483" 
d="M287 1443l50 1q282 6 309 6q362 0 542.5 -181t180.5 -528q0 -223 -87.5 -390.5t-254.5 -259t-399 -91.5q-28 0 -133.5 3t-153.5 3q-168 0 -254 -6v41q74 3 107.5 16t46 48t12.5 112v492h-166v41h166v483q0 77 -12.5 112t-46 48t-107.5 16v41q110 -7 200 -7zM455 102.5
q12 -36.5 44.5 -51t97.5 -14.5q218 0 342 79t174.5 230.5t50.5 386.5q0 236 -55 384.5t-179.5 222t-334.5 73.5q-64 0 -96 -14.5t-44 -51.5t-12 -110v-487h285v-41h-285v-496q0 -74 12 -110.5z" />
    <glyph glyph-name="E" unicode="E" horiz-adv-x="1247" 
d="M1134 262q0 -116 14 -262q-139 6 -469 6q-393 0 -594 -6v41q74 3 107.5 16t46 48t12.5 112v1016q0 77 -12.5 112t-46 48t-107.5 16v41q201 -6 594 -6q301 0 428 6q-14 -134 -14 -242q0 -80 6 -127h-47q-15 133 -37.5 198t-76 94.5t-161.5 29.5h-170q-74 0 -107.5 -12
t-46 -46.5t-12.5 -111.5v-483h136q103 0 137 61.5t42 125.5t11 83h47q-7 -101 -7 -193l1 -98q0 -104 12 -291h-47q-2 14 -11.5 99t-55.5 128.5t-129 43.5h-136v-492q0 -77 12.5 -111.5t46 -46.5t107.5 -12h150q128 0 194.5 34t96 109t45.5 220h47q-6 -55 -6 -148z" />
    <glyph glyph-name="Eacute" unicode="&#xc9;" horiz-adv-x="1247" 
d="M1134 262q0 -116 14 -262q-139 6 -469 6q-393 0 -594 -6v41q74 3 107.5 16t46 48t12.5 112v1016q0 77 -12.5 112t-46 48t-107.5 16v41q201 -6 594 -6q301 0 428 6q-14 -134 -14 -242q0 -80 6 -127h-47q-15 133 -37.5 198t-76 94.5t-161.5 29.5h-170q-74 0 -107.5 -12
t-46 -46.5t-12.5 -111.5v-483h136q103 0 137 61.5t42 125.5t11 83h47q-7 -101 -7 -193l1 -98q0 -104 12 -291h-47q-2 14 -11.5 99t-55.5 128.5t-129 43.5h-136v-492q0 -77 12.5 -111.5t46 -46.5t107.5 -12h150q128 0 194.5 34t96 109t45.5 220h47q-6 -55 -6 -148z
M614.5 1699.5q48.5 41.5 119 106t111.5 90.5q31 20 62 20q40 0 63 -34q11 -19 11 -38q0 -45 -54 -81q-41 -25 -113.5 -53t-141 -56t-157.5 -73l-14 27q65 50 113.5 91.5z" />
    <glyph glyph-name="Ebreve" unicode="&#x114;" horiz-adv-x="1247" 
d="M1134 262q0 -116 14 -262q-139 6 -469 6q-393 0 -594 -6v41q74 3 107.5 16t46 48t12.5 112v1016q0 77 -12.5 112t-46 48t-107.5 16v41q201 -6 594 -6q301 0 428 6q-14 -134 -14 -242q0 -80 6 -127h-47q-15 133 -37.5 198t-76 94.5t-161.5 29.5h-170q-74 0 -107.5 -12
t-46 -46.5t-12.5 -111.5v-483h136q103 0 137 61.5t42 125.5t11 83h47q-7 -101 -7 -193l1 -98q0 -104 12 -291h-47q-2 14 -11.5 99t-55.5 128.5t-129 43.5h-136v-492q0 -77 12.5 -111.5t46 -46.5t107.5 -12h150q128 0 194.5 34t96 109t45.5 220h47q-6 -55 -6 -148zM871 1672
q-103 -70 -245 -70t-245 70t-163 167l27 21q56 -55 151 -93t230 -38q134 0 230 38.5t153 94.5l24 -23q-59 -97 -162 -167z" />
    <glyph glyph-name="Ecaron" unicode="&#x11a;" horiz-adv-x="1247" 
d="M1134 262q0 -116 14 -262q-139 6 -469 6q-393 0 -594 -6v41q74 3 107.5 16t46 48t12.5 112v1016q0 77 -12.5 112t-46 48t-107.5 16v41q201 -6 594 -6q301 0 428 6q-14 -134 -14 -242q0 -80 6 -127h-47q-15 133 -37.5 198t-76 94.5t-161.5 29.5h-170q-74 0 -107.5 -12
t-46 -46.5t-12.5 -111.5v-483h136q103 0 137 61.5t42 125.5t11 83h47q-7 -101 -7 -193l1 -98q0 -104 12 -291h-47q-2 14 -11.5 99t-55.5 128.5t-129 43.5h-136v-492q0 -77 12.5 -111.5t46 -46.5t107.5 -12h150q128 0 194.5 34t96 109t45.5 220h47q-6 -55 -6 -148z
M788.5 1749.5q-101.5 -72.5 -149.5 -152.5h-37q-49 80 -150.5 152.5t-232.5 118.5l10 28q122 -25 241.5 -65t190.5 -78q59 38 155.5 78t194.5 65l11 -28q-132 -46 -233.5 -118.5z" />
    <glyph glyph-name="Ecircumflex" unicode="&#xca;" horiz-adv-x="1247" 
d="M1134 262q0 -116 14 -262q-139 6 -469 6q-393 0 -594 -6v41q74 3 107.5 16t46 48t12.5 112v1016q0 77 -12.5 112t-46 48t-107.5 16v41q201 -6 594 -6q301 0 428 6q-14 -134 -14 -242q0 -80 6 -127h-47q-15 133 -37.5 198t-76 94.5t-161.5 29.5h-170q-74 0 -107.5 -12
t-46 -46.5t-12.5 -111.5v-483h136q103 0 137 61.5t42 125.5t11 83h47q-7 -101 -7 -193l1 -98q0 -104 12 -291h-47q-2 14 -11.5 99t-55.5 128.5t-129 43.5h-136v-492q0 -77 12.5 -111.5t46 -46.5t107.5 -12h150q128 0 194.5 34t96 109t45.5 220h47q-6 -55 -6 -148z
M794.5 1723.5q101.5 -72.5 233.5 -117.5l-11 -29q-124 26 -243 65.5t-189 77.5q-58 -38 -154.5 -77.5t-195.5 -65.5l-10 29q131 45 232.5 117.5t150.5 152.5h37q48 -80 149.5 -152.5z" />
    <glyph glyph-name="Edieresis" unicode="&#xcb;" horiz-adv-x="1247" 
d="M1134 262q0 -116 14 -262q-139 6 -469 6q-393 0 -594 -6v41q74 3 107.5 16t46 48t12.5 112v1016q0 77 -12.5 112t-46 48t-107.5 16v41q201 -6 594 -6q301 0 428 6q-14 -134 -14 -242q0 -80 6 -127h-47q-15 133 -37.5 198t-76 94.5t-161.5 29.5h-170q-74 0 -107.5 -12
t-46 -46.5t-12.5 -111.5v-483h136q103 0 137 61.5t42 125.5t11 83h47q-7 -101 -7 -193l1 -98q0 -104 12 -291h-47q-2 14 -11.5 99t-55.5 128.5t-129 43.5h-136v-492q0 -77 12.5 -111.5t46 -46.5t107.5 -12h150q128 0 194.5 34t96 109t45.5 220h47q-6 -55 -6 -148z
M467.5 1802.5q27.5 -16.5 44 -44t16.5 -58.5q0 -32 -16.5 -59.5t-44 -43.5t-58.5 -16q-49 0 -84 35t-35 84q0 31 16 58.5t43.5 44t59.5 16.5q31 0 58.5 -16.5zM901.5 1802.5q27.5 -16.5 44 -44t16.5 -58.5q0 -32 -16.5 -59.5t-43.5 -43.5t-59 -16q-49 0 -84 35t-35 84
q0 31 16 58.5t43.5 44t59.5 16.5q31 0 58.5 -16.5z" />
    <glyph glyph-name="Edotaccent" unicode="&#x116;" horiz-adv-x="1247" 
d="M1134 262q0 -116 14 -262q-139 6 -469 6q-393 0 -594 -6v41q74 3 107.5 16t46 48t12.5 112v1016q0 77 -12.5 112t-46 48t-107.5 16v41q201 -6 594 -6q301 0 428 6q-14 -134 -14 -242q0 -80 6 -127h-47q-15 133 -37.5 198t-76 94.5t-161.5 29.5h-170q-74 0 -107.5 -12
t-46 -46.5t-12.5 -111.5v-483h136q103 0 137 61.5t42 125.5t11 83h47q-7 -101 -7 -193l1 -98q0 -104 12 -291h-47q-2 14 -11.5 99t-55.5 128.5t-129 43.5h-136v-492q0 -77 12.5 -111.5t46 -46.5t107.5 -12h150q128 0 194.5 34t96 109t45.5 220h47q-6 -55 -6 -148z
M718 1825.5q30 -17.5 48 -48t18 -65.5t-18 -65.5t-48 -48t-65 -17.5t-65.5 17.5t-48 48t-17.5 65.5t17.5 65.5t48 48t65.5 17.5t65 -17.5z" />
    <glyph glyph-name="Egrave" unicode="&#xc8;" horiz-adv-x="1247" 
d="M1134 262q0 -116 14 -262q-139 6 -469 6q-393 0 -594 -6v41q74 3 107.5 16t46 48t12.5 112v1016q0 77 -12.5 112t-46 48t-107.5 16v41q201 -6 594 -6q301 0 428 6q-14 -134 -14 -242q0 -80 6 -127h-47q-15 133 -37.5 198t-76 94.5t-161.5 29.5h-170q-74 0 -107.5 -12
t-46 -46.5t-12.5 -111.5v-483h136q103 0 137 61.5t42 125.5t11 83h47q-7 -101 -7 -193l1 -98q0 -104 12 -291h-47q-2 14 -11.5 99t-55.5 128.5t-129 43.5h-136v-492q0 -77 12.5 -111.5t46 -46.5t107.5 -12h150q128 0 194.5 34t96 109t45.5 220h47q-6 -55 -6 -148z
M614.5 1644.5q-59.5 25.5 -148 59.5t-129.5 59q-54 36 -54 81q0 19 11 38q23 34 63 34q31 0 62 -20q41 -26 98.5 -79t112 -101t133.5 -108l-14 -27q-75 38 -134.5 63.5z" />
    <glyph glyph-name="Emacron" unicode="&#x112;" horiz-adv-x="1247" 
d="M1134 262q0 -116 14 -262q-139 6 -469 6q-393 0 -594 -6v41q74 3 107.5 16t46 48t12.5 112v1016q0 77 -12.5 112t-46 48t-107.5 16v41q201 -6 594 -6q301 0 428 6q-14 -134 -14 -242q0 -80 6 -127h-47q-15 133 -37.5 198t-76 94.5t-161.5 29.5h-170q-74 0 -107.5 -12
t-46 -46.5t-12.5 -111.5v-483h136q103 0 137 61.5t42 125.5t11 83h47q-7 -101 -7 -193l1 -98q0 -104 12 -291h-47q-2 14 -11.5 99t-55.5 128.5t-129 43.5h-136v-492q0 -77 12.5 -111.5t46 -46.5t107.5 -12h150q128 0 194.5 34t96 109t45.5 220h47q-6 -55 -6 -148zM265 1677
v52h721v-52h-721z" />
    <glyph glyph-name="Eogonek" unicode="&#x118;" horiz-adv-x="1247" 
d="M1134 262q0 -116 14 -262q-139 6 -469 6q-393 0 -594 -6v41q74 3 107.5 16t46 48t12.5 112v1016q0 77 -12.5 112t-46 48t-107.5 16v41q201 -6 594 -6q301 0 428 6q-14 -134 -14 -242q0 -80 6 -127h-47q-15 133 -37.5 198t-76 94.5t-161.5 29.5h-170q-74 0 -107.5 -12
t-46 -46.5t-12.5 -111.5v-483h136q103 0 137 61.5t42 125.5t11 83h47q-7 -101 -7 -193l1 -98q0 -104 12 -291h-47q-2 14 -11.5 99t-55.5 128.5t-129 43.5h-136v-492q0 -77 12.5 -111.5t46 -46.5t107.5 -12h150q128 0 194.5 34t96 109t45.5 220h47q-6 -55 -6 -148zM987 -80
q-50 -56 -50 -117q0 -41 23.5 -65.5t64.5 -24.5q37 0 70.5 19.5t54.5 48.5l30 -27q-91 -139 -231 -139q-73 0 -117.5 36.5t-44.5 96.5q0 80 73.5 147t209.5 111h78q-111 -30 -161 -86z" />
    <glyph glyph-name="F" unicode="F" horiz-adv-x="1165" 
d="M679 1444q301 0 428 6q-14 -146 -14 -262q0 -103 6 -168h-47q-16 159 -41 235.5t-86.5 112t-188.5 35.5h-129q-74 0 -107.5 -12t-46 -46.5t-12.5 -111.5v-504h150q103 0 137 61.5t42 125.5t11 83h47q-7 -100 -7 -193l1 -97q0 -108 13 -291h-48q-2 14 -11.5 99t-55.5 128
t-129 43h-150v-471q0 -77 16 -112t58 -48t133 -16v-41q-106 6 -301 6q-176 0 -262 -6v41q74 3 107.5 16t46 48t12.5 112v1016q0 77 -12.5 112t-46 48t-107.5 16v41q201 -6 594 -6z" />
    <glyph glyph-name="G" unicode="G" horiz-adv-x="1440" 
d="M1207 79.5q-15 37.5 -39 37.5q-13 0 -25 -6.5t-42 -28.5q-72 -55 -148.5 -83t-171.5 -28q-210 0 -361 87t-230.5 251t-79.5 391q0 235 84.5 411.5t234.5 272t340 95.5q83 0 147.5 -17.5t112 -44.5t109.5 -71q26 -21 41 -21q39 0 51 125h47q-8 -133 -8 -471h-47
q-18 110 -39 180.5t-64 122.5q-60 74 -155 117t-199 43q-135 0 -237 -88t-158 -250.5t-56 -380.5q0 -246 52.5 -403t160 -232.5t275.5 -75.5q123 0 213 64q37 25 48 48t11 64v197q0 85 -16 124.5t-58 54t-133 18.5v41q101 -7 289 -7q144 0 213 7v-41q-48 -4 -68.5 -16.5
t-28 -46.5t-7.5 -113v-406h-41q-2 42 -17 79.5z" />
    <glyph glyph-name="Gacute" unicode="&#x1f4;" horiz-adv-x="1440" 
d="M1207 79.5q-15 37.5 -39 37.5q-13 0 -25 -6.5t-42 -28.5q-72 -55 -148.5 -83t-171.5 -28q-210 0 -361 87t-230.5 251t-79.5 391q0 235 84.5 411.5t234.5 272t340 95.5q83 0 147.5 -17.5t112 -44.5t109.5 -71q26 -21 41 -21q39 0 51 125h47q-8 -133 -8 -471h-47
q-18 110 -39 180.5t-64 122.5q-60 74 -155 117t-199 43q-135 0 -237 -88t-158 -250.5t-56 -380.5q0 -246 52.5 -403t160 -232.5t275.5 -75.5q123 0 213 64q37 25 48 48t11 64v197q0 85 -16 124.5t-58 54t-133 18.5v41q101 -7 289 -7q144 0 213 7v-41q-48 -4 -68.5 -16.5
t-28 -46.5t-7.5 -113v-406h-41q-2 42 -17 79.5zM726.5 1699.5q48.5 41.5 119 106t111.5 90.5q31 20 62 20q40 0 63 -34q11 -19 11 -38q0 -45 -54 -81q-41 -25 -113.5 -53t-141 -56t-157.5 -73l-14 27q65 50 113.5 91.5z" />
    <glyph glyph-name="Gbreve" unicode="&#x11e;" horiz-adv-x="1440" 
d="M1207 79.5q-15 37.5 -39 37.5q-13 0 -25 -6.5t-42 -28.5q-72 -55 -148.5 -83t-171.5 -28q-210 0 -361 87t-230.5 251t-79.5 391q0 235 84.5 411.5t234.5 272t340 95.5q83 0 147.5 -17.5t112 -44.5t109.5 -71q26 -21 41 -21q39 0 51 125h47q-8 -133 -8 -471h-47
q-18 110 -39 180.5t-64 122.5q-60 74 -155 117t-199 43q-135 0 -237 -88t-158 -250.5t-56 -380.5q0 -246 52.5 -403t160 -232.5t275.5 -75.5q123 0 213 64q37 25 48 48t11 64v197q0 85 -16 124.5t-58 54t-133 18.5v41q101 -7 289 -7q144 0 213 7v-41q-48 -4 -68.5 -16.5
t-28 -46.5t-7.5 -113v-406h-41q-2 42 -17 79.5zM983 1672q-103 -70 -245 -70t-245 70t-163 167l27 21q56 -55 151 -93t230 -38q134 0 230 38.5t153 94.5l24 -23q-59 -97 -162 -167z" />
    <glyph glyph-name="Gcircumflex" unicode="&#x11c;" horiz-adv-x="1440" 
d="M1207 79.5q-15 37.5 -39 37.5q-13 0 -25 -6.5t-42 -28.5q-72 -55 -148.5 -83t-171.5 -28q-210 0 -361 87t-230.5 251t-79.5 391q0 235 84.5 411.5t234.5 272t340 95.5q83 0 147.5 -17.5t112 -44.5t109.5 -71q26 -21 41 -21q39 0 51 125h47q-8 -133 -8 -471h-47
q-18 110 -39 180.5t-64 122.5q-60 74 -155 117t-199 43q-135 0 -237 -88t-158 -250.5t-56 -380.5q0 -246 52.5 -403t160 -232.5t275.5 -75.5q123 0 213 64q37 25 48 48t11 64v197q0 85 -16 124.5t-58 54t-133 18.5v41q101 -7 289 -7q144 0 213 7v-41q-48 -4 -68.5 -16.5
t-28 -46.5t-7.5 -113v-406h-41q-2 42 -17 79.5zM906.5 1723.5q101.5 -72.5 233.5 -117.5l-11 -29q-124 26 -243 65.5t-189 77.5q-58 -38 -154.5 -77.5t-195.5 -65.5l-10 29q131 45 232.5 117.5t150.5 152.5h37q48 -80 149.5 -152.5z" />
    <glyph glyph-name="Gcommaaccent" unicode="&#x122;" horiz-adv-x="1440" 
d="M1207 79.5q-15 37.5 -39 37.5q-13 0 -25 -6.5t-42 -28.5q-72 -55 -148.5 -83t-171.5 -28q-210 0 -361 87t-230.5 251t-79.5 391q0 235 84.5 411.5t234.5 272t340 95.5q83 0 147.5 -17.5t112 -44.5t109.5 -71q26 -21 41 -21q39 0 51 125h47q-8 -133 -8 -471h-47
q-18 110 -39 180.5t-64 122.5q-60 74 -155 117t-199 43q-135 0 -237 -88t-158 -250.5t-56 -380.5q0 -246 52.5 -403t160 -232.5t275.5 -75.5q123 0 213 64q37 25 48 48t11 64v197q0 85 -16 124.5t-58 54t-133 18.5v41q101 -7 289 -7q144 0 213 7v-41q-48 -4 -68.5 -16.5
t-28 -46.5t-7.5 -113v-406h-41q-2 42 -17 79.5zM800 -407q37 34 37 79q-37 -32 -86 -32q-47 0 -77 29t-30 81q0 46 33.5 77.5t81.5 31.5q59 0 96 -41.5t37 -102.5q0 -77 -36.5 -125.5t-131.5 -83.5l-14 37q53 16 90 50z" />
    <glyph glyph-name="Gdotaccent" unicode="&#x120;" horiz-adv-x="1440" 
d="M1207 79.5q-15 37.5 -39 37.5q-13 0 -25 -6.5t-42 -28.5q-72 -55 -148.5 -83t-171.5 -28q-210 0 -361 87t-230.5 251t-79.5 391q0 235 84.5 411.5t234.5 272t340 95.5q83 0 147.5 -17.5t112 -44.5t109.5 -71q26 -21 41 -21q39 0 51 125h47q-8 -133 -8 -471h-47
q-18 110 -39 180.5t-64 122.5q-60 74 -155 117t-199 43q-135 0 -237 -88t-158 -250.5t-56 -380.5q0 -246 52.5 -403t160 -232.5t275.5 -75.5q123 0 213 64q37 25 48 48t11 64v197q0 85 -16 124.5t-58 54t-133 18.5v41q101 -7 289 -7q144 0 213 7v-41q-48 -4 -68.5 -16.5
t-28 -46.5t-7.5 -113v-406h-41q-2 42 -17 79.5zM830 1825.5q30 -17.5 48 -48t18 -65.5t-18 -65.5t-48 -48t-65 -17.5t-65.5 17.5t-48 48t-17.5 65.5t17.5 65.5t48 48t65.5 17.5t65 -17.5z" />
    <glyph glyph-name="H" unicode="H" horiz-adv-x="1550" 
d="M1355.5 1393q-33.5 -13 -46 -48t-12.5 -112v-1016q0 -77 12.5 -112t46 -48t107.5 -16v-41q-85 6 -262 6q-164 0 -260 -6v41q74 3 107.5 16t46 48t12.5 112v492h-666v-492q0 -77 12.5 -112t46 -48t107.5 -16v-41q-94 6 -260 6q-176 0 -262 -6v41q74 3 107.5 16t46 48
t12.5 112v1016q0 77 -12.5 112t-46 48t-107.5 16v41q85 -6 262 -6q166 0 260 6v-41q-74 -3 -107.5 -16t-46 -48t-12.5 -112v-483h666v483q0 77 -12.5 112t-46 48t-107.5 16v41q96 -6 260 -6q176 0 262 6v-41q-74 -3 -107.5 -16z" />
    <glyph glyph-name="Hbar" unicode="&#x126;" horiz-adv-x="1550" 
d="M1355.5 1393q-33.5 -13 -46 -48t-12.5 -112v-141h166v-41h-166v-834q0 -77 12.5 -112t46 -48t107.5 -16v-41q-85 6 -262 6q-164 0 -260 -6v41q74 3 107.5 16t46 48t12.5 112v492h-666v-492q0 -77 12.5 -112t46 -48t107.5 -16v-41q-94 6 -260 6q-176 0 -262 -6v41
q74 3 107.5 16t46 48t12.5 112v834h-166v41h166v141q0 77 -12.5 112t-46 48t-107.5 16v41q85 -6 262 -6q166 0 260 6v-41q-74 -3 -107.5 -16t-46 -48t-12.5 -112v-141h666v141q0 77 -12.5 112t-46 48t-107.5 16v41q96 -6 260 -6q176 0 262 6v-41q-74 -3 -107.5 -16z
M441 1051v-301h666v301h-666z" />
    <glyph glyph-name="Hcircumflex" unicode="&#x124;" horiz-adv-x="1550" 
d="M1355.5 1393q-33.5 -13 -46 -48t-12.5 -112v-1016q0 -77 12.5 -112t46 -48t107.5 -16v-41q-85 6 -262 6q-164 0 -260 -6v41q74 3 107.5 16t46 48t12.5 112v492h-666v-492q0 -77 12.5 -112t46 -48t107.5 -16v-41q-94 6 -260 6q-176 0 -262 -6v41q74 3 107.5 16t46 48
t12.5 112v1016q0 77 -12.5 112t-46 48t-107.5 16v41q85 -6 262 -6q166 0 260 6v-41q-74 -3 -107.5 -16t-46 -48t-12.5 -112v-483h666v483q0 77 -12.5 112t-46 48t-107.5 16v41q96 -6 260 -6q176 0 262 6v-41q-74 -3 -107.5 -16zM947.5 1723.5q101.5 -72.5 233.5 -117.5
l-11 -29q-124 26 -243 65.5t-189 77.5q-58 -38 -154.5 -77.5t-195.5 -65.5l-10 29q131 45 232.5 117.5t150.5 152.5h37q48 -80 149.5 -152.5z" />
    <glyph glyph-name="I" unicode="I" 
d="M499.5 1393q-33.5 -13 -46 -48t-12.5 -112v-1016q0 -77 12.5 -112t46 -48t107.5 -16v-41q-94 6 -260 6q-176 0 -262 -6v41q74 3 107.5 16t46 48t12.5 112v1016q0 77 -12.5 112t-46 48t-107.5 16v41q85 -6 262 -6q166 0 260 6v-41q-74 -3 -107.5 -16z" />
    <glyph glyph-name="IJ" unicode="&#x132;" horiz-adv-x="1325" 
d="M499.5 1393q-33.5 -13 -46 -48t-12.5 -112v-1016q0 -77 12.5 -112t46 -48t107.5 -16v-41q-94 6 -260 6q-176 0 -262 -6v41q74 3 107.5 16t46 48t12.5 112v1016q0 77 -12.5 112t-46 48t-107.5 16v41q85 -6 262 -6q166 0 260 6v-41q-74 -3 -107.5 -16zM1145.5 1393
q-33.5 -13 -46 -48t-12.5 -112v-750q0 -174 -6.5 -308.5t-28.5 -225.5q-23 -96 -81 -171.5t-147.5 -119t-203.5 -43.5q-100 0 -172 37q-98 51 -98 141q0 48 30.5 78.5t77.5 30.5q49 0 81 -30t32 -81q0 -43 -23 -69.5t-63 -34.5q18 -18 56.5 -25.5t74.5 -7.5q89 0 153.5 46
t92.5 128q21 64 28 159.5t7 309.5v936q0 77 -12.5 112t-46 48t-107.5 16v41q85 -6 262 -6q164 0 260 6v-41q-74 -3 -107.5 -16z" />
    <glyph glyph-name="Iacute" unicode="&#xcd;" 
d="M499.5 1393q-33.5 -13 -46 -48t-12.5 -112v-1016q0 -77 12.5 -112t46 -48t107.5 -16v-41q-94 6 -260 6q-176 0 -262 -6v41q74 3 107.5 16t46 48t12.5 112v1016q0 77 -12.5 112t-46 48t-107.5 16v41q85 -6 262 -6q166 0 260 6v-41q-74 -3 -107.5 -16zM335.5 1699.5
q48.5 41.5 119 106t111.5 90.5q31 20 62 20q40 0 63 -34q11 -19 11 -38q0 -45 -54 -81q-41 -25 -113.5 -53t-141 -56t-157.5 -73l-14 27q65 50 113.5 91.5z" />
    <glyph glyph-name="Ibreve" unicode="&#x12c;" 
d="M499.5 1393q-33.5 -13 -46 -48t-12.5 -112v-1016q0 -77 12.5 -112t46 -48t107.5 -16v-41q-94 6 -260 6q-176 0 -262 -6v41q74 3 107.5 16t46 48t12.5 112v1016q0 77 -12.5 112t-46 48t-107.5 16v41q85 -6 262 -6q166 0 260 6v-41q-74 -3 -107.5 -16zM592 1672
q-103 -70 -245 -70t-245 70t-163 167l27 21q56 -55 151 -93t230 -38q134 0 230 38.5t153 94.5l24 -23q-59 -97 -162 -167z" />
    <glyph glyph-name="Icircumflex" unicode="&#xce;" 
d="M499.5 1393q-33.5 -13 -46 -48t-12.5 -112v-1016q0 -77 12.5 -112t46 -48t107.5 -16v-41q-94 6 -260 6q-176 0 -262 -6v41q74 3 107.5 16t46 48t12.5 112v1016q0 77 -12.5 112t-46 48t-107.5 16v41q85 -6 262 -6q166 0 260 6v-41q-74 -3 -107.5 -16zM515.5 1723.5
q101.5 -72.5 233.5 -117.5l-11 -29q-124 26 -243 65.5t-189 77.5q-58 -38 -154.5 -77.5t-195.5 -65.5l-10 29q131 45 232.5 117.5t150.5 152.5h37q48 -80 149.5 -152.5z" />
    <glyph glyph-name="Idieresis" unicode="&#xcf;" 
d="M499.5 1393q-33.5 -13 -46 -48t-12.5 -112v-1016q0 -77 12.5 -112t46 -48t107.5 -16v-41q-94 6 -260 6q-176 0 -262 -6v41q74 3 107.5 16t46 48t12.5 112v1016q0 77 -12.5 112t-46 48t-107.5 16v41q85 -6 262 -6q166 0 260 6v-41q-74 -3 -107.5 -16zM188.5 1802.5
q27.5 -16.5 44 -44t16.5 -58.5q0 -32 -16.5 -59.5t-44 -43.5t-58.5 -16q-49 0 -84 35t-35 84q0 31 16 58.5t43.5 44t59.5 16.5q31 0 58.5 -16.5zM622.5 1802.5q27.5 -16.5 44 -44t16.5 -58.5q0 -32 -16.5 -59.5t-43.5 -43.5t-59 -16q-49 0 -84 35t-35 84q0 31 16 58.5
t43.5 44t59.5 16.5q31 0 58.5 -16.5z" />
    <glyph glyph-name="Idotaccent" unicode="&#x130;" 
d="M499.5 1393q-33.5 -13 -46 -48t-12.5 -112v-1016q0 -77 12.5 -112t46 -48t107.5 -16v-41q-94 6 -260 6q-176 0 -262 -6v41q74 3 107.5 16t46 48t12.5 112v1016q0 77 -12.5 112t-46 48t-107.5 16v41q85 -6 262 -6q166 0 260 6v-41q-74 -3 -107.5 -16zM412 1946
q30 -18 48 -48t18 -65t-18 -65.5t-48 -48t-65 -17.5t-65.5 17.5t-48 48t-17.5 65.5t17.5 65t48 48t65.5 18t65 -18z" />
    <glyph glyph-name="Igrave" unicode="&#xcc;" 
d="M499.5 1393q-33.5 -13 -46 -48t-12.5 -112v-1016q0 -77 12.5 -112t46 -48t107.5 -16v-41q-94 6 -260 6q-176 0 -262 -6v41q74 3 107.5 16t46 48t12.5 112v1016q0 77 -12.5 112t-46 48t-107.5 16v41q85 -6 262 -6q166 0 260 6v-41q-74 -3 -107.5 -16zM335.5 1644.5
q-59.5 25.5 -148 59.5t-129.5 59q-54 36 -54 81q0 19 11 38q23 34 63 34q31 0 62 -20q41 -26 98.5 -79t112 -101t133.5 -108l-14 -27q-75 38 -134.5 63.5z" />
    <glyph glyph-name="Imacron" unicode="&#x12a;" 
d="M499.5 1393q-33.5 -13 -46 -48t-12.5 -112v-1016q0 -77 12.5 -112t46 -48t107.5 -16v-41q-94 6 -260 6q-176 0 -262 -6v41q74 3 107.5 16t46 48t12.5 112v1016q0 77 -12.5 112t-46 48t-107.5 16v41q85 -6 262 -6q166 0 260 6v-41q-74 -3 -107.5 -16zM-14 1677v52h721v-52
h-721z" />
    <glyph glyph-name="Iogonek" unicode="&#x12e;" 
d="M499.5 1393q-33.5 -13 -46 -48t-12.5 -112v-1016q0 -77 12.5 -112t46 -48t107.5 -16v-41q-94 6 -260 6q-176 0 -262 -6v41q74 3 107.5 16t46 48t12.5 112v1016q0 77 -12.5 112t-46 48t-107.5 16v41q85 -6 262 -6q166 0 260 6v-41q-74 -3 -107.5 -16zM446 -80
q-50 -56 -50 -117q0 -41 23.5 -65.5t64.5 -24.5q37 0 70.5 19.5t54.5 48.5l30 -27q-91 -139 -231 -139q-73 0 -117.5 36.5t-44.5 96.5q0 80 73.5 147t209.5 111h78q-111 -30 -161 -86z" />
    <glyph glyph-name="Itilde" unicode="&#x128;" 
d="M499.5 1393q-33.5 -13 -46 -48t-12.5 -112v-1016q0 -77 12.5 -112t46 -48t107.5 -16v-41q-94 6 -260 6q-176 0 -262 -6v41q74 3 107.5 16t46 48t12.5 112v1016q0 77 -12.5 112t-46 48t-107.5 16v41q85 -6 262 -6q166 0 260 6v-41q-74 -3 -107.5 -16zM-8 1745
q32 49 82 75.5t107 26.5q51 0 96.5 -20t138.5 -78.5t163 -58.5q95 0 127 114l30 -6q-6 -66 -38 -115t-81.5 -75.5t-107.5 -26.5q-51 0 -96 20.5t-138.5 79t-162.5 58.5q-96 0 -127 -115l-31 6q6 66 38 115z" />
    <glyph glyph-name="J" unicode="J" horiz-adv-x="668" 
d="M488.5 1393q-33.5 -13 -46 -48t-12.5 -112v-750q0 -174 -6.5 -308.5t-28.5 -225.5q-23 -96 -81 -171.5t-147.5 -119t-203.5 -43.5q-100 0 -172 37q-98 51 -98 141q0 48 30.5 78.5t77.5 30.5q49 0 81 -30t32 -81q0 -43 -23 -69.5t-63 -34.5q18 -18 56.5 -25.5t74.5 -7.5
q89 0 153.5 46t92.5 128q21 64 28 159.5t7 309.5v936q0 77 -12.5 112t-46 48t-107.5 16v41q85 -6 262 -6q164 0 260 6v-41q-74 -3 -107.5 -16z" />
    <glyph glyph-name="Jcircumflex" unicode="&#x134;" horiz-adv-x="668" 
d="M488.5 1393q-33.5 -13 -46 -48t-12.5 -112v-750q0 -174 -6.5 -308.5t-28.5 -225.5q-23 -96 -81 -171.5t-147.5 -119t-203.5 -43.5q-100 0 -172 37q-98 51 -98 141q0 48 30.5 78.5t77.5 30.5q49 0 81 -30t32 -81q0 -43 -23 -69.5t-63 -34.5q18 -18 56.5 -25.5t74.5 -7.5
q89 0 153.5 46t92.5 128q21 64 28 159.5t7 309.5v936q0 77 -12.5 112t-46 48t-107.5 16v41q85 -6 262 -6q164 0 260 6v-41q-74 -3 -107.5 -16zM503.5 1723.5q101.5 -72.5 233.5 -117.5l-11 -29q-124 26 -243 65.5t-189 77.5q-58 -38 -154.5 -77.5t-195.5 -65.5l-10 29
q131 45 232.5 117.5t150.5 152.5h37q48 -80 149.5 -152.5z" />
    <glyph glyph-name="K" unicode="K" horiz-adv-x="1341" 
d="M1234 85q42 -29 104 -44v-41q-97 6 -245 6q-111 0 -211 -6v41q48 2 71 12t23 31q0 19 -21 49l-299 451q-41 63 -71 93t-61.5 41.5t-82.5 14.5v-516q0 -77 12.5 -112t46 -48t107.5 -16v-41q-94 6 -260 6q-176 0 -262 -6v41q74 3 107.5 16t46 48t12.5 112v1016
q0 77 -12.5 112t-46 48t-107.5 16v41q85 -6 262 -6q166 0 260 6v-41q-74 -3 -107.5 -16t-46 -48t-12.5 -112v-459q149 6 234 115l196 250q105 133 105 196q0 71 -127 74v41q117 -6 235 -6q114 0 175 6v-41q-68 -10 -127.5 -44t-114.5 -105l-334 -428l475 -666q34 -52 76 -81
z" />
    <glyph glyph-name="Kcommaaccent" unicode="&#x136;" horiz-adv-x="1341" 
d="M1234 85q42 -29 104 -44v-41q-97 6 -245 6q-111 0 -211 -6v41q48 2 71 12t23 31q0 19 -21 49l-299 451q-41 63 -71 93t-61.5 41.5t-82.5 14.5v-516q0 -77 12.5 -112t46 -48t107.5 -16v-41q-94 6 -260 6q-176 0 -262 -6v41q74 3 107.5 16t46 48t12.5 112v1016
q0 77 -12.5 112t-46 48t-107.5 16v41q85 -6 262 -6q166 0 260 6v-41q-74 -3 -107.5 -16t-46 -48t-12.5 -112v-459q149 6 234 115l196 250q105 133 105 196q0 71 -127 74v41q117 -6 235 -6q114 0 175 6v-41q-68 -10 -127.5 -44t-114.5 -105l-334 -428l475 -666q34 -52 76 -81
zM737 -407q37 34 37 79q-37 -32 -86 -32q-47 0 -77 29t-30 81q0 46 33.5 77.5t81.5 31.5q59 0 96 -41.5t37 -102.5q0 -77 -36.5 -125.5t-131.5 -83.5l-14 37q53 16 90 50z" />
    <glyph glyph-name="L" unicode="L" horiz-adv-x="1204" 
d="M499.5 1393q-33.5 -13 -46 -48t-12.5 -112v-1016q0 -77 12.5 -111.5t46 -46.5t107.5 -12h150q128 0 194.5 36t96 115t45.5 232h47q-6 -64 -6 -168q0 -116 14 -262q-139 6 -469 6q-393 0 -594 -6v41q74 3 107.5 16t46 48t12.5 112v1016q0 77 -12.5 112t-46 48t-107.5 16
v41q85 -6 262 -6q166 0 260 6v-41q-74 -3 -107.5 -16z" />
    <glyph glyph-name="Lacute" unicode="&#x139;" horiz-adv-x="1204" 
d="M499.5 1393q-33.5 -13 -46 -48t-12.5 -112v-1016q0 -77 12.5 -111.5t46 -46.5t107.5 -12h150q128 0 194.5 36t96 115t45.5 232h47q-6 -64 -6 -168q0 -116 14 -262q-139 6 -469 6q-393 0 -594 -6v41q74 3 107.5 16t46 48t12.5 112v1016q0 77 -12.5 112t-46 48t-107.5 16
v41q85 -6 262 -6q166 0 260 6v-41q-74 -3 -107.5 -16zM335.5 1699.5q48.5 41.5 119 106t111.5 90.5q31 20 62 20q40 0 63 -34q11 -19 11 -38q0 -45 -54 -81q-41 -25 -113.5 -53t-141 -56t-157.5 -73l-14 27q65 50 113.5 91.5z" />
    <glyph glyph-name="Lcaron" unicode="&#x13d;" horiz-adv-x="1204" 
d="M499.5 1393q-33.5 -13 -46 -48t-12.5 -112v-1016q0 -77 12.5 -111.5t46 -46.5t107.5 -12h150q128 0 194.5 36t96 115t45.5 232h47q-6 -64 -6 -168q0 -116 14 -262q-139 6 -469 6q-393 0 -594 -6v41q74 3 107.5 16t46 48t12.5 112v1016q0 77 -12.5 112t-46 48t-107.5 16
v41q85 -6 262 -6q166 0 260 6v-41q-74 -3 -107.5 -16zM763 1446q69 0 133 16q10 -23 10 -73q0 -42 -20.5 -98t-53 -118.5t-104.5 -193.5l-29 8q41 260 41 338q0 43 -12.5 62.5t-48.5 19.5v43q43 -4 84 -4z" />
    <glyph glyph-name="Lcommaaccent" unicode="&#x13b;" horiz-adv-x="1204" 
d="M499.5 1393q-33.5 -13 -46 -48t-12.5 -112v-1016q0 -77 12.5 -111.5t46 -46.5t107.5 -12h150q128 0 194.5 36t96 115t45.5 232h47q-6 -64 -6 -168q0 -116 14 -262q-139 6 -469 6q-393 0 -594 -6v41q74 3 107.5 16t46 48t12.5 112v1016q0 77 -12.5 112t-46 48t-107.5 16
v41q85 -6 262 -6q166 0 260 6v-41q-74 -3 -107.5 -16zM708 -407q37 34 37 79q-37 -32 -86 -32q-47 0 -77 29t-30 81q0 46 33.5 77.5t81.5 31.5q59 0 96 -41.5t37 -102.5q0 -77 -36.5 -125.5t-131.5 -83.5l-14 37q53 16 90 50z" />
    <glyph glyph-name="Ldot" unicode="&#x13f;" horiz-adv-x="1268" 
d="M499.5 1393q-33.5 -13 -46 -48t-12.5 -112v-1016q0 -77 12.5 -111.5t46 -46.5t107.5 -12h150q128 0 194.5 36t96 115t45.5 232h47q-6 -64 -6 -168q0 -116 14 -262q-139 6 -469 6q-393 0 -594 -6v41q74 3 107.5 16t46 48t12.5 112v1016q0 77 -12.5 112t-46 48t-107.5 16
v41q85 -6 262 -6q166 0 260 6v-41q-74 -3 -107.5 -16zM1145.5 842.5q30.5 -17.5 48 -48t17.5 -65.5t-17.5 -65t-48 -48t-65.5 -18t-65.5 18t-48 48t-17.5 65t17.5 65.5t48 48t65.5 17.5t65.5 -17.5z" />
    <glyph glyph-name="Lslash" unicode="&#x141;" horiz-adv-x="1204" 
d="M1134 262q0 -116 14 -262q-139 6 -469 6q-393 0 -594 -6v41q74 3 107.5 16t46 48t12.5 112v309l-166 -96v47l166 96v660q0 77 -12.5 112t-46 48t-107.5 16v41q85 -6 262 -6q166 0 260 6v-41q-74 -3 -107.5 -16t-46 -48t-12.5 -112v-570l527 306v-47l-527 -306v-399
q0 -77 12.5 -111.5t46 -46.5t107.5 -12h150q128 0 194.5 36t96 115t45.5 232h47q-6 -64 -6 -168z" />
    <glyph glyph-name="M" unicode="M" horiz-adv-x="1784" 
d="M1589.5 1393q-33.5 -13 -46 -48t-12.5 -112v-1016q0 -77 12.5 -112t46 -48t107.5 -16v-41q-96 6 -260 6q-176 0 -262 -6v41q74 3 107 16t45.5 48t12.5 112v1096l-493 -1323h-33l-516 1329v-1081q0 -79 14 -119t52.5 -57.5t119.5 -20.5v-41q-73 6 -209 6q-122 0 -190 -6
v41q71 3 105.5 20.5t47.5 57.5t13 119v995q0 77 -12.5 112t-46 48t-107.5 16v41q67 -6 190 -6q108 0 175 6l450 -1188l440 1182h97q164 0 260 6v-41q-74 -3 -107.5 -16z" />
    <glyph glyph-name="N" unicode="N" horiz-adv-x="1446" 
d="M1265.5 1388.5q-34.5 -17.5 -47.5 -57.5t-13 -119v-1222h-47l-860 1329v-1081q0 -79 14 -119t52.5 -57.5t119.5 -20.5v-41q-73 6 -209 6q-122 0 -190 -6v41q71 3 105.5 20.5t47.5 57.5t13 119v995q0 77 -12.5 112t-46 48t-107.5 16v41q67 -6 190 -6q92 0 160 6l723 -1114
v876q0 79 -13.5 119t-52.5 57.5t-120 20.5v41q73 -6 209 -6q122 0 190 6v-41q-71 -3 -105.5 -20.5z" />
    <glyph glyph-name="Nacute" unicode="&#x143;" horiz-adv-x="1446" 
d="M1265.5 1388.5q-34.5 -17.5 -47.5 -57.5t-13 -119v-1222h-47l-860 1329v-1081q0 -79 14 -119t52.5 -57.5t119.5 -20.5v-41q-73 6 -209 6q-122 0 -190 -6v41q71 3 105.5 20.5t47.5 57.5t13 119v995q0 77 -12.5 112t-46 48t-107.5 16v41q67 -6 190 -6q92 0 160 6l723 -1114
v876q0 79 -13.5 119t-52.5 57.5t-120 20.5v41q73 -6 209 -6q122 0 190 6v-41q-71 -3 -105.5 -20.5zM753.5 1699.5q48.5 41.5 119 106t111.5 90.5q31 20 62 20q40 0 63 -34q11 -19 11 -38q0 -45 -54 -81q-41 -25 -113.5 -53t-141 -56t-157.5 -73l-14 27q65 50 113.5 91.5z
" />
    <glyph glyph-name="Ncaron" unicode="&#x147;" horiz-adv-x="1446" 
d="M1265.5 1388.5q-34.5 -17.5 -47.5 -57.5t-13 -119v-1222h-47l-860 1329v-1081q0 -79 14 -119t52.5 -57.5t119.5 -20.5v-41q-73 6 -209 6q-122 0 -190 -6v41q71 3 105.5 20.5t47.5 57.5t13 119v995q0 77 -12.5 112t-46 48t-107.5 16v41q67 -6 190 -6q92 0 160 6l723 -1114
v876q0 79 -13.5 119t-52.5 57.5t-120 20.5v41q73 -6 209 -6q122 0 190 6v-41q-71 -3 -105.5 -20.5zM927.5 1749.5q-101.5 -72.5 -149.5 -152.5h-37q-49 80 -150.5 152.5t-232.5 118.5l10 28q122 -25 241.5 -65t190.5 -78q59 38 155.5 78t194.5 65l11 -28
q-132 -46 -233.5 -118.5z" />
    <glyph glyph-name="Ncommaaccent" unicode="&#x145;" horiz-adv-x="1446" 
d="M1265.5 1388.5q-34.5 -17.5 -47.5 -57.5t-13 -119v-1222h-47l-860 1329v-1081q0 -79 14 -119t52.5 -57.5t119.5 -20.5v-41q-73 6 -209 6q-122 0 -190 -6v41q71 3 105.5 20.5t47.5 57.5t13 119v995q0 77 -12.5 112t-46 48t-107.5 16v41q67 -6 190 -6q92 0 160 6l723 -1114
v876q0 79 -13.5 119t-52.5 57.5t-120 20.5v41q73 -6 209 -6q122 0 190 6v-41q-71 -3 -105.5 -20.5zM780 -407q37 34 37 79q-37 -32 -86 -32q-47 0 -77 29t-30 81q0 46 33.5 77.5t81.5 31.5q59 0 96 -41.5t37 -102.5q0 -77 -36.5 -125.5t-131.5 -83.5l-14 37q53 16 90 50z
" />
    <glyph glyph-name="Eng" unicode="&#x14a;" horiz-adv-x="1444" 
d="M1181 1444q123 0 190 6v-41q-74 -3 -107.5 -16t-46 -48t-12.5 -112v-1047q0 -224 -37.5 -350t-101 -173.5t-152.5 -47.5q-79 0 -131.5 31t-52.5 96q0 46 27.5 74t68.5 28q42 0 72.5 -28t30.5 -68q0 -27 -15 -53.5t-38 -40.5q24 -4 47 -4q205 0 231 346l-856 1323v-1102
q0 -77 12.5 -112t46 -48t107.5 -16v-41q-74 6 -189 6q-122 0 -190 -6v41q74 3 107.5 16t46 48t12.5 112v1016q0 77 -12.5 112t-46 48t-107.5 16v41q67 -6 190 -6q113 0 189 6l694 -1073v856q0 77 -12.5 112t-46 48t-107.5 16v41q74 -6 189 -6z" />
    <glyph glyph-name="Ntilde" unicode="&#xd1;" horiz-adv-x="1446" 
d="M1265.5 1388.5q-34.5 -17.5 -47.5 -57.5t-13 -119v-1222h-47l-860 1329v-1081q0 -79 14 -119t52.5 -57.5t119.5 -20.5v-41q-73 6 -209 6q-122 0 -190 -6v41q71 3 105.5 20.5t47.5 57.5t13 119v995q0 77 -12.5 112t-46 48t-107.5 16v41q67 -6 190 -6q92 0 160 6l723 -1114
v876q0 79 -13.5 119t-52.5 57.5t-120 20.5v41q73 -6 209 -6q122 0 190 6v-41q-71 -3 -105.5 -20.5zM410 1745q32 49 82 75.5t107 26.5q51 0 96.5 -20t138.5 -78.5t163 -58.5q95 0 127 114l30 -6q-6 -66 -38 -115t-81.5 -75.5t-107.5 -26.5q-51 0 -96 20.5t-138.5 79
t-162.5 58.5q-96 0 -127 -115l-31 6q6 66 38 115z" />
    <glyph glyph-name="O" unicode="O" horiz-adv-x="1518" 
d="M1100.5 1391q146.5 -88 227 -255.5t80.5 -398.5q0 -226 -83 -400t-231 -270t-337 -96q-195 0 -341.5 88t-227 255.5t-80.5 398.5q0 226 83 400t231 270t337 96q195 0 341.5 -88zM520 1350.5q-100 -91.5 -154 -255t-54 -374.5q0 -213 60 -375t163.5 -250t229.5 -88
q131 0 230.5 91.5t153.5 255t54 374.5q0 213 -60 375t-163 250t-229 88q-131 0 -231 -91.5z" />
    <glyph glyph-name="Oacute" unicode="&#xd3;" horiz-adv-x="1518" 
d="M1100.5 1391q146.5 -88 227 -255.5t80.5 -398.5q0 -226 -83 -400t-231 -270t-337 -96q-195 0 -341.5 88t-227 255.5t-80.5 398.5q0 226 83 400t231 270t337 96q195 0 341.5 -88zM520 1350.5q-100 -91.5 -154 -255t-54 -374.5q0 -213 60 -375t163.5 -250t229.5 -88
q131 0 230.5 91.5t153.5 255t54 374.5q0 213 -60 375t-163 250t-229 88q-131 0 -231 -91.5zM743.5 1699.5q48.5 41.5 119 106t111.5 90.5q31 20 62 20q40 0 63 -34q11 -19 11 -38q0 -45 -54 -81q-41 -25 -113.5 -53t-141 -56t-157.5 -73l-14 27q65 50 113.5 91.5z" />
    <glyph glyph-name="Obreve" unicode="&#x14e;" horiz-adv-x="1518" 
d="M1100.5 1391q146.5 -88 227 -255.5t80.5 -398.5q0 -226 -83 -400t-231 -270t-337 -96q-195 0 -341.5 88t-227 255.5t-80.5 398.5q0 226 83 400t231 270t337 96q195 0 341.5 -88zM520 1350.5q-100 -91.5 -154 -255t-54 -374.5q0 -213 60 -375t163.5 -250t229.5 -88
q131 0 230.5 91.5t153.5 255t54 374.5q0 213 -60 375t-163 250t-229 88q-131 0 -231 -91.5zM1000 1672q-103 -70 -245 -70t-245 70t-163 167l27 21q56 -55 151 -93t230 -38q134 0 230 38.5t153 94.5l24 -23q-59 -97 -162 -167z" />
    <glyph glyph-name="Ocircumflex" unicode="&#xd4;" horiz-adv-x="1518" 
d="M1100.5 1391q146.5 -88 227 -255.5t80.5 -398.5q0 -226 -83 -400t-231 -270t-337 -96q-195 0 -341.5 88t-227 255.5t-80.5 398.5q0 226 83 400t231 270t337 96q195 0 341.5 -88zM520 1350.5q-100 -91.5 -154 -255t-54 -374.5q0 -213 60 -375t163.5 -250t229.5 -88
q131 0 230.5 91.5t153.5 255t54 374.5q0 213 -60 375t-163 250t-229 88q-131 0 -231 -91.5zM923.5 1723.5q101.5 -72.5 233.5 -117.5l-11 -29q-124 26 -243 65.5t-189 77.5q-58 -38 -154.5 -77.5t-195.5 -65.5l-10 29q131 45 232.5 117.5t150.5 152.5h37
q48 -80 149.5 -152.5z" />
    <glyph glyph-name="Odieresis" unicode="&#xd6;" horiz-adv-x="1518" 
d="M1100.5 1391q146.5 -88 227 -255.5t80.5 -398.5q0 -226 -83 -400t-231 -270t-337 -96q-195 0 -341.5 88t-227 255.5t-80.5 398.5q0 226 83 400t231 270t337 96q195 0 341.5 -88zM520 1350.5q-100 -91.5 -154 -255t-54 -374.5q0 -213 60 -375t163.5 -250t229.5 -88
q131 0 230.5 91.5t153.5 255t54 374.5q0 213 -60 375t-163 250t-229 88q-131 0 -231 -91.5zM596.5 1802.5q27.5 -16.5 44 -44t16.5 -58.5q0 -32 -16.5 -59.5t-44 -43.5t-58.5 -16q-49 0 -84 35t-35 84q0 31 16 58.5t43.5 44t59.5 16.5q31 0 58.5 -16.5zM1030.5 1802.5
q27.5 -16.5 44 -44t16.5 -58.5q0 -32 -16.5 -59.5t-43.5 -43.5t-59 -16q-49 0 -84 35t-35 84q0 31 16 58.5t43.5 44t59.5 16.5q31 0 58.5 -16.5z" />
    <glyph glyph-name="Ograve" unicode="&#xd2;" horiz-adv-x="1518" 
d="M1100.5 1391q146.5 -88 227 -255.5t80.5 -398.5q0 -226 -83 -400t-231 -270t-337 -96q-195 0 -341.5 88t-227 255.5t-80.5 398.5q0 226 83 400t231 270t337 96q195 0 341.5 -88zM520 1350.5q-100 -91.5 -154 -255t-54 -374.5q0 -213 60 -375t163.5 -250t229.5 -88
q131 0 230.5 91.5t153.5 255t54 374.5q0 213 -60 375t-163 250t-229 88q-131 0 -231 -91.5zM743.5 1644.5q-59.5 25.5 -148 59.5t-129.5 59q-54 36 -54 81q0 19 11 38q23 34 63 34q31 0 62 -20q41 -26 98.5 -79t112 -101t133.5 -108l-14 -27q-75 38 -134.5 63.5z" />
    <glyph glyph-name="Ohungarumlaut" unicode="&#x150;" horiz-adv-x="1518" 
d="M1100.5 1391q146.5 -88 227 -255.5t80.5 -398.5q0 -226 -83 -400t-231 -270t-337 -96q-195 0 -341.5 88t-227 255.5t-80.5 398.5q0 226 83 400t231 270t337 96q195 0 341.5 -88zM520 1350.5q-100 -91.5 -154 -255t-54 -374.5q0 -213 60 -375t163.5 -250t229.5 -88
q131 0 230.5 91.5t153.5 255t54 374.5q0 213 -60 375t-163 250t-229 88q-131 0 -231 -91.5zM547.5 1717q48.5 64 79.5 103.5t64 67.5q34 30 69 30t56 -26q19 -21 19 -47q0 -41 -43 -78q-28 -22 -62 -41.5t-119 -62.5t-141 -82l-18 25q47 47 95.5 111zM930.5 1717
q48.5 64 79.5 103.5t64 67.5q34 30 69 30t56 -26q19 -21 19 -47q0 -41 -43 -78q-28 -22 -62 -41.5t-119 -62.5t-141 -82l-18 25q47 47 95.5 111z" />
    <glyph glyph-name="Omacron" unicode="&#x14c;" horiz-adv-x="1518" 
d="M1100.5 1391q146.5 -88 227 -255.5t80.5 -398.5q0 -226 -83 -400t-231 -270t-337 -96q-195 0 -341.5 88t-227 255.5t-80.5 398.5q0 226 83 400t231 270t337 96q195 0 341.5 -88zM520 1350.5q-100 -91.5 -154 -255t-54 -374.5q0 -213 60 -375t163.5 -250t229.5 -88
q131 0 230.5 91.5t153.5 255t54 374.5q0 213 -60 375t-163 250t-229 88q-131 0 -231 -91.5zM394 1677v52h721v-52h-721z" />
    <glyph glyph-name="Oslash" unicode="&#xd8;" horiz-adv-x="1518" 
d="M1352.5 1076q55.5 -148 55.5 -339q0 -226 -83 -400t-231 -270t-337 -96q-235 0 -398 127l-167 -248l-43 29l172 252q-103 97 -158 244.5t-55 337.5q0 226 83 400t231 270t337 96q235 0 398 -127l159 231l39 -27l-161 -236q103 -96 158.5 -244zM928.5 1391.5
q-82.5 50.5 -177.5 50.5q-131 0 -231 -91.5t-154 -255t-54 -374.5q0 -280 103 -472l657 999q-61 93 -143.5 143.5zM588.5 57.5q82.5 -49.5 176.5 -49.5q131 0 230.5 91.5t153.5 255t54 374.5q0 280 -103 472l-655 -1001q61 -93 143.5 -142.5z" />
    <glyph glyph-name="Otilde" unicode="&#xd5;" horiz-adv-x="1518" 
d="M1100.5 1391q146.5 -88 227 -255.5t80.5 -398.5q0 -226 -83 -400t-231 -270t-337 -96q-195 0 -341.5 88t-227 255.5t-80.5 398.5q0 226 83 400t231 270t337 96q195 0 341.5 -88zM520 1350.5q-100 -91.5 -154 -255t-54 -374.5q0 -213 60 -375t163.5 -250t229.5 -88
q131 0 230.5 91.5t153.5 255t54 374.5q0 213 -60 375t-163 250t-229 88q-131 0 -231 -91.5zM400 1745q32 49 82 75.5t107 26.5q51 0 96.5 -20t138.5 -78.5t163 -58.5q95 0 127 114l30 -6q-6 -66 -38 -115t-81.5 -75.5t-107.5 -26.5q-51 0 -96 20.5t-138.5 79t-162.5 58.5
q-96 0 -127 -115l-31 6q6 66 38 115z" />
    <glyph glyph-name="OE" unicode="&#x152;" horiz-adv-x="1901" 
d="M1787 262q0 -116 14 -262q-127 6 -428 6q-287 0 -448 -4q-84 -31 -168 -31q-195 0 -341.5 88t-227 255.5t-80.5 398.5q0 226 83 400t231 270t337 96q95 0 180 -31q164 -4 434 -4q273 0 387 6q-14 -134 -14 -242q0 -80 6 -127h-47q-15 133 -37.5 198t-75.5 94.5t-161 29.5
h-68q-74 0 -107.5 -12t-46 -46.5t-12.5 -111.5v-483h88q102 0 136.5 52t43 106t11.5 71h47q-7 -83 -7 -159l1 -91q0 -88 12 -250h-47q-2 13 -12 85t-56 108.5t-129 36.5h-88v-492q0 -77 12.5 -111.5t46 -46.5t107.5 -12h47q128 0 194.5 34t96 109t45.5 220h47
q-6 -55 -6 -148zM935.5 1390.5q-71.5 51.5 -184.5 51.5q-131 0 -231 -91.5t-154 -255t-54 -374.5q0 -213 60 -375t163.5 -250t229.5 -88q57 0 113 22.5t92.5 69.5t36.5 117v1016q0 106 -71.5 157.5z" />
    <glyph glyph-name="P" unicode="P" horiz-adv-x="1198" 
d="M441 217q0 -77 16 -112t58 -48t133 -16v-41q-106 6 -301 6q-176 0 -262 -6v41q74 3 107.5 16t46 48t12.5 112v1016q0 77 -12.5 112t-46 48t-107.5 16v41q85 -6 250 -6q80 0 176.5 2t132.5 2q161 0 272 -50.5t166.5 -141.5t55.5 -212q0 -112 -50 -216t-170.5 -173
t-318.5 -69h-158v-369zM856 734q77 107 77 288q0 132 -34 217t-108.5 127.5t-197.5 42.5q-64 0 -96 -14.5t-44 -51.5t-12 -110v-606h138q200 0 277 107z" />
    <glyph glyph-name="Thorn" unicode="&#xde;" horiz-adv-x="1188" 
d="M441 217q0 -77 12.5 -112t46 -48t107.5 -16v-41q-94 6 -260 6q-176 0 -262 -6v41q74 3 107.5 16t46 48t12.5 112v1016q0 77 -12.5 112t-46 48t-107.5 16v41q86 -6 262 -6q166 0 260 6v-41q-74 -3 -107.5 -16t-46 -48t-12.5 -112v-91q216 3 189 3q160 0 271 -52
t166.5 -142.5t55.5 -205.5q0 -116 -49.5 -220.5t-170 -173t-318.5 -68.5h-144v-66zM842 434q77 110 77 299q0 188 -79.5 280.5t-260.5 92.5q-47 0 -138 -2v-780h123q201 0 278 110z" />
    <glyph glyph-name="Q" unicode="Q" horiz-adv-x="1518" 
d="M1433 -293q-102 -92 -277 -92q-95 0 -183.5 28.5t-236.5 93.5t-239 95q-14 4 -26.5 7.5t-22.5 6.5q-90 -30 -170 -30q-95 0 -95 41q0 43 111 43q74 0 154 -17q39 10 71 23t81.5 35.5t78.5 33.5q-173 17 -302 109.5t-199 253t-70 375.5q0 226 83 400t231 270t337 96
q195 0 341.5 -88t227 -255.5t80.5 -398.5q0 -213 -74 -380t-207 -267t-305 -116v-1q-50 -6 -88 -18.5t-102.5 -40t-112.5 -41.5q225 -45 384.5 -71.5t264.5 -26.5q146 0 231 42.5t132 135.5l31 -12q-46 -157 -129 -234zM372 346q60 -162 163.5 -250t229.5 -88
q131 0 230.5 91.5t153.5 255t54 374.5q0 213 -60 375t-163 250t-229 88q-131 0 -231 -91.5t-154 -255t-54 -374.5q0 -213 60 -375z" />
    <glyph glyph-name="R" unicode="R" horiz-adv-x="1327" 
d="M1256 2q-47 -31 -124 -31q-84 0 -138 49t-82 173l-45 204q-24 107 -45.5 164.5t-65 92t-120.5 34.5h-195v-471q0 -77 12.5 -112t46 -48t107.5 -16v-41q-94 6 -260 6q-176 0 -262 -6v41q74 3 107.5 16t46 48t12.5 112v1016q0 77 -12.5 112t-46 48t-107.5 16v41
q86 -6 250 -6q80 0 176.5 2t132.5 2q160 0 271 -46.5t167 -127t56 -182.5q0 -80 -37.5 -161.5t-127 -146t-233.5 -86.5l25 -4q92 -15 147 -45.5t87.5 -83.5t52.5 -141l51 -209q13 -63 26.5 -98.5t32 -52.5t46.5 -17q34 0 56 17.5t56 60.5l31 -23q-48 -69 -95 -100zM795 773
q78 44 108 118t30 178q0 168 -80 254t-260 86q-64 0 -96 -14.5t-44 -51.5t-12 -110v-504h138q138 0 216 44z" />
    <glyph glyph-name="Racute" unicode="&#x154;" horiz-adv-x="1327" 
d="M1256 2q-47 -31 -124 -31q-84 0 -138 49t-82 173l-45 204q-24 107 -45.5 164.5t-65 92t-120.5 34.5h-195v-471q0 -77 12.5 -112t46 -48t107.5 -16v-41q-94 6 -260 6q-176 0 -262 -6v41q74 3 107.5 16t46 48t12.5 112v1016q0 77 -12.5 112t-46 48t-107.5 16v41
q86 -6 250 -6q80 0 176.5 2t132.5 2q160 0 271 -46.5t167 -127t56 -182.5q0 -80 -37.5 -161.5t-127 -146t-233.5 -86.5l25 -4q92 -15 147 -45.5t87.5 -83.5t52.5 -141l51 -209q13 -63 26.5 -98.5t32 -52.5t46.5 -17q34 0 56 17.5t56 60.5l31 -23q-48 -69 -95 -100zM795 773
q78 44 108 118t30 178q0 168 -80 254t-260 86q-64 0 -96 -14.5t-44 -51.5t-12 -110v-504h138q138 0 216 44zM593.5 1699.5q48.5 41.5 119 106t111.5 90.5q31 20 62 20q40 0 63 -34q11 -19 11 -38q0 -45 -54 -81q-41 -25 -113.5 -53t-141 -56t-157.5 -73l-14 27
q65 50 113.5 91.5z" />
    <glyph glyph-name="Rcaron" unicode="&#x158;" horiz-adv-x="1327" 
d="M1256 2q-47 -31 -124 -31q-84 0 -138 49t-82 173l-45 204q-24 107 -45.5 164.5t-65 92t-120.5 34.5h-195v-471q0 -77 12.5 -112t46 -48t107.5 -16v-41q-94 6 -260 6q-176 0 -262 -6v41q74 3 107.5 16t46 48t12.5 112v1016q0 77 -12.5 112t-46 48t-107.5 16v41
q86 -6 250 -6q80 0 176.5 2t132.5 2q160 0 271 -46.5t167 -127t56 -182.5q0 -80 -37.5 -161.5t-127 -146t-233.5 -86.5l25 -4q92 -15 147 -45.5t87.5 -83.5t52.5 -141l51 -209q13 -63 26.5 -98.5t32 -52.5t46.5 -17q34 0 56 17.5t56 60.5l31 -23q-48 -69 -95 -100zM795 773
q78 44 108 118t30 178q0 168 -80 254t-260 86q-64 0 -96 -14.5t-44 -51.5t-12 -110v-504h138q138 0 216 44zM767.5 1749.5q-101.5 -72.5 -149.5 -152.5h-37q-49 80 -150.5 152.5t-232.5 118.5l10 28q122 -25 241.5 -65t190.5 -78q59 38 155.5 78t194.5 65l11 -28
q-132 -46 -233.5 -118.5z" />
    <glyph glyph-name="Rcommaaccent" unicode="&#x156;" horiz-adv-x="1327" 
d="M1256 2q-47 -31 -124 -31q-84 0 -138 49t-82 173l-45 204q-24 107 -45.5 164.5t-65 92t-120.5 34.5h-195v-471q0 -77 12.5 -112t46 -48t107.5 -16v-41q-94 6 -260 6q-176 0 -262 -6v41q74 3 107.5 16t46 48t12.5 112v1016q0 77 -12.5 112t-46 48t-107.5 16v41
q86 -6 250 -6q80 0 176.5 2t132.5 2q160 0 271 -46.5t167 -127t56 -182.5q0 -80 -37.5 -161.5t-127 -146t-233.5 -86.5l25 -4q92 -15 147 -45.5t87.5 -83.5t52.5 -141l51 -209q13 -63 26.5 -98.5t32 -52.5t46.5 -17q34 0 56 17.5t56 60.5l31 -23q-48 -69 -95 -100zM795 773
q78 44 108 118t30 178q0 168 -80 254t-260 86q-64 0 -96 -14.5t-44 -51.5t-12 -110v-504h138q138 0 216 44zM718 -407q37 34 37 79q-37 -32 -86 -32q-47 0 -77 29t-30 81q0 46 33.5 77.5t81.5 31.5q59 0 96 -41.5t37 -102.5q0 -77 -36.5 -125.5t-131.5 -83.5l-14 37
q53 16 90 50z" />
    <glyph glyph-name="S" unicode="S" horiz-adv-x="1106" 
d="M285 140.5q88 -128.5 271 -128.5q70 0 130.5 29t98 90.5t37.5 153.5q0 79 -38.5 141.5t-104.5 114.5t-176 118q-122 73 -196 131t-121.5 138.5t-47.5 189.5q0 116 52.5 196t140 119.5t192.5 39.5q63 0 108.5 -10.5t75.5 -26t66 -39.5q46 -29 70 -29q19 0 29 21.5t16 68.5
h47q-10 -120 -10 -418h-47q-8 105 -45.5 194t-110 144.5t-180.5 55.5q-72 0 -129 -30t-89 -84t-32 -124q0 -111 67 -179t156.5 -122.5t120.5 -73.5q129 -81 204 -140.5t120 -138t45 -182.5q0 -126 -58 -213.5t-156.5 -131.5t-220.5 -44q-98 0 -161 20.5t-119 55.5
q-46 29 -70 29q-19 0 -29 -21.5t-16 -68.5h-47q8 112 8 491h47q14 -208 102 -336.5z" />
    <glyph glyph-name="Sacute" unicode="&#x15a;" horiz-adv-x="1106" 
d="M285 140.5q88 -128.5 271 -128.5q70 0 130.5 29t98 90.5t37.5 153.5q0 79 -38.5 141.5t-104.5 114.5t-176 118q-122 73 -196 131t-121.5 138.5t-47.5 189.5q0 116 52.5 196t140 119.5t192.5 39.5q63 0 108.5 -10.5t75.5 -26t66 -39.5q46 -29 70 -29q19 0 29 21.5t16 68.5
h47q-10 -120 -10 -418h-47q-8 105 -45.5 194t-110 144.5t-180.5 55.5q-72 0 -129 -30t-89 -84t-32 -124q0 -111 67 -179t156.5 -122.5t120.5 -73.5q129 -81 204 -140.5t120 -138t45 -182.5q0 -126 -58 -213.5t-156.5 -131.5t-220.5 -44q-98 0 -161 20.5t-119 55.5
q-46 29 -70 29q-19 0 -29 -21.5t-16 -68.5h-47q8 112 8 491h47q14 -208 102 -336.5zM550.5 1699.5q48.5 41.5 119 106t111.5 90.5q31 20 62 20q40 0 63 -34q11 -19 11 -38q0 -45 -54 -81q-41 -25 -113.5 -53t-141 -56t-157.5 -73l-14 27q65 50 113.5 91.5z" />
    <glyph glyph-name="Scaron" unicode="&#x160;" horiz-adv-x="1106" 
d="M285 140.5q88 -128.5 271 -128.5q70 0 130.5 29t98 90.5t37.5 153.5q0 79 -38.5 141.5t-104.5 114.5t-176 118q-122 73 -196 131t-121.5 138.5t-47.5 189.5q0 116 52.5 196t140 119.5t192.5 39.5q63 0 108.5 -10.5t75.5 -26t66 -39.5q46 -29 70 -29q19 0 29 21.5t16 68.5
h47q-10 -120 -10 -418h-47q-8 105 -45.5 194t-110 144.5t-180.5 55.5q-72 0 -129 -30t-89 -84t-32 -124q0 -111 67 -179t156.5 -122.5t120.5 -73.5q129 -81 204 -140.5t120 -138t45 -182.5q0 -126 -58 -213.5t-156.5 -131.5t-220.5 -44q-98 0 -161 20.5t-119 55.5
q-46 29 -70 29q-19 0 -29 -21.5t-16 -68.5h-47q8 112 8 491h47q14 -208 102 -336.5zM724.5 1749.5q-101.5 -72.5 -149.5 -152.5h-37q-49 80 -150.5 152.5t-232.5 118.5l10 28q122 -25 241.5 -65t190.5 -78q59 38 155.5 78t194.5 65l11 -28q-132 -46 -233.5 -118.5z" />
    <glyph glyph-name="Scedilla" unicode="&#x15e;" horiz-adv-x="1106" 
d="M285 140.5q88 -128.5 271 -128.5q70 0 130.5 29t98 90.5t37.5 153.5q0 79 -38.5 141.5t-104.5 114.5t-176 118q-122 73 -196 131t-121.5 138.5t-47.5 189.5q0 116 52.5 196t140 119.5t192.5 39.5q63 0 108.5 -10.5t75.5 -26t66 -39.5q46 -29 70 -29q19 0 29 21.5t16 68.5
h47q-10 -120 -10 -418h-47q-8 105 -45.5 194t-110 144.5t-180.5 55.5q-72 0 -129 -30t-89 -84t-32 -124q0 -111 67 -179t156.5 -122.5t120.5 -73.5q129 -81 204 -140.5t120 -138t45 -182.5q0 -126 -58 -213.5t-156.5 -131.5t-220.5 -44q-98 0 -161 20.5t-119 55.5
q-46 29 -70 29q-19 0 -29 -21.5t-16 -68.5h-47q8 112 8 491h47q14 -208 102 -336.5zM675 -133q58 0 91.5 -25.5t33.5 -70.5q0 -54 -35.5 -89t-88.5 -51t-107 -16q-105 0 -170 23l8 36q42 -6 78 -6q74 0 129 21.5t55 70.5q0 58 -86 58q-58 0 -100 -15l69 207h56l-54 -157
q61 14 121 14z" />
    <glyph glyph-name="Scircumflex" unicode="&#x15c;" horiz-adv-x="1106" 
d="M285 140.5q88 -128.5 271 -128.5q70 0 130.5 29t98 90.5t37.5 153.5q0 79 -38.5 141.5t-104.5 114.5t-176 118q-122 73 -196 131t-121.5 138.5t-47.5 189.5q0 116 52.5 196t140 119.5t192.5 39.5q63 0 108.5 -10.5t75.5 -26t66 -39.5q46 -29 70 -29q19 0 29 21.5t16 68.5
h47q-10 -120 -10 -418h-47q-8 105 -45.5 194t-110 144.5t-180.5 55.5q-72 0 -129 -30t-89 -84t-32 -124q0 -111 67 -179t156.5 -122.5t120.5 -73.5q129 -81 204 -140.5t120 -138t45 -182.5q0 -126 -58 -213.5t-156.5 -131.5t-220.5 -44q-98 0 -161 20.5t-119 55.5
q-46 29 -70 29q-19 0 -29 -21.5t-16 -68.5h-47q8 112 8 491h47q14 -208 102 -336.5zM730.5 1723.5q101.5 -72.5 233.5 -117.5l-11 -29q-124 26 -243 65.5t-189 77.5q-58 -38 -154.5 -77.5t-195.5 -65.5l-10 29q131 45 232.5 117.5t150.5 152.5h37q48 -80 149.5 -152.5z" />
    <glyph glyph-name="Scommaaccent" unicode="&#x218;" horiz-adv-x="1106" 
d="M285 140.5q88 -128.5 271 -128.5q70 0 130.5 29t98 90.5t37.5 153.5q0 79 -38.5 141.5t-104.5 114.5t-176 118q-122 73 -196 131t-121.5 138.5t-47.5 189.5q0 116 52.5 196t140 119.5t192.5 39.5q63 0 108.5 -10.5t75.5 -26t66 -39.5q46 -29 70 -29q19 0 29 21.5t16 68.5
h47q-10 -120 -10 -418h-47q-8 105 -45.5 194t-110 144.5t-180.5 55.5q-72 0 -129 -30t-89 -84t-32 -124q0 -111 67 -179t156.5 -122.5t120.5 -73.5q129 -81 204 -140.5t120 -138t45 -182.5q0 -126 -58 -213.5t-156.5 -131.5t-220.5 -44q-98 0 -161 20.5t-119 55.5
q-46 29 -70 29q-19 0 -29 -21.5t-16 -68.5h-47q8 112 8 491h47q14 -208 102 -336.5zM614 -407q37 34 37 79q-37 -32 -86 -32q-47 0 -77 29t-30 81q0 46 33.5 77.5t81.5 31.5q59 0 96 -41.5t37 -102.5q0 -77 -36.5 -125.5t-131.5 -83.5l-14 37q53 16 90 50z" />
    <glyph glyph-name="uni1E9E" unicode="&#x1e9e;" horiz-adv-x="1395" 
d="M753 1479q126 0 230.5 -36.5t197.5 -109.5l-310 -489q127 -27 227.5 -89t158 -153.5t57.5 -204.5q0 -116 -62 -213.5t-177.5 -155t-268.5 -57.5q-115 0 -195 37q-100 49 -100 142q0 47 30.5 77.5t78.5 30.5q49 0 80.5 -30t31.5 -81q0 -43 -23 -69.5t-63 -34.5
q21 -18 65.5 -25.5t84.5 -7.5q101 0 171.5 55t106 144.5t35.5 193.5q0 128 -52.5 224t-147.5 154t-222 77l322 524q-38 29 -103 44.5t-131 15.5q-172 0 -279.5 -121t-107.5 -412v-692q0 -72 9 -108t32.5 -51.5t71.5 -16.5v-41q-26 0 -93.5 3t-140.5 3q-149 0 -235 -6v41
q74 3 107.5 16t46 48t12.5 112v567q0 695 555 695z" />
    <glyph glyph-name="T" unicode="T" horiz-adv-x="1272" 
d="M73 1188q0 120 -15 262q170 -6 578 -6q405 0 575 6q-14 -146 -14 -262q0 -103 6 -168h-47q-16 159 -40.5 235.5t-86 112t-188.5 35.5h-111v-1165q0 -85 16 -124.5t58 -54.5t133 -18v-41q-108 6 -301 6q-205 0 -303 -6v41q91 3 133 18t58 54.5t16 124.5v1165h-111
q-127 0 -188.5 -35.5t-86 -112t-40.5 -235.5h-47q6 65 6 168z" />
    <glyph glyph-name="Tbar" unicode="&#x166;" horiz-adv-x="1284" 
d="M77 1188q0 120 -15 262q170 -6 578 -6q405 0 575 6q-14 -146 -14 -262q0 -103 6 -168h-47q-16 159 -40.5 235.5t-86 112t-188.5 35.5h-111v-653h328v-41h-328v-471q0 -85 16 -124.5t58 -54.5t133 -18v-41q-108 6 -301 6q-205 0 -303 -6v41q91 3 133 18t58 54.5t16 124.5
v471h-330v41h330v653h-111q-127 0 -188.5 -35.5t-86 -112t-40.5 -235.5h-47q6 65 6 168z" />
    <glyph glyph-name="Tcaron" unicode="&#x164;" horiz-adv-x="1272" 
d="M73 1188q0 120 -15 262q170 -6 578 -6q405 0 575 6q-14 -146 -14 -262q0 -103 6 -168h-47q-16 159 -40.5 235.5t-86 112t-188.5 35.5h-111v-1165q0 -85 16 -124.5t58 -54.5t133 -18v-41q-108 6 -301 6q-205 0 -303 -6v41q91 3 133 18t58 54.5t16 124.5v1165h-111
q-127 0 -188.5 -35.5t-86 -112t-40.5 -235.5h-47q6 65 6 168zM798.5 1749.5q-101.5 -72.5 -149.5 -152.5h-37q-49 80 -150.5 152.5t-232.5 118.5l10 28q122 -25 241.5 -65t190.5 -78q59 38 155.5 78t194.5 65l11 -28q-132 -46 -233.5 -118.5z" />
    <glyph glyph-name="Tcedilla" unicode="&#x162;" horiz-adv-x="1272" 
d="M73 1188q0 120 -15 262q170 -6 578 -6q405 0 575 6q-14 -146 -14 -262q0 -103 6 -168h-47q-16 159 -40.5 235.5t-86 112t-188.5 35.5h-111v-1165q0 -85 16 -124.5t58 -54.5t133 -18v-41q-108 6 -301 6q-205 0 -303 -6v41q91 3 133 18t58 54.5t16 124.5v1165h-111
q-127 0 -188.5 -35.5t-86 -112t-40.5 -235.5h-47q6 65 6 168zM726 -133q58 0 91.5 -25.5t33.5 -70.5q0 -54 -35.5 -89t-88.5 -51t-107 -16q-105 0 -170 23l8 36q42 -6 78 -6q74 0 129 21.5t55 70.5q0 58 -86 58q-58 0 -100 -15l69 207h56l-54 -157q61 14 121 14z" />
    <glyph glyph-name="uni021A" unicode="&#x21a;" horiz-adv-x="1272" 
d="M73 1188q0 120 -15 262q170 -6 578 -6q405 0 575 6q-14 -146 -14 -262q0 -103 6 -168h-47q-16 159 -40.5 235.5t-86 112t-188.5 35.5h-111v-1165q0 -85 16 -124.5t58 -54.5t133 -18v-41q-108 6 -301 6q-205 0 -303 -6v41q91 3 133 18t58 54.5t16 124.5v1165h-111
q-127 0 -188.5 -35.5t-86 -112t-40.5 -235.5h-47q6 65 6 168zM665 -407q37 34 37 79q-37 -32 -86 -32q-47 0 -77 29t-30 81q0 46 33.5 77.5t81.5 31.5q59 0 96 -41.5t37 -102.5q0 -77 -36.5 -125.5t-131.5 -83.5l-14 37q53 16 90 50z" />
    <glyph glyph-name="U" unicode="U" horiz-adv-x="1397" 
d="M1234.5 1388.5q-34.5 -17.5 -47 -57.5t-12.5 -119v-616q0 -147 -19.5 -252.5t-64.5 -181.5q-52 -88 -151.5 -139.5t-223.5 -51.5q-225 0 -344 111q-61 57 -93.5 120.5t-45.5 153.5t-13 234v643q0 77 -12.5 112t-46 48t-107.5 16v41q87 -6 262 -6q165 0 261 6v-41
q-74 -3 -107.5 -16t-46 -48t-12.5 -112v-678q0 -164 22 -272t92.5 -174t208.5 -66q217 0 305 139t88 391v639q0 76 -17.5 117t-57 59t-111.5 21v41q74 -6 209 -6q123 0 190 6v-41q-71 -3 -105.5 -20.5z" />
    <glyph glyph-name="Uacute" unicode="&#xda;" horiz-adv-x="1397" 
d="M1234.5 1388.5q-34.5 -17.5 -47 -57.5t-12.5 -119v-616q0 -147 -19.5 -252.5t-64.5 -181.5q-52 -88 -151.5 -139.5t-223.5 -51.5q-225 0 -344 111q-61 57 -93.5 120.5t-45.5 153.5t-13 234v643q0 77 -12.5 112t-46 48t-107.5 16v41q87 -6 262 -6q165 0 261 6v-41
q-74 -3 -107.5 -16t-46 -48t-12.5 -112v-678q0 -164 22 -272t92.5 -174t208.5 -66q217 0 305 139t88 391v639q0 76 -17.5 117t-57 59t-111.5 21v41q74 -6 209 -6q123 0 190 6v-41q-71 -3 -105.5 -20.5zM708.5 1699.5q48.5 41.5 119 106t111.5 90.5q31 20 62 20q40 0 63 -34
q11 -19 11 -38q0 -45 -54 -81q-41 -25 -113.5 -53t-141 -56t-157.5 -73l-14 27q65 50 113.5 91.5z" />
    <glyph glyph-name="Ubreve" unicode="&#x16c;" horiz-adv-x="1397" 
d="M1234.5 1388.5q-34.5 -17.5 -47 -57.5t-12.5 -119v-616q0 -147 -19.5 -252.5t-64.5 -181.5q-52 -88 -151.5 -139.5t-223.5 -51.5q-225 0 -344 111q-61 57 -93.5 120.5t-45.5 153.5t-13 234v643q0 77 -12.5 112t-46 48t-107.5 16v41q87 -6 262 -6q165 0 261 6v-41
q-74 -3 -107.5 -16t-46 -48t-12.5 -112v-678q0 -164 22 -272t92.5 -174t208.5 -66q217 0 305 139t88 391v639q0 76 -17.5 117t-57 59t-111.5 21v41q74 -6 209 -6q123 0 190 6v-41q-71 -3 -105.5 -20.5zM965 1672q-103 -70 -245 -70t-245 70t-163 167l27 21q56 -55 151 -93
t230 -38q134 0 230 38.5t153 94.5l24 -23q-59 -97 -162 -167z" />
    <glyph glyph-name="Ucircumflex" unicode="&#xdb;" horiz-adv-x="1397" 
d="M1234.5 1388.5q-34.5 -17.5 -47 -57.5t-12.5 -119v-616q0 -147 -19.5 -252.5t-64.5 -181.5q-52 -88 -151.5 -139.5t-223.5 -51.5q-225 0 -344 111q-61 57 -93.5 120.5t-45.5 153.5t-13 234v643q0 77 -12.5 112t-46 48t-107.5 16v41q87 -6 262 -6q165 0 261 6v-41
q-74 -3 -107.5 -16t-46 -48t-12.5 -112v-678q0 -164 22 -272t92.5 -174t208.5 -66q217 0 305 139t88 391v639q0 76 -17.5 117t-57 59t-111.5 21v41q74 -6 209 -6q123 0 190 6v-41q-71 -3 -105.5 -20.5zM888.5 1723.5q101.5 -72.5 233.5 -117.5l-11 -29q-124 26 -243 65.5
t-189 77.5q-58 -38 -154.5 -77.5t-195.5 -65.5l-10 29q131 45 232.5 117.5t150.5 152.5h37q48 -80 149.5 -152.5z" />
    <glyph glyph-name="Udieresis" unicode="&#xdc;" horiz-adv-x="1397" 
d="M1234.5 1388.5q-34.5 -17.5 -47 -57.5t-12.5 -119v-616q0 -147 -19.5 -252.5t-64.5 -181.5q-52 -88 -151.5 -139.5t-223.5 -51.5q-225 0 -344 111q-61 57 -93.5 120.5t-45.5 153.5t-13 234v643q0 77 -12.5 112t-46 48t-107.5 16v41q87 -6 262 -6q165 0 261 6v-41
q-74 -3 -107.5 -16t-46 -48t-12.5 -112v-678q0 -164 22 -272t92.5 -174t208.5 -66q217 0 305 139t88 391v639q0 76 -17.5 117t-57 59t-111.5 21v41q74 -6 209 -6q123 0 190 6v-41q-71 -3 -105.5 -20.5zM561.5 1802.5q27.5 -16.5 44 -44t16.5 -58.5q0 -32 -16.5 -59.5
t-44 -43.5t-58.5 -16q-49 0 -84 35t-35 84q0 31 16 58.5t43.5 44t59.5 16.5q31 0 58.5 -16.5zM995.5 1802.5q27.5 -16.5 44 -44t16.5 -58.5q0 -32 -16.5 -59.5t-43.5 -43.5t-59 -16q-49 0 -84 35t-35 84q0 31 16 58.5t43.5 44t59.5 16.5q31 0 58.5 -16.5z" />
    <glyph glyph-name="Ugrave" unicode="&#xd9;" horiz-adv-x="1397" 
d="M1234.5 1388.5q-34.5 -17.5 -47 -57.5t-12.5 -119v-616q0 -147 -19.5 -252.5t-64.5 -181.5q-52 -88 -151.5 -139.5t-223.5 -51.5q-225 0 -344 111q-61 57 -93.5 120.5t-45.5 153.5t-13 234v643q0 77 -12.5 112t-46 48t-107.5 16v41q87 -6 262 -6q165 0 261 6v-41
q-74 -3 -107.5 -16t-46 -48t-12.5 -112v-678q0 -164 22 -272t92.5 -174t208.5 -66q217 0 305 139t88 391v639q0 76 -17.5 117t-57 59t-111.5 21v41q74 -6 209 -6q123 0 190 6v-41q-71 -3 -105.5 -20.5zM708.5 1644.5q-59.5 25.5 -148 59.5t-129.5 59q-54 36 -54 81
q0 19 11 38q23 34 63 34q31 0 62 -20q41 -26 98.5 -79t112 -101t133.5 -108l-14 -27q-75 38 -134.5 63.5z" />
    <glyph glyph-name="Uhungarumlaut" unicode="&#x170;" horiz-adv-x="1397" 
d="M1234.5 1388.5q-34.5 -17.5 -47 -57.5t-12.5 -119v-616q0 -147 -19.5 -252.5t-64.5 -181.5q-52 -88 -151.5 -139.5t-223.5 -51.5q-225 0 -344 111q-61 57 -93.5 120.5t-45.5 153.5t-13 234v643q0 77 -12.5 112t-46 48t-107.5 16v41q87 -6 262 -6q165 0 261 6v-41
q-74 -3 -107.5 -16t-46 -48t-12.5 -112v-678q0 -164 22 -272t92.5 -174t208.5 -66q217 0 305 139t88 391v639q0 76 -17.5 117t-57 59t-111.5 21v41q74 -6 209 -6q123 0 190 6v-41q-71 -3 -105.5 -20.5zM512.5 1717q48.5 64 79.5 103.5t64 67.5q34 30 69 30t56 -26
q19 -21 19 -47q0 -41 -43 -78q-28 -22 -62 -41.5t-119 -62.5t-141 -82l-18 25q47 47 95.5 111zM895.5 1717q48.5 64 79.5 103.5t64 67.5q34 30 69 30t56 -26q19 -21 19 -47q0 -41 -43 -78q-28 -22 -62 -41.5t-119 -62.5t-141 -82l-18 25q47 47 95.5 111z" />
    <glyph glyph-name="Umacron" unicode="&#x16a;" horiz-adv-x="1397" 
d="M1234.5 1388.5q-34.5 -17.5 -47 -57.5t-12.5 -119v-616q0 -147 -19.5 -252.5t-64.5 -181.5q-52 -88 -151.5 -139.5t-223.5 -51.5q-225 0 -344 111q-61 57 -93.5 120.5t-45.5 153.5t-13 234v643q0 77 -12.5 112t-46 48t-107.5 16v41q87 -6 262 -6q165 0 261 6v-41
q-74 -3 -107.5 -16t-46 -48t-12.5 -112v-678q0 -164 22 -272t92.5 -174t208.5 -66q217 0 305 139t88 391v639q0 76 -17.5 117t-57 59t-111.5 21v41q74 -6 209 -6q123 0 190 6v-41q-71 -3 -105.5 -20.5zM359 1677v52h721v-52h-721z" />
    <glyph glyph-name="Uogonek" unicode="&#x172;" horiz-adv-x="1397" 
d="M1234.5 1388.5q-34.5 -17.5 -47 -57.5t-12.5 -119v-616q0 -147 -19.5 -252.5t-64.5 -181.5q-52 -88 -151.5 -139.5t-223.5 -51.5q-225 0 -344 111q-61 57 -93.5 120.5t-45.5 153.5t-13 234v643q0 77 -12.5 112t-46 48t-107.5 16v41q87 -6 262 -6q165 0 261 6v-41
q-74 -3 -107.5 -16t-46 -48t-12.5 -112v-678q0 -164 22 -272t92.5 -174t208.5 -66q217 0 305 139t88 391v639q0 76 -17.5 117t-57 59t-111.5 21v41q74 -6 209 -6q123 0 190 6v-41q-71 -3 -105.5 -20.5zM739 -80q-50 -56 -50 -117q0 -41 23.5 -65.5t64.5 -24.5
q37 0 70.5 19.5t54.5 48.5l30 -27q-91 -139 -231 -139q-73 0 -117.5 36.5t-44.5 96.5q0 80 73.5 147t209.5 111h78q-111 -30 -161 -86z" />
    <glyph glyph-name="Uring" unicode="&#x16e;" horiz-adv-x="1397" 
d="M1234.5 1388.5q-34.5 -17.5 -47 -57.5t-12.5 -119v-616q0 -147 -19.5 -252.5t-64.5 -181.5q-52 -88 -151.5 -139.5t-223.5 -51.5q-225 0 -344 111q-61 57 -93.5 120.5t-45.5 153.5t-13 234v643q0 77 -12.5 112t-46 48t-107.5 16v41q87 -6 262 -6q165 0 261 6v-41
q-74 -3 -107.5 -16t-46 -48t-12.5 -112v-678q0 -164 22 -272t92.5 -174t208.5 -66q217 0 305 139t88 391v639q0 76 -17.5 117t-57 59t-111.5 21v41q74 -6 209 -6q123 0 190 6v-41q-71 -3 -105.5 -20.5zM819.5 1994q45.5 -23 72.5 -65.5t27 -97.5q0 -57 -27 -100t-72.5 -66
t-99.5 -23q-53 0 -97.5 23t-71.5 66t-27 100q0 55 27 97.5t72 65.5t97 23q54 0 99.5 -23zM654 1957q-32 -17 -52.5 -50t-20.5 -78q0 -46 20.5 -78.5t52.5 -49t66 -16.5q36 0 68.5 16.5t53 49t20.5 78.5q0 45 -20.5 78t-53.5 50t-68 17q-34 0 -66 -17z" />
    <glyph glyph-name="Utilde" unicode="&#x168;" horiz-adv-x="1397" 
d="M1234.5 1388.5q-34.5 -17.5 -47 -57.5t-12.5 -119v-616q0 -147 -19.5 -252.5t-64.5 -181.5q-52 -88 -151.5 -139.5t-223.5 -51.5q-225 0 -344 111q-61 57 -93.5 120.5t-45.5 153.5t-13 234v643q0 77 -12.5 112t-46 48t-107.5 16v41q87 -6 262 -6q165 0 261 6v-41
q-74 -3 -107.5 -16t-46 -48t-12.5 -112v-678q0 -164 22 -272t92.5 -174t208.5 -66q217 0 305 139t88 391v639q0 76 -17.5 117t-57 59t-111.5 21v41q74 -6 209 -6q123 0 190 6v-41q-71 -3 -105.5 -20.5zM365 1745q32 49 82 75.5t107 26.5q51 0 96.5 -20t138.5 -78.5
t163 -58.5q95 0 127 114l30 -6q-6 -66 -38 -115t-81.5 -75.5t-107.5 -26.5q-51 0 -96 20.5t-138.5 79t-162.5 58.5q-96 0 -127 -115l-31 6q6 66 38 115z" />
    <glyph glyph-name="V" unicode="V" horiz-adv-x="1290" 
d="M1151 1444q92 0 154 6v-41q-103 -23 -162 -178l-481 -1241h-17h-16l-500 1288q-50 127 -141 131v41q83 -6 219 -6q176 0 262 6v-41q-78 -3 -111.5 -19t-33.5 -57q0 -34 24 -96l371 -984l334 865q41 106 41 167q0 65 -44 93.5t-135 30.5v41q117 -6 236 -6z" />
    <glyph glyph-name="W" unicode="W" horiz-adv-x="1853" 
d="M1704 1444q92 0 154 6v-41q-114 -25 -162 -178l-387 -1241h-17h-16l-356 1055l-326 -1055h-16h-17l-434 1288q-44 126 -141 131v41q82 -6 219 -6q147 0 221 6v-41q-54 -4 -77 -20t-23 -51q0 -33 22 -101l300 -913l248 793l-54 161q-42 127 -121 131v41q74 -6 199 -6
q175 0 262 6v-41q-53 -2 -81 -7.5t-43.5 -20.5t-15.5 -45q0 -34 21 -99l294 -911l253 792q33 104 33 165q0 68 -41.5 96t-133.5 30v41q117 -6 236 -6z" />
    <glyph glyph-name="Wacute" unicode="&#x1e82;" horiz-adv-x="1853" 
d="M1704 1444q92 0 154 6v-41q-114 -25 -162 -178l-387 -1241h-17h-16l-356 1055l-326 -1055h-16h-17l-434 1288q-44 126 -141 131v41q82 -6 219 -6q147 0 221 6v-41q-54 -4 -77 -20t-23 -51q0 -33 22 -101l300 -913l248 793l-54 161q-42 127 -121 131v41q74 -6 199 -6
q175 0 262 6v-41q-53 -2 -81 -7.5t-43.5 -20.5t-15.5 -45q0 -34 21 -99l294 -911l253 792q33 104 33 165q0 68 -41.5 96t-133.5 30v41q117 -6 236 -6zM937.5 1699.5q48.5 41.5 119 106t111.5 90.5q31 20 62 20q40 0 63 -34q11 -19 11 -38q0 -45 -54 -81q-41 -25 -113.5 -53
t-141 -56t-157.5 -73l-14 27q65 50 113.5 91.5z" />
    <glyph glyph-name="Wcircumflex" unicode="&#x174;" horiz-adv-x="1853" 
d="M1704 1444q92 0 154 6v-41q-114 -25 -162 -178l-387 -1241h-17h-16l-356 1055l-326 -1055h-16h-17l-434 1288q-44 126 -141 131v41q82 -6 219 -6q147 0 221 6v-41q-54 -4 -77 -20t-23 -51q0 -33 22 -101l300 -913l248 793l-54 161q-42 127 -121 131v41q74 -6 199 -6
q175 0 262 6v-41q-53 -2 -81 -7.5t-43.5 -20.5t-15.5 -45q0 -34 21 -99l294 -911l253 792q33 104 33 165q0 68 -41.5 96t-133.5 30v41q117 -6 236 -6zM1117.5 1723.5q101.5 -72.5 233.5 -117.5l-11 -29q-124 26 -243 65.5t-189 77.5q-58 -38 -154.5 -77.5t-195.5 -65.5
l-10 29q131 45 232.5 117.5t150.5 152.5h37q48 -80 149.5 -152.5z" />
    <glyph glyph-name="Wdieresis" unicode="&#x1e84;" horiz-adv-x="1853" 
d="M1704 1444q92 0 154 6v-41q-114 -25 -162 -178l-387 -1241h-17h-16l-356 1055l-326 -1055h-16h-17l-434 1288q-44 126 -141 131v41q82 -6 219 -6q147 0 221 6v-41q-54 -4 -77 -20t-23 -51q0 -33 22 -101l300 -913l248 793l-54 161q-42 127 -121 131v41q74 -6 199 -6
q175 0 262 6v-41q-53 -2 -81 -7.5t-43.5 -20.5t-15.5 -45q0 -34 21 -99l294 -911l253 792q33 104 33 165q0 68 -41.5 96t-133.5 30v41q117 -6 236 -6zM790.5 1802.5q27.5 -16.5 44 -44t16.5 -58.5q0 -32 -16.5 -59.5t-44 -43.5t-58.5 -16q-49 0 -84 35t-35 84q0 31 16 58.5
t43.5 44t59.5 16.5q31 0 58.5 -16.5zM1224.5 1802.5q27.5 -16.5 44 -44t16.5 -58.5q0 -32 -16.5 -59.5t-43.5 -43.5t-59 -16q-49 0 -84 35t-35 84q0 31 16 58.5t43.5 44t59.5 16.5q31 0 58.5 -16.5z" />
    <glyph glyph-name="Wgrave" unicode="&#x1e80;" horiz-adv-x="1853" 
d="M1704 1444q92 0 154 6v-41q-114 -25 -162 -178l-387 -1241h-17h-16l-356 1055l-326 -1055h-16h-17l-434 1288q-44 126 -141 131v41q82 -6 219 -6q147 0 221 6v-41q-54 -4 -77 -20t-23 -51q0 -33 22 -101l300 -913l248 793l-54 161q-42 127 -121 131v41q74 -6 199 -6
q175 0 262 6v-41q-53 -2 -81 -7.5t-43.5 -20.5t-15.5 -45q0 -34 21 -99l294 -911l253 792q33 104 33 165q0 68 -41.5 96t-133.5 30v41q117 -6 236 -6zM937.5 1644.5q-59.5 25.5 -148 59.5t-129.5 59q-54 36 -54 81q0 19 11 38q23 34 63 34q31 0 62 -20q41 -26 98.5 -79
t112 -101t133.5 -108l-14 -27q-75 38 -134.5 63.5z" />
    <glyph glyph-name="X" unicode="X" horiz-adv-x="1298" 
d="M1191 83.5q19 -20.5 40 -29.5t52 -11v-43q-140 8 -176 8q-69 0 -289 -8v43q80 0 113 7t33 26q0 15 -15 37l-350 536l-221 -330q-78 -116 -78 -180q0 -52 46.5 -74t135.5 -24v-41q-116 6 -276 6q-113 0 -174 -6v41q61 9 116.5 55t114.5 133l309 461l-401 615
q-26 41 -45 61.5t-40 29.5t-52 11v43q140 -8 176 -8q137 0 289 8v-43q-137 0 -137 -45q0 -16 18 -45l319 -488l201 301q89 133 89 197q0 43 -39.5 61.5t-119.5 20.5v41q117 -6 236 -6q112 0 174 6v-41q-62 -9 -117.5 -55.5t-113.5 -132.5l-287 -428l424 -648
q26 -41 45 -61.5z" />
    <glyph glyph-name="Y" unicode="Y" horiz-adv-x="1210" 
d="M1051 1444q92 0 153 6v-41q-41 -9 -80 -51.5t-84 -130.5l-321 -637v-373q0 -77 12.5 -112t46 -48t107.5 -16v-41q-96 6 -260 6q-176 0 -263 -6v41q74 3 107.5 16t46 48t12.5 112v309l-415 766q-38 69 -65.5 92t-53.5 23v43q80 -6 180 -6q199 0 287 6v-43q-144 0 -144 -79
q0 -30 21 -71l341 -653l261 520q56 113 56 176q0 58 -45 82.5t-136 26.5v41q117 -6 236 -6z" />
    <glyph glyph-name="Yacute" unicode="&#xdd;" horiz-adv-x="1210" 
d="M1051 1444q92 0 153 6v-41q-41 -9 -80 -51.5t-84 -130.5l-321 -637v-373q0 -77 12.5 -112t46 -48t107.5 -16v-41q-96 6 -260 6q-176 0 -263 -6v41q74 3 107.5 16t46 48t12.5 112v309l-415 766q-38 69 -65.5 92t-53.5 23v43q80 -6 180 -6q199 0 287 6v-43q-144 0 -144 -79
q0 -30 21 -71l341 -653l261 520q56 113 56 176q0 58 -45 82.5t-136 26.5v41q117 -6 236 -6zM610.5 1699.5q48.5 41.5 119 106t111.5 90.5q31 20 62 20q40 0 63 -34q11 -19 11 -38q0 -45 -54 -81q-41 -25 -113.5 -53t-141 -56t-157.5 -73l-14 27q65 50 113.5 91.5z" />
    <glyph glyph-name="Ycircumflex" unicode="&#x176;" horiz-adv-x="1210" 
d="M1051 1444q92 0 153 6v-41q-41 -9 -80 -51.5t-84 -130.5l-321 -637v-373q0 -77 12.5 -112t46 -48t107.5 -16v-41q-96 6 -260 6q-176 0 -263 -6v41q74 3 107.5 16t46 48t12.5 112v309l-415 766q-38 69 -65.5 92t-53.5 23v43q80 -6 180 -6q199 0 287 6v-43q-144 0 -144 -79
q0 -30 21 -71l341 -653l261 520q56 113 56 176q0 58 -45 82.5t-136 26.5v41q117 -6 236 -6zM790.5 1723.5q101.5 -72.5 233.5 -117.5l-11 -29q-124 26 -243 65.5t-189 77.5q-58 -38 -154.5 -77.5t-195.5 -65.5l-10 29q131 45 232.5 117.5t150.5 152.5h37
q48 -80 149.5 -152.5z" />
    <glyph glyph-name="Ydieresis" unicode="&#x178;" horiz-adv-x="1210" 
d="M1051 1444q92 0 153 6v-41q-41 -9 -80 -51.5t-84 -130.5l-321 -637v-373q0 -77 12.5 -112t46 -48t107.5 -16v-41q-96 6 -260 6q-176 0 -263 -6v41q74 3 107.5 16t46 48t12.5 112v309l-415 766q-38 69 -65.5 92t-53.5 23v43q80 -6 180 -6q199 0 287 6v-43q-144 0 -144 -79
q0 -30 21 -71l341 -653l261 520q56 113 56 176q0 58 -45 82.5t-136 26.5v41q117 -6 236 -6zM463.5 1802.5q27.5 -16.5 44 -44t16.5 -58.5q0 -32 -16.5 -59.5t-44 -43.5t-58.5 -16q-49 0 -84 35t-35 84q0 31 16 58.5t43.5 44t59.5 16.5q31 0 58.5 -16.5zM897.5 1802.5
q27.5 -16.5 44 -44t16.5 -58.5q0 -32 -16.5 -59.5t-43.5 -43.5t-59 -16q-49 0 -84 35t-35 84q0 31 16 58.5t43.5 44t59.5 16.5q31 0 58.5 -16.5z" />
    <glyph glyph-name="Ygrave" unicode="&#x1ef2;" horiz-adv-x="1210" 
d="M1051 1444q92 0 153 6v-41q-41 -9 -80 -51.5t-84 -130.5l-321 -637v-373q0 -77 12.5 -112t46 -48t107.5 -16v-41q-96 6 -260 6q-176 0 -263 -6v41q74 3 107.5 16t46 48t12.5 112v309l-415 766q-38 69 -65.5 92t-53.5 23v43q80 -6 180 -6q199 0 287 6v-43q-144 0 -144 -79
q0 -30 21 -71l341 -653l261 520q56 113 56 176q0 58 -45 82.5t-136 26.5v41q117 -6 236 -6zM610.5 1644.5q-59.5 25.5 -148 59.5t-129.5 59q-54 36 -54 81q0 19 11 38q23 34 63 34q31 0 62 -20q41 -26 98.5 -79t112 -101t133.5 -108l-14 -27q-75 38 -134.5 63.5z" />
    <glyph glyph-name="Z" unicode="Z" horiz-adv-x="1217" 
d="M278 47h432q128 0 194.5 36t96 115t45.5 232h47q-7 -75 -7 -168q0 -106 15 -262q-152 6 -510 6q-350 0 -506 -6v41l854 1362h-430q-128 0 -194.5 -36t-96 -115t-45.5 -232h-47q6 65 6 168q0 116 -14 262q151 -6 510 -6q348 0 497 6v-41z" />
    <glyph glyph-name="Zacute" unicode="&#x179;" horiz-adv-x="1217" 
d="M278 47h432q128 0 194.5 36t96 115t45.5 232h47q-7 -75 -7 -168q0 -106 15 -262q-152 6 -510 6q-350 0 -506 -6v41l854 1362h-430q-128 0 -194.5 -36t-96 -115t-45.5 -232h-47q6 65 6 168q0 116 -14 262q151 -6 510 -6q348 0 497 6v-41zM591.5 1699.5q48.5 41.5 119 106
t111.5 90.5q31 20 62 20q40 0 63 -34q11 -19 11 -38q0 -45 -54 -81q-41 -25 -113.5 -53t-141 -56t-157.5 -73l-14 27q65 50 113.5 91.5z" />
    <glyph glyph-name="Zcaron" unicode="&#x17d;" horiz-adv-x="1217" 
d="M278 47h432q128 0 194.5 36t96 115t45.5 232h47q-7 -75 -7 -168q0 -106 15 -262q-152 6 -510 6q-350 0 -506 -6v41l854 1362h-430q-128 0 -194.5 -36t-96 -115t-45.5 -232h-47q6 65 6 168q0 116 -14 262q151 -6 510 -6q348 0 497 6v-41zM765.5 1749.5
q-101.5 -72.5 -149.5 -152.5h-37q-49 80 -150.5 152.5t-232.5 118.5l10 28q122 -25 241.5 -65t190.5 -78q59 38 155.5 78t194.5 65l11 -28q-132 -46 -233.5 -118.5z" />
    <glyph glyph-name="Zdotaccent" unicode="&#x17b;" horiz-adv-x="1217" 
d="M278 47h432q128 0 194.5 36t96 115t45.5 232h47q-7 -75 -7 -168q0 -106 15 -262q-152 6 -510 6q-350 0 -506 -6v41l854 1362h-430q-128 0 -194.5 -36t-96 -115t-45.5 -232h-47q6 65 6 168q0 116 -14 262q151 -6 510 -6q348 0 497 6v-41zM668 1946q30 -18 48 -48t18 -65
t-18 -65.5t-48 -48t-65 -17.5t-65.5 17.5t-48 48t-17.5 65.5t17.5 65t48 48t65.5 18t65 -18z" />
    <glyph glyph-name="a" unicode="a" horiz-adv-x="1020" 
d="M604.5 998.5q-49.5 43.5 -140.5 43.5q-145 0 -203 -73q41 -10 68.5 -43.5t27.5 -81.5q0 -52 -32.5 -81.5t-87.5 -29.5q-52 0 -81.5 35t-29.5 92q0 80 96 146q50 33 123.5 55t163.5 22q84 0 148 -20.5t100 -56.5q47 -48 64.5 -111.5t17.5 -175.5v-569q0 -51 14.5 -74
t48.5 -23q25 0 46 11t46 32l23 -35q-36 -27 -60 -42t-55 -24t-72 -9q-99 0 -137.5 49.5t-38.5 132.5q-60 -99 -144 -140.5t-171 -41.5q-71 0 -130 24.5t-94.5 76t-35.5 128.5q0 78 38 133t107 96.5t185 90.5q20 8 98 40t112.5 64t34.5 70v127q0 119 -49.5 162.5zM604 582
q-35 -20 -146 -74q-59 -28 -100 -57.5t-70 -79.5t-29 -123q0 -89 45 -134.5t119 -45.5q136 0 231 155v402q-15 -23 -50 -43z" />
    <glyph glyph-name="aacute" unicode="&#xe1;" horiz-adv-x="1020" 
d="M604.5 998.5q-49.5 43.5 -140.5 43.5q-145 0 -203 -73q41 -10 68.5 -43.5t27.5 -81.5q0 -52 -32.5 -81.5t-87.5 -29.5q-52 0 -81.5 35t-29.5 92q0 80 96 146q50 33 123.5 55t163.5 22q84 0 148 -20.5t100 -56.5q47 -48 64.5 -111.5t17.5 -175.5v-569q0 -51 14.5 -74
t48.5 -23q25 0 46 11t46 32l23 -35q-36 -27 -60 -42t-55 -24t-72 -9q-99 0 -137.5 49.5t-38.5 132.5q-60 -99 -144 -140.5t-171 -41.5q-71 0 -130 24.5t-94.5 76t-35.5 128.5q0 78 38 133t107 96.5t185 90.5q20 8 98 40t112.5 64t34.5 70v127q0 119 -49.5 162.5zM604 582
q-35 -20 -146 -74q-59 -28 -100 -57.5t-70 -79.5t-29 -123q0 -89 45 -134.5t119 -45.5q136 0 231 155v402q-15 -23 -50 -43zM451 1370q31 56 75 141t73 123q35 46 78 46q25 0 45 -15q28 -23 28 -57q0 -33 -28 -70q-30 -38 -89 -89.5t-113 -100.5t-122 -121l-22 18
q44 69 75 125z" />
    <glyph glyph-name="abreve" unicode="&#x103;" horiz-adv-x="1020" 
d="M604.5 998.5q-49.5 43.5 -140.5 43.5q-145 0 -203 -73q41 -10 68.5 -43.5t27.5 -81.5q0 -52 -32.5 -81.5t-87.5 -29.5q-52 0 -81.5 35t-29.5 92q0 80 96 146q50 33 123.5 55t163.5 22q84 0 148 -20.5t100 -56.5q47 -48 64.5 -111.5t17.5 -175.5v-569q0 -51 14.5 -74
t48.5 -23q25 0 46 11t46 32l23 -35q-36 -27 -60 -42t-55 -24t-72 -9q-99 0 -137.5 49.5t-38.5 132.5q-60 -99 -144 -140.5t-171 -41.5q-71 0 -130 24.5t-94.5 76t-35.5 128.5q0 78 38 133t107 96.5t185 90.5q20 8 98 40t112.5 64t34.5 70v127q0 119 -49.5 162.5zM604 582
q-35 -20 -146 -74q-59 -28 -100 -57.5t-70 -79.5t-29 -123q0 -89 45 -134.5t119 -45.5q136 0 231 155v402q-15 -23 -50 -43zM723.5 1384.5q-93.5 -88.5 -222.5 -88.5q-128 0 -221.5 88.5t-144.5 210.5l34 19q120 -197 332 -197q120 0 201 56.5t131 140.5l35 -19
q-51 -122 -144.5 -210.5z" />
    <glyph glyph-name="acircumflex" unicode="&#xe2;" horiz-adv-x="1020" 
d="M604.5 998.5q-49.5 43.5 -140.5 43.5q-145 0 -203 -73q41 -10 68.5 -43.5t27.5 -81.5q0 -52 -32.5 -81.5t-87.5 -29.5q-52 0 -81.5 35t-29.5 92q0 80 96 146q50 33 123.5 55t163.5 22q84 0 148 -20.5t100 -56.5q47 -48 64.5 -111.5t17.5 -175.5v-569q0 -51 14.5 -74
t48.5 -23q25 0 46 11t46 32l23 -35q-36 -27 -60 -42t-55 -24t-72 -9q-99 0 -137.5 49.5t-38.5 132.5q-60 -99 -144 -140.5t-171 -41.5q-71 0 -130 24.5t-94.5 76t-35.5 128.5q0 78 38 133t107 96.5t185 90.5q20 8 98 40t112.5 64t34.5 70v127q0 119 -49.5 162.5zM604 582
q-35 -20 -146 -74q-59 -28 -100 -57.5t-70 -79.5t-29 -123q0 -89 45 -134.5t119 -45.5q136 0 231 155v402q-15 -23 -50 -43zM654.5 1443q91.5 -95 208.5 -153l-16 -28q-111 38 -216 93.5t-169 110.5q-52 -55 -134.5 -110.5t-168.5 -93.5l-17 28q117 58 208.5 153t133.5 199
h37q42 -104 133.5 -199z" />
    <glyph glyph-name="adieresis" unicode="&#xe4;" horiz-adv-x="1020" 
d="M604.5 998.5q-49.5 43.5 -140.5 43.5q-145 0 -203 -73q41 -10 68.5 -43.5t27.5 -81.5q0 -52 -32.5 -81.5t-87.5 -29.5q-52 0 -81.5 35t-29.5 92q0 80 96 146q50 33 123.5 55t163.5 22q84 0 148 -20.5t100 -56.5q47 -48 64.5 -111.5t17.5 -175.5v-569q0 -51 14.5 -74
t48.5 -23q25 0 46 11t46 32l23 -35q-36 -27 -60 -42t-55 -24t-72 -9q-99 0 -137.5 49.5t-38.5 132.5q-60 -99 -144 -140.5t-171 -41.5q-71 0 -130 24.5t-94.5 76t-35.5 128.5q0 78 38 133t107 96.5t185 90.5q20 8 98 40t112.5 64t34.5 70v127q0 119 -49.5 162.5zM604 582
q-35 -20 -146 -74q-59 -28 -100 -57.5t-70 -79.5t-29 -123q0 -89 45 -134.5t119 -45.5q136 0 231 155v402q-15 -23 -50 -43zM346.5 1505.5q27.5 -16.5 44 -44t16.5 -58.5q0 -32 -16.5 -59.5t-43.5 -43.5t-59 -16q-49 0 -84 35t-35 84q0 31 16 58.5t43.5 44t59.5 16.5
q31 0 58.5 -16.5zM780.5 1505.5q27.5 -16.5 44 -44t16.5 -58.5q0 -32 -16.5 -59.5t-43.5 -43.5t-59 -16q-49 0 -83.5 35t-34.5 84q0 31 16 58.5t43 44t59 16.5q31 0 58.5 -16.5z" />
    <glyph glyph-name="agrave" unicode="&#xe0;" horiz-adv-x="1020" 
d="M604.5 998.5q-49.5 43.5 -140.5 43.5q-145 0 -203 -73q41 -10 68.5 -43.5t27.5 -81.5q0 -52 -32.5 -81.5t-87.5 -29.5q-52 0 -81.5 35t-29.5 92q0 80 96 146q50 33 123.5 55t163.5 22q84 0 148 -20.5t100 -56.5q47 -48 64.5 -111.5t17.5 -175.5v-569q0 -51 14.5 -74
t48.5 -23q25 0 46 11t46 32l23 -35q-36 -27 -60 -42t-55 -24t-72 -9q-99 0 -137.5 49.5t-38.5 132.5q-60 -99 -144 -140.5t-171 -41.5q-71 0 -130 24.5t-94.5 76t-35.5 128.5q0 78 38 133t107 96.5t185 90.5q20 8 98 40t112.5 64t34.5 70v127q0 119 -49.5 162.5zM604 582
q-35 -20 -146 -74q-59 -28 -100 -57.5t-70 -79.5t-29 -123q0 -89 45 -134.5t119 -45.5q136 0 231 155v402q-15 -23 -50 -43zM471.5 1329.5q-46.5 43.5 -118.5 107t-102 101.5q-28 37 -28 70q0 34 28 57q19 15 44 15q44 0 79 -46q29 -38 65 -107.5t70.5 -134t87.5 -147.5
l-23 -18q-56 59 -102.5 102.5z" />
    <glyph glyph-name="amacron" unicode="&#x101;" horiz-adv-x="1020" 
d="M604.5 998.5q-49.5 43.5 -140.5 43.5q-145 0 -203 -73q41 -10 68.5 -43.5t27.5 -81.5q0 -52 -32.5 -81.5t-87.5 -29.5q-52 0 -81.5 35t-29.5 92q0 80 96 146q50 33 123.5 55t163.5 22q84 0 148 -20.5t100 -56.5q47 -48 64.5 -111.5t17.5 -175.5v-569q0 -51 14.5 -74
t48.5 -23q25 0 46 11t46 32l23 -35q-36 -27 -60 -42t-55 -24t-72 -9q-99 0 -137.5 49.5t-38.5 132.5q-60 -99 -144 -140.5t-171 -41.5q-71 0 -130 24.5t-94.5 76t-35.5 128.5q0 78 38 133t107 96.5t185 90.5q20 8 98 40t112.5 64t34.5 70v127q0 119 -49.5 162.5zM604 582
q-35 -20 -146 -74q-59 -28 -100 -57.5t-70 -79.5t-29 -123q0 -89 45 -134.5t119 -45.5q136 0 231 155v402q-15 -23 -50 -43zM177 1407v51h639v-51h-639z" />
    <glyph glyph-name="aogonek" unicode="&#x105;" horiz-adv-x="1020" 
d="M604.5 998.5q-49.5 43.5 -140.5 43.5q-145 0 -203 -73q41 -10 68.5 -43.5t27.5 -81.5q0 -52 -32.5 -81.5t-87.5 -29.5q-52 0 -81.5 35t-29.5 92q0 80 96 146q50 33 123.5 55t163.5 22q84 0 148 -20.5t100 -56.5q47 -48 64.5 -111.5t17.5 -175.5v-569q0 -51 14.5 -74
t48.5 -23q25 0 46 11t46 32l23 -35q-36 -27 -60 -42t-55 -24t-72 -9q-99 0 -137.5 49.5t-38.5 132.5q-60 -99 -144 -140.5t-171 -41.5q-71 0 -130 24.5t-94.5 76t-35.5 128.5q0 78 38 133t107 96.5t185 90.5q20 8 98 40t112.5 64t34.5 70v127q0 119 -49.5 162.5zM604 582
q-35 -20 -146 -74q-59 -28 -100 -57.5t-70 -79.5t-29 -123q0 -89 45 -134.5t119 -45.5q136 0 231 155v402q-15 -23 -50 -43zM909 -4q-178 -76 -178 -193q0 -41 23.5 -65.5t64.5 -24.5q37 0 70.5 19.5t54.5 48.5l30 -27q-91 -139 -231 -139q-73 0 -117.5 36.5t-44.5 96.5
q0 80 73.5 147t209.5 111h65q-5 -5 -20 -10z" />
    <glyph glyph-name="aring" unicode="&#xe5;" horiz-adv-x="1020" 
d="M604.5 998.5q-49.5 43.5 -140.5 43.5q-145 0 -203 -73q41 -10 68.5 -43.5t27.5 -81.5q0 -52 -32.5 -81.5t-87.5 -29.5q-52 0 -81.5 35t-29.5 92q0 80 96 146q50 33 123.5 55t163.5 22q84 0 148 -20.5t100 -56.5q47 -48 64.5 -111.5t17.5 -175.5v-569q0 -51 14.5 -74
t48.5 -23q25 0 46 11t46 32l23 -35q-36 -27 -60 -42t-55 -24t-72 -9q-99 0 -137.5 49.5t-38.5 132.5q-60 -99 -144 -140.5t-171 -41.5q-71 0 -130 24.5t-94.5 76t-35.5 128.5q0 78 38 133t107 96.5t185 90.5q20 8 98 40t112.5 64t34.5 70v127q0 119 -49.5 162.5zM604 582
q-35 -20 -146 -74q-59 -28 -100 -57.5t-70 -79.5t-29 -123q0 -89 45 -134.5t119 -45.5q136 0 231 155v402q-15 -23 -50 -43zM602.5 1597q45.5 -23 72.5 -65.5t27 -97.5q0 -57 -27 -100t-72.5 -66t-99.5 -23q-53 0 -97.5 23t-71.5 66t-27 100q0 55 27 97.5t72 65.5t97 23
q54 0 99.5 -23zM437 1560q-32 -17 -52.5 -50t-20.5 -78q0 -46 20.5 -78.5t52.5 -49t66 -16.5q36 0 68.5 16.5t53 49t20.5 78.5q0 45 -20.5 78t-53.5 50t-68 17q-34 0 -66 -17z" />
    <glyph glyph-name="atilde" unicode="&#xe3;" horiz-adv-x="1020" 
d="M604.5 998.5q-49.5 43.5 -140.5 43.5q-145 0 -203 -73q41 -10 68.5 -43.5t27.5 -81.5q0 -52 -32.5 -81.5t-87.5 -29.5q-52 0 -81.5 35t-29.5 92q0 80 96 146q50 33 123.5 55t163.5 22q84 0 148 -20.5t100 -56.5q47 -48 64.5 -111.5t17.5 -175.5v-569q0 -51 14.5 -74
t48.5 -23q25 0 46 11t46 32l23 -35q-36 -27 -60 -42t-55 -24t-72 -9q-99 0 -137.5 49.5t-38.5 132.5q-60 -99 -144 -140.5t-171 -41.5q-71 0 -130 24.5t-94.5 76t-35.5 128.5q0 78 38 133t107 96.5t185 90.5q20 8 98 40t112.5 64t34.5 70v127q0 119 -49.5 162.5zM604 582
q-35 -20 -146 -74q-59 -28 -100 -57.5t-70 -79.5t-29 -123q0 -89 45 -134.5t119 -45.5q136 0 231 155v402q-15 -23 -50 -43zM203.5 1521.5q64.5 51.5 148.5 51.5q51 0 88 -18.5t101 -67.5t120 -49q93 0 158 108l29 -14q-31 -108 -95.5 -159.5t-146.5 -51.5q-53 0 -90.5 19
t-101.5 68.5t-119 49.5q-91 0 -158 -110l-29 14q31 108 95.5 159.5z" />
    <glyph glyph-name="ae" unicode="&#xe6;" horiz-adv-x="1520" 
d="M828 502q0 -135 40.5 -236t107 -155t141.5 -54q85 0 150 47.5t110 157.5l41 -16q-22 -72 -68.5 -134.5t-116.5 -101.5t-157 -39q-140 0 -236.5 67.5t-143.5 194.5q-115 -262 -351 -262q-69 0 -128.5 23.5t-96.5 74t-37 128.5q0 83 38 142.5t105.5 102.5t175.5 90
q21 9 100.5 43.5t112.5 65.5t33 68v127q0 206 -200 206q-57 0 -111 -16.5t-86 -56.5q40 -9 63 -36t23 -69q0 -50 -32.5 -80t-80.5 -30q-47 0 -77.5 30.5t-30.5 77.5q0 82 96 148q107 73 281 73q102 0 173.5 -29.5t112.5 -100.5q107 130 289 130q174 0 268.5 -111.5
t94.5 -338.5h-596q-7 -51 -7 -131zM1218.5 859.5q-18.5 84.5 -59 134.5t-99.5 50q-58 0 -106 -40t-80.5 -123.5t-42.5 -208.5h403q3 103 -15.5 187.5zM482 520q-107 -52 -163 -118.5t-56 -170.5q0 -94 46 -136t114 -42q142 0 225 170v402q-36 -42 -166 -105z" />
    <glyph glyph-name="b" unicode="b" horiz-adv-x="1153" 
d="M478 1025.5q84 57.5 190 57.5q114 0 201.5 -62.5t137.5 -188t50 -306.5q0 -177 -61.5 -302.5t-165.5 -189t-230 -63.5q-75 0 -146 30.5t-124 89.5l-146 -124l-34 15q14 50 14 118v1258q0 95 -34.5 137.5t-121.5 42.5v43q65 -6 127 -6q132 0 213 29v-740q46 104 130 161.5
zM457.5 44q61.5 -26 126.5 -26q138 0 206 124.5t68 383.5q0 250 -61.5 373t-188.5 123q-55 0 -107 -29.5t-92.5 -87t-60.5 -138.5v-647q48 -50 109.5 -76z" />
    <glyph glyph-name="c" unicode="c" horiz-adv-x="995" 
d="M852 118.5q-48 -64.5 -125.5 -106t-180.5 -41.5q-128 0 -231 66t-162.5 189t-59.5 288q0 166 60.5 295.5t169.5 201.5t247 72t238 -65q96 -65 96 -158q0 -54 -30.5 -84.5t-77.5 -30.5q-48 0 -80.5 27.5t-32.5 75.5q0 44 24.5 73.5t61.5 39.5q-20 37 -73 61.5t-111 24.5
q-75 0 -141 -48t-109 -160t-43 -294q0 -255 82 -370.5t213 -115.5q87 0 166.5 51t130.5 160l39 -14q-23 -73 -71 -137.5z" />
    <glyph glyph-name="cacute" unicode="&#x107;" horiz-adv-x="995" 
d="M852 118.5q-48 -64.5 -125.5 -106t-180.5 -41.5q-128 0 -231 66t-162.5 189t-59.5 288q0 166 60.5 295.5t169.5 201.5t247 72t238 -65q96 -65 96 -158q0 -54 -30.5 -84.5t-77.5 -30.5q-48 0 -80.5 27.5t-32.5 75.5q0 44 24.5 73.5t61.5 39.5q-20 37 -73 61.5t-111 24.5
q-75 0 -141 -48t-109 -160t-43 -294q0 -255 82 -370.5t213 -115.5q87 0 166.5 51t130.5 160l39 -14q-23 -73 -71 -137.5zM486 1370q31 56 75 141t73 123q35 46 78 46q25 0 45 -15q28 -23 28 -57q0 -33 -28 -70q-30 -38 -89 -89.5t-113 -100.5t-122 -121l-22 18q44 69 75 125
z" />
    <glyph glyph-name="ccaron" unicode="&#x10d;" horiz-adv-x="995" 
d="M852 118.5q-48 -64.5 -125.5 -106t-180.5 -41.5q-128 0 -231 66t-162.5 189t-59.5 288q0 166 60.5 295.5t169.5 201.5t247 72t238 -65q96 -65 96 -158q0 -54 -30.5 -84.5t-77.5 -30.5q-48 0 -80.5 27.5t-32.5 75.5q0 44 24.5 73.5t61.5 39.5q-20 37 -73 61.5t-111 24.5
q-75 0 -141 -48t-109 -160t-43 -294q0 -255 82 -370.5t213 -115.5q87 0 166.5 51t130.5 160l39 -14q-23 -73 -71 -137.5zM669.5 1461q-91.5 -95 -133.5 -199h-37q-42 104 -133.5 199t-208.5 153l17 28q111 -38 216 -94t169 -110q52 55 134.5 110.5t168.5 93.5l16 -28
q-117 -58 -208.5 -153z" />
    <glyph glyph-name="ccedilla" unicode="&#xe7;" horiz-adv-x="995" 
d="M852 118.5q-48 -64.5 -125.5 -106t-180.5 -41.5q-128 0 -231 66t-162.5 189t-59.5 288q0 166 60.5 295.5t169.5 201.5t247 72t238 -65q96 -65 96 -158q0 -54 -30.5 -84.5t-77.5 -30.5q-48 0 -80.5 27.5t-32.5 75.5q0 44 24.5 73.5t61.5 39.5q-20 37 -73 61.5t-111 24.5
q-75 0 -141 -48t-109 -160t-43 -294q0 -255 82 -370.5t213 -115.5q87 0 166.5 51t130.5 160l39 -14q-23 -73 -71 -137.5zM609 -133q58 0 91.5 -25.5t33.5 -70.5q0 -54 -35.5 -89t-88.5 -51t-108 -16q-105 0 -170 23l9 36q42 -6 77 -6q74 0 129.5 21.5t55.5 70.5q0 58 -86 58
q-59 0 -101 -15l70 209h55l-53 -159q61 14 121 14z" />
    <glyph glyph-name="ccircumflex" unicode="&#x109;" horiz-adv-x="995" 
d="M852 118.5q-48 -64.5 -125.5 -106t-180.5 -41.5q-128 0 -231 66t-162.5 189t-59.5 288q0 166 60.5 295.5t169.5 201.5t247 72t238 -65q96 -65 96 -158q0 -54 -30.5 -84.5t-77.5 -30.5q-48 0 -80.5 27.5t-32.5 75.5q0 44 24.5 73.5t61.5 39.5q-20 37 -73 61.5t-111 24.5
q-75 0 -141 -48t-109 -160t-43 -294q0 -255 82 -370.5t213 -115.5q87 0 166.5 51t130.5 160l39 -14q-23 -73 -71 -137.5zM689.5 1443q91.5 -95 208.5 -153l-16 -28q-111 38 -216 93.5t-169 110.5q-52 -55 -134.5 -110.5t-168.5 -93.5l-17 28q117 58 208.5 153t133.5 199h37
q42 -104 133.5 -199z" />
    <glyph glyph-name="cdotaccent" unicode="&#x10b;" horiz-adv-x="995" 
d="M852 118.5q-48 -64.5 -125.5 -106t-180.5 -41.5q-128 0 -231 66t-162.5 189t-59.5 288q0 166 60.5 295.5t169.5 201.5t247 72t238 -65q96 -65 96 -158q0 -54 -30.5 -84.5t-77.5 -30.5q-48 0 -80.5 27.5t-32.5 75.5q0 44 24.5 73.5t61.5 39.5q-20 37 -73 61.5t-111 24.5
q-75 0 -141 -48t-109 -160t-43 -294q0 -255 82 -370.5t213 -115.5q87 0 166.5 51t130.5 160l39 -14q-23 -73 -71 -137.5zM632 1549q30 -18 48 -48t18 -65t-18 -65.5t-48 -48t-65 -17.5t-65.5 17.5t-48 48t-17.5 65.5t17.5 65t48 48t65.5 18t65 -18z" />
    <glyph glyph-name="d" unicode="d" horiz-adv-x="1190" 
d="M1025.5 85.5q34.5 -42.5 121.5 -42.5v-43q-65 6 -127 6q-132 0 -213 -29v182q-38 -92 -111.5 -140t-179.5 -48q-130 0 -224 62t-144.5 186t-49.5 307q-1 179 62 305t168.5 189t232.5 63q78 0 143.5 -29.5t102.5 -91.5v398q0 95 -34.5 137.5t-121.5 42.5v43q65 -6 127 -6
q132 0 213 29v-1383q0 -95 34.5 -137.5zM578 1036q-83 0 -146.5 -56.5t-99.5 -171t-35 -282.5q-1 -246 69.5 -369.5t208.5 -123.5q53 0 100 27t82 80.5t50 128.5v609q-57 158 -229 158z" />
    <glyph glyph-name="eth" unicode="&#xf0;" horiz-adv-x="1135" 
d="M1019 618q0 -211 -65 -357t-171 -218t-231 -72q-136 0 -239.5 62.5t-161.5 186t-58 302.5q0 141 52 270t153 210t242 81q166 0 245 -106q-59 243 -218 396l-369 -181l-19 37l356 173q-100 86 -270 165l17 35q183 -72 319 -168l289 141l18 -37l-270 -131
q381 -289 381 -789zM744.5 152q79.5 140 79.5 466q0 68 -4 131q-20 168 -93 229.5t-173 61.5q-119 0 -190.5 -124t-71.5 -398q0 -176 33.5 -289t90 -165t126.5 -52q123 0 202.5 140z" />
    <glyph glyph-name="dcaron" unicode="&#x10f;" horiz-adv-x="1190" 
d="M1025.5 85.5q34.5 -42.5 121.5 -42.5v-43q-65 6 -127 6q-132 0 -213 -29v182q-38 -92 -111.5 -140t-179.5 -48q-130 0 -224 62t-144.5 186t-49.5 307q-1 179 62 305t168.5 189t232.5 63q78 0 143.5 -29.5t102.5 -91.5v398q0 95 -34.5 137.5t-121.5 42.5v43q65 -6 127 -6
q132 0 213 29v-1383q0 -95 34.5 -137.5zM578 1036q-83 0 -146.5 -56.5t-99.5 -171t-35 -282.5q-1 -246 69.5 -369.5t208.5 -123.5q53 0 100 27t82 80.5t50 128.5v609q-57 158 -229 158zM1144 1582q61 0 122 24q4 -11 7.5 -38t3.5 -46q0 -54 -30.5 -131.5t-107.5 -237.5
l-28 8q41 237 41 297q0 43 -8.5 62.5t-32.5 19.5v43q12 -1 33 -1z" />
    <glyph glyph-name="dcroat" unicode="&#x111;" horiz-adv-x="1190" 
d="M991 223q0 -95 34.5 -137.5t121.5 -42.5v-43q-64 6 -127 6q-132 0 -213 -29v182q-38 -92 -111.5 -140t-179.5 -48q-130 0 -224 62t-144.5 186t-49.5 307q-1 179 62 305t168.5 189t232.5 63q78 0 143 -29.5t103 -91.5v283h-365v41h365v74q0 95 -34.5 137.5t-121.5 42.5v43
q65 -6 127 -6q132 0 213 29v-320h176v-41h-176v-1022zM578 1036q-83 0 -146.5 -56.5t-99.5 -171t-35 -282.5q-1 -246 69.5 -369.5t208.5 -123.5q52 0 99.5 27t82 80.5t50.5 128.5v609q-57 158 -229 158z" />
    <glyph glyph-name="e" unicode="e" horiz-adv-x="1036" 
d="M870.5 111.5q-52.5 -62.5 -131 -101.5t-175.5 -39q-146 0 -252.5 66.5t-162.5 187t-56 277.5q0 178 57 309t161.5 201.5t244.5 70.5q184 0 283.5 -111.5t99.5 -338.5h-640q-7 -53 -7 -131q0 -135 44.5 -236t116.5 -155t152 -54q206 0 301 205l41 -16
q-24 -72 -76.5 -134.5zM725 859q-21 85 -66 135t-111 50q-63 0 -116 -40.5t-89.5 -124t-46.5 -207.5h446q4 102 -17 187z" />
    <glyph glyph-name="eacute" unicode="&#xe9;" horiz-adv-x="1036" 
d="M870.5 111.5q-52.5 -62.5 -131 -101.5t-175.5 -39q-146 0 -252.5 66.5t-162.5 187t-56 277.5q0 178 57 309t161.5 201.5t244.5 70.5q184 0 283.5 -111.5t99.5 -338.5h-640q-7 -53 -7 -131q0 -135 44.5 -236t116.5 -155t152 -54q206 0 301 205l41 -16
q-24 -72 -76.5 -134.5zM725 859q-21 85 -66 135t-111 50q-63 0 -116 -40.5t-89.5 -124t-46.5 -207.5h446q4 102 -17 187zM502 1370q31 56 75 141t73 123q35 46 78 46q25 0 45 -15q28 -23 28 -57q0 -33 -28 -70q-30 -38 -89 -89.5t-113 -100.5t-122 -121l-22 18q44 69 75 125
z" />
    <glyph glyph-name="ebreve" unicode="&#x115;" horiz-adv-x="1036" 
d="M870.5 111.5q-52.5 -62.5 -131 -101.5t-175.5 -39q-146 0 -252.5 66.5t-162.5 187t-56 277.5q0 178 57 309t161.5 201.5t244.5 70.5q184 0 283.5 -111.5t99.5 -338.5h-640q-7 -53 -7 -131q0 -135 44.5 -236t116.5 -155t152 -54q206 0 301 205l41 -16
q-24 -72 -76.5 -134.5zM725 859q-21 85 -66 135t-111 50q-63 0 -116 -40.5t-89.5 -124t-46.5 -207.5h446q4 102 -17 187zM774.5 1384.5q-93.5 -88.5 -222.5 -88.5q-128 0 -221.5 88.5t-144.5 210.5l34 19q120 -197 332 -197q120 0 201 56.5t131 140.5l35 -19
q-51 -122 -144.5 -210.5z" />
    <glyph glyph-name="ecaron" unicode="&#x11b;" horiz-adv-x="1036" 
d="M870.5 111.5q-52.5 -62.5 -131 -101.5t-175.5 -39q-146 0 -252.5 66.5t-162.5 187t-56 277.5q0 178 57 309t161.5 201.5t244.5 70.5q184 0 283.5 -111.5t99.5 -338.5h-640q-7 -53 -7 -131q0 -135 44.5 -236t116.5 -155t152 -54q206 0 301 205l41 -16
q-24 -72 -76.5 -134.5zM725 859q-21 85 -66 135t-111 50q-63 0 -116 -40.5t-89.5 -124t-46.5 -207.5h446q4 102 -17 187zM685.5 1461q-91.5 -95 -133.5 -199h-37q-42 104 -133.5 199t-208.5 153l17 28q111 -38 216 -94t169 -110q52 55 134.5 110.5t168.5 93.5l16 -28
q-117 -58 -208.5 -153z" />
    <glyph glyph-name="ecircumflex" unicode="&#xea;" horiz-adv-x="1036" 
d="M870.5 111.5q-52.5 -62.5 -131 -101.5t-175.5 -39q-146 0 -252.5 66.5t-162.5 187t-56 277.5q0 178 57 309t161.5 201.5t244.5 70.5q184 0 283.5 -111.5t99.5 -338.5h-640q-7 -53 -7 -131q0 -135 44.5 -236t116.5 -155t152 -54q206 0 301 205l41 -16
q-24 -72 -76.5 -134.5zM725 859q-21 85 -66 135t-111 50q-63 0 -116 -40.5t-89.5 -124t-46.5 -207.5h446q4 102 -17 187zM705.5 1443q91.5 -95 208.5 -153l-16 -28q-111 38 -216 93.5t-169 110.5q-52 -55 -134.5 -110.5t-168.5 -93.5l-17 28q117 58 208.5 153t133.5 199h37
q42 -104 133.5 -199z" />
    <glyph glyph-name="edieresis" unicode="&#xeb;" horiz-adv-x="1036" 
d="M870.5 111.5q-52.5 -62.5 -131 -101.5t-175.5 -39q-146 0 -252.5 66.5t-162.5 187t-56 277.5q0 178 57 309t161.5 201.5t244.5 70.5q184 0 283.5 -111.5t99.5 -338.5h-640q-7 -53 -7 -131q0 -135 44.5 -236t116.5 -155t152 -54q206 0 301 205l41 -16
q-24 -72 -76.5 -134.5zM725 859q-21 85 -66 135t-111 50q-63 0 -116 -40.5t-89.5 -124t-46.5 -207.5h446q4 102 -17 187zM397.5 1505.5q27.5 -16.5 44 -44t16.5 -58.5q0 -32 -16.5 -59.5t-43.5 -43.5t-59 -16q-49 0 -84 35t-35 84q0 31 16 58.5t43.5 44t59.5 16.5
q31 0 58.5 -16.5zM831.5 1505.5q27.5 -16.5 44 -44t16.5 -58.5q0 -32 -16.5 -59.5t-43.5 -43.5t-59 -16q-49 0 -83.5 35t-34.5 84q0 31 16 58.5t43 44t59 16.5q31 0 58.5 -16.5z" />
    <glyph glyph-name="edotaccent" unicode="&#x117;" horiz-adv-x="1036" 
d="M870.5 111.5q-52.5 -62.5 -131 -101.5t-175.5 -39q-146 0 -252.5 66.5t-162.5 187t-56 277.5q0 178 57 309t161.5 201.5t244.5 70.5q184 0 283.5 -111.5t99.5 -338.5h-640q-7 -53 -7 -131q0 -135 44.5 -236t116.5 -155t152 -54q206 0 301 205l41 -16
q-24 -72 -76.5 -134.5zM725 859q-21 85 -66 135t-111 50q-63 0 -116 -40.5t-89.5 -124t-46.5 -207.5h446q4 102 -17 187zM619 1549q30 -18 48 -48t18 -65t-18 -65.5t-48 -48t-65 -17.5t-65.5 17.5t-48 48t-17.5 65.5t17.5 65t48 48t65.5 18t65 -18z" />
    <glyph glyph-name="egrave" unicode="&#xe8;" horiz-adv-x="1036" 
d="M870.5 111.5q-52.5 -62.5 -131 -101.5t-175.5 -39q-146 0 -252.5 66.5t-162.5 187t-56 277.5q0 178 57 309t161.5 201.5t244.5 70.5q184 0 283.5 -111.5t99.5 -338.5h-640q-7 -53 -7 -131q0 -135 44.5 -236t116.5 -155t152 -54q206 0 301 205l41 -16
q-24 -72 -76.5 -134.5zM725 859q-21 85 -66 135t-111 50q-63 0 -116 -40.5t-89.5 -124t-46.5 -207.5h446q4 102 -17 187zM522.5 1329.5q-46.5 43.5 -118.5 107t-102 101.5q-28 37 -28 70q0 34 28 57q19 15 44 15q44 0 79 -46q29 -38 65 -107.5t70.5 -134t87.5 -147.5
l-23 -18q-56 59 -102.5 102.5z" />
    <glyph glyph-name="emacron" unicode="&#x113;" horiz-adv-x="1036" 
d="M870.5 111.5q-52.5 -62.5 -131 -101.5t-175.5 -39q-146 0 -252.5 66.5t-162.5 187t-56 277.5q0 178 57 309t161.5 201.5t244.5 70.5q184 0 283.5 -111.5t99.5 -338.5h-640q-7 -53 -7 -131q0 -135 44.5 -236t116.5 -155t152 -54q206 0 301 205l41 -16
q-24 -72 -76.5 -134.5zM725 859q-21 85 -66 135t-111 50q-63 0 -116 -40.5t-89.5 -124t-46.5 -207.5h446q4 102 -17 187zM228 1407v51h639v-51h-639z" />
    <glyph glyph-name="eogonek" unicode="&#x119;" horiz-adv-x="1036" 
d="M870.5 111.5q-52.5 -62.5 -131 -101.5t-175.5 -39q-146 0 -252.5 66.5t-162.5 187t-56 277.5q0 178 57 309t161.5 201.5t244.5 70.5q184 0 283.5 -111.5t99.5 -338.5h-640q-7 -53 -7 -131q0 -135 44.5 -236t116.5 -155t152 -54q206 0 301 205l41 -16
q-24 -72 -76.5 -134.5zM725 859q-21 85 -66 135t-111 50q-63 0 -116 -40.5t-89.5 -124t-46.5 -207.5h446q4 102 -17 187zM706 -4q-178 -76 -178 -193q0 -41 23.5 -65.5t64.5 -24.5q37 0 70.5 19.5t54.5 48.5l30 -27q-91 -139 -231 -139q-73 0 -117.5 36.5t-44.5 96.5
q0 80 73.5 147t209.5 111h65q-5 -5 -20 -10z" />
    <glyph glyph-name="f" unicode="f" horiz-adv-x="680" 
d="M226 1256.5q10 81.5 32.5 138.5t62.5 104q40 48 104 75.5t139 27.5q105 0 178 -56q64 -52 64 -127q0 -47 -30.5 -77.5t-78.5 -30.5q-47 0 -79.5 30t-32.5 80q0 42 23.5 69.5t62.5 35.5q-6 19 -33 32t-68 13q-91 0 -133 -76q-23 -41 -30 -122.5t-7 -266.5v-53h220v-41
h-220v-801q0 -95 54 -131.5t163 -36.5v-43q-252 8 -315 8q-50 0 -242 -8v43q58 0 91.5 13t49 45t15.5 89v822h-164v41h164q0 122 10 203.5z" />
    <glyph glyph-name="g" unicode="g" horiz-adv-x="1061" 
d="M956.5 180q66.5 -45 66.5 -145q0 -98 -63.5 -195t-193 -161t-316.5 -64q-107 0 -201.5 21.5t-152.5 64t-58 102.5q0 70 73.5 135.5t183.5 114.5h-7q-78 0 -141.5 33t-63.5 123q0 70 58 133t198 126q-90 35 -140 108t-50 184q0 162 103.5 242.5t274.5 80.5q80 0 145 -18
q20 114 72 182q55 68 140 68q51 0 79.5 -30t28.5 -77q0 -42 -28 -70t-70 -28q-52 0 -75 31.5t-34 97.5q-30 -27 -55 -100q-15 -45 -21 -85q93 -34 145 -107.5t52 -186.5q0 -109 -49 -181.5t-134 -107.5t-196 -35q-83 0 -151 19q-83 -44 -127.5 -81.5t-44.5 -80.5
q0 -34 23 -51t75 -17h481q107 0 173.5 -45zM388.5 981.5q-47.5 -65.5 -47.5 -221.5t47.5 -221.5t138.5 -65.5q92 0 139.5 65t47.5 222t-47.5 222t-139.5 65q-91 0 -138.5 -65.5zM242.5 -38q-36.5 -57 -36.5 -116q0 -66 44 -110t113 -65t142 -21q91 0 178 32.5t143 98
t56 158.5q0 40 -13.5 64.5t-47.5 37t-95 12.5h-381q-66 -34 -102.5 -91z" />
    <glyph glyph-name="gacute" unicode="&#x1f5;" horiz-adv-x="1061" 
d="M956.5 180q66.5 -45 66.5 -145q0 -98 -63.5 -195t-193 -161t-316.5 -64q-107 0 -201.5 21.5t-152.5 64t-58 102.5q0 70 73.5 135.5t183.5 114.5h-7q-78 0 -141.5 33t-63.5 123q0 70 58 133t198 126q-90 35 -140 108t-50 184q0 162 103.5 242.5t274.5 80.5q80 0 145 -18
q20 114 72 182q55 68 140 68q51 0 79.5 -30t28.5 -77q0 -42 -28 -70t-70 -28q-52 0 -75 31.5t-34 97.5q-30 -27 -55 -100q-15 -45 -21 -85q93 -34 145 -107.5t52 -186.5q0 -109 -49 -181.5t-134 -107.5t-196 -35q-83 0 -151 19q-83 -44 -127.5 -81.5t-44.5 -80.5
q0 -34 23 -51t75 -17h481q107 0 173.5 -45zM388.5 981.5q-47.5 -65.5 -47.5 -221.5t47.5 -221.5t138.5 -65.5q92 0 139.5 65t47.5 222t-47.5 222t-139.5 65q-91 0 -138.5 -65.5zM242.5 -38q-36.5 -57 -36.5 -116q0 -66 44 -110t113 -65t142 -21q91 0 178 32.5t143 98
t56 158.5q0 40 -13.5 64.5t-47.5 37t-95 12.5h-381q-66 -34 -102.5 -91zM463 1370q31 56 75 141t73 123q35 46 78 46q25 0 45 -15q28 -23 28 -57q0 -33 -28 -70q-30 -38 -89 -89.5t-113 -100.5t-122 -121l-22 18q44 69 75 125z" />
    <glyph glyph-name="gbreve" unicode="&#x11f;" horiz-adv-x="1034" 
d="M714.5 1384.5q-93.5 -88.5 -222.5 -88.5q-128 0 -221.5 88.5t-144.5 210.5l34 19q120 -197 332 -197q120 0 201 56.5t131 140.5l35 -19q-51 -122 -144.5 -210.5zM998 29q0 -100 -63.5 -195.5t-191.5 -157t-310 -61.5q-100 0 -187 22t-139.5 63t-52.5 95q0 140 257 254h-7
q-75 0 -140 34.5t-65 123.5q0 68 51 128t172 127q-97 34 -151.5 108.5t-54.5 189.5q0 161 104 242t275 81q79 0 145 -17q17 92 64 161q26 41 63.5 68.5t83.5 27.5q47 0 78 -30.5t31 -78.5t-30 -80t-81 -32q-43 0 -71.5 25.5t-33.5 70.5q-19 -7 -43 -59q-17 -44 -25 -85
q93 -34 145 -107.5t52 -186.5q0 -109 -48.5 -181.5t-133.5 -107.5t-196 -35q-72 0 -133 15q-54 -34 -81.5 -55t-44 -46t-16.5 -57q0 -43 27 -55.5t88 -12.5h424q239 0 239 -196zM355.5 982q-47.5 -65 -47.5 -222t47.5 -222t139.5 -65q91 0 138.5 65.5t47.5 221.5
t-47.5 221.5t-138.5 65.5q-92 0 -139.5 -65zM259.5 -41.5q-37.5 -55.5 -37.5 -118.5q0 -62 38.5 -105t98.5 -64t125 -21q93 0 184.5 35t150.5 101.5t59 156.5q0 56 -34 81t-122 25h-357q-68 -35 -105.5 -90.5z" />
    <glyph glyph-name="gcircumflex" unicode="&#x11d;" horiz-adv-x="1034" 
d="M563 1388q-66 39 -109 78q-52 -55 -134.5 -110.5t-168.5 -93.5l-17 28q117 58 208.5 153t133.5 199h37q23 -83 78.5 -161.5t124.5 -128.5l-21 -29q-66 26 -132 65zM998 29q0 -100 -63.5 -195.5t-191.5 -157t-310 -61.5q-100 0 -187 22t-139.5 63t-52.5 95q0 140 257 254
h-7q-75 0 -140 34.5t-65 123.5q0 68 51 128t172 127q-97 34 -151.5 108.5t-54.5 189.5q0 161 104 242t275 81q79 0 145 -17q17 92 64 161q26 41 63.5 68.5t83.5 27.5q47 0 78 -30.5t31 -78.5t-30 -80t-81 -32q-43 0 -71.5 25.5t-33.5 70.5q-19 -7 -43 -59q-17 -44 -25 -85
q93 -34 145 -107.5t52 -186.5q0 -109 -48.5 -181.5t-133.5 -107.5t-196 -35q-72 0 -133 15q-54 -34 -81.5 -55t-44 -46t-16.5 -57q0 -43 27 -55.5t88 -12.5h424q239 0 239 -196zM355.5 982q-47.5 -65 -47.5 -222t47.5 -222t139.5 -65q91 0 138.5 65.5t47.5 221.5
t-47.5 221.5t-138.5 65.5q-92 0 -139.5 -65zM259.5 -41.5q-37.5 -55.5 -37.5 -118.5q0 -62 38.5 -105t98.5 -64t125 -21q93 0 184.5 35t150.5 101.5t59 156.5q0 56 -34 81t-122 25h-357q-68 -35 -105.5 -90.5z" />
    <glyph glyph-name="gcommaaccent" unicode="&#x123;" horiz-adv-x="1034" 
d="M461.5 1585q-37.5 -34 -36.5 -79q37 32 86 32q47 0 77 -29t30 -81q0 -46 -33.5 -77.5t-81.5 -31.5q-59 0 -96 41.5t-37 102.5q0 77 36.5 125.5t131.5 83.5l14 -37q-53 -16 -90.5 -50zM998 29q0 -100 -63.5 -195.5t-191.5 -157t-310 -61.5q-100 0 -187 22t-139.5 63
t-52.5 95q0 140 257 254h-7q-75 0 -140 34.5t-65 123.5q0 68 51 128t172 127q-97 34 -151.5 108.5t-54.5 189.5q0 161 104 242t275 81q79 0 145 -17q17 92 64 161q26 41 63.5 68.5t83.5 27.5q47 0 78 -30.5t31 -78.5t-30 -80t-81 -32q-43 0 -71.5 25.5t-33.5 70.5
q-19 -7 -43 -59q-17 -44 -25 -85q93 -34 145 -107.5t52 -186.5q0 -109 -48.5 -181.5t-133.5 -107.5t-196 -35q-72 0 -133 15q-54 -34 -81.5 -55t-44 -46t-16.5 -57q0 -43 27 -55.5t88 -12.5h424q239 0 239 -196zM355.5 982q-47.5 -65 -47.5 -222t47.5 -222t139.5 -65
q91 0 138.5 65.5t47.5 221.5t-47.5 221.5t-138.5 65.5q-92 0 -139.5 -65zM259.5 -41.5q-37.5 -55.5 -37.5 -118.5q0 -62 38.5 -105t98.5 -64t125 -21q93 0 184.5 35t150.5 101.5t59 156.5q0 56 -34 81t-122 25h-357q-68 -35 -105.5 -90.5z" />
    <glyph glyph-name="gdotaccent" unicode="&#x121;" horiz-adv-x="1034" 
d="M429.5 1322.5q-30.5 17.5 -48 48t-17.5 65.5t17.5 65t48 48t65.5 18t65 -18t48 -48t18 -65t-18 -65.5t-48 -48t-65 -17.5t-65.5 17.5zM998 29q0 -100 -63.5 -195.5t-191.5 -157t-310 -61.5q-100 0 -187 22t-139.5 63t-52.5 95q0 140 257 254h-7q-75 0 -140 34.5
t-65 123.5q0 68 51 128t172 127q-97 34 -151.5 108.5t-54.5 189.5q0 161 104 242t275 81q79 0 145 -17q17 92 64 161q26 41 63.5 68.5t83.5 27.5q47 0 78 -30.5t31 -78.5t-30 -80t-81 -32q-43 0 -71.5 25.5t-33.5 70.5q-19 -7 -43 -59q-17 -44 -25 -85q93 -34 145 -107.5
t52 -186.5q0 -109 -48.5 -181.5t-133.5 -107.5t-196 -35q-72 0 -133 15q-54 -34 -81.5 -55t-44 -46t-16.5 -57q0 -43 27 -55.5t88 -12.5h424q239 0 239 -196zM355.5 982q-47.5 -65 -47.5 -222t47.5 -222t139.5 -65q91 0 138.5 65.5t47.5 221.5t-47.5 221.5t-138.5 65.5
q-92 0 -139.5 -65zM259.5 -41.5q-37.5 -55.5 -37.5 -118.5q0 -62 38.5 -105t98.5 -64t125 -21q93 0 184.5 35t150.5 101.5t59 156.5q0 56 -34 81t-122 25h-357q-68 -35 -105.5 -90.5z" />
    <glyph glyph-name="h" unicode="h" horiz-adv-x="1204" 
d="M522.5 1025.5q91.5 57.5 205.5 57.5q143 0 217 -77q39 -42 55.5 -103.5t16.5 -165.5v-547q0 -57 15.5 -89t49 -45t91.5 -13v-43q-192 8 -246 8q-58 0 -230 -8v43q51 0 80 13t42.5 45t13.5 89v592q0 74 -12 124t-48.5 81t-105.5 31q-83 0 -148.5 -47.5t-102 -132
t-36.5 -191.5v-457q0 -57 13.5 -89t42 -45t79.5 -13v-43q-172 8 -229 8q-58 0 -246 -8v43q58 0 91.5 13t49 45t15.5 89v1168q0 95 -34.5 137.5t-121.5 42.5v43q65 -6 127 -6q132 0 213 29v-766q51 130 142.5 187.5z" />
    <glyph glyph-name="hbar" unicode="&#x127;" horiz-adv-x="1204" 
d="M1032.5 101q15.5 -32 49 -45t91.5 -13v-43q-192 8 -246 8q-58 0 -230 -8v43q51 0 80 13t42.5 45t13.5 89v592q0 74 -12 124t-48.5 81t-105.5 31q-83 0 -148.5 -47.5t-102 -132t-36.5 -191.5v-457q0 -57 13.5 -89t42 -45t79.5 -13v-43q-172 8 -229 8q-58 0 -246 -8v43
q58 0 91.5 13t49 45t15.5 89v1055h-177v41h177v72q0 95 -34.5 137.5t-121.5 42.5v43q65 -6 127 -6q132 0 213 29v-318h364v-41h-364v-407q51 130 142.5 187.5t205.5 57.5q143 0 217 -77q39 -42 55.5 -103.5t16.5 -165.5v-547q0 -57 15.5 -89z" />
    <glyph glyph-name="hcircumflex" unicode="&#x125;" horiz-adv-x="1204" 
d="M522.5 1025.5q91.5 57.5 205.5 57.5q143 0 217 -77q39 -42 55.5 -103.5t16.5 -165.5v-547q0 -57 15.5 -89t49 -45t91.5 -13v-43q-192 8 -246 8q-58 0 -230 -8v43q51 0 80 13t42.5 45t13.5 89v592q0 74 -12 124t-48.5 81t-105.5 31q-83 0 -148.5 -47.5t-102 -132
t-36.5 -191.5v-457q0 -57 13.5 -89t42 -45t79.5 -13v-43q-172 8 -229 8q-58 0 -246 -8v43q58 0 91.5 13t49 45t15.5 89v1168q0 95 -34.5 137.5t-121.5 42.5v43q65 -6 127 -6q132 0 213 29v-766q51 130 142.5 187.5zM744.5 1854.5q101.5 -72.5 233.5 -117.5l-11 -29
q-124 26 -243 65.5t-189 77.5q-58 -38 -154.5 -77.5t-195.5 -65.5l-10 29q131 45 232.5 117.5t150.5 152.5h37q48 -80 149.5 -152.5z" />
    <glyph glyph-name="i" unicode="i" horiz-adv-x="600" 
d="M357 1549q30 -18 48 -48t18 -65t-18 -65.5t-48 -48t-65 -17.5t-65.5 17.5t-48 48t-17.5 65.5t17.5 65t48 48t65.5 18t65 -18zM413.5 101q15.5 -32 49 -45t91.5 -13v-43q-188 8 -248 8t-248 -8v43q58 0 91.5 13t49 45t15.5 89v641q0 95 -34.5 138t-121.5 43v43
q64 -6 127 -6q130 0 213 28v-887q0 -57 15.5 -89z" />
    <glyph glyph-name="dotlessi" unicode="&#x131;" horiz-adv-x="600" 
d="M413.5 101q15.5 -32 49 -45t91.5 -13v-43q-188 8 -248 8t-248 -8v43q58 0 91.5 13t49 45t15.5 89v641q0 95 -34.5 138t-121.5 43v43q64 -6 127 -6q130 0 213 28v-887q0 -57 15.5 -89z" />
    <glyph glyph-name="iacute" unicode="&#xed;" horiz-adv-x="600" 
d="M413.5 101q15.5 -32 49 -45t91.5 -13v-43q-188 8 -248 8t-248 -8v43q58 0 91.5 13t49 45t15.5 89v641q0 95 -34.5 138t-121.5 43v43q64 -6 127 -6q130 0 213 28v-887q0 -57 15.5 -89zM236 1370q31 56 75 141t73 123q35 46 78 46q25 0 45 -15q28 -23 28 -57q0 -33 -28 -70
q-30 -38 -89 -89.5t-113 -100.5t-122 -121l-22 18q44 69 75 125z" />
    <glyph glyph-name="ibreve" unicode="&#x12d;" horiz-adv-x="600" 
d="M413.5 101q15.5 -32 49 -45t91.5 -13v-43q-188 8 -248 8t-248 -8v43q58 0 91.5 13t49 45t15.5 89v641q0 95 -34.5 138t-121.5 43v43q64 -6 127 -6q130 0 213 28v-887q0 -57 15.5 -89zM508.5 1384.5q-93.5 -88.5 -222.5 -88.5q-128 0 -221.5 88.5t-144.5 210.5l34 19
q120 -197 332 -197q120 0 201 56.5t131 140.5l35 -19q-51 -122 -144.5 -210.5z" />
    <glyph glyph-name="icircumflex" unicode="&#xee;" horiz-adv-x="600" 
d="M413.5 101q15.5 -32 49 -45t91.5 -13v-43q-188 8 -248 8t-248 -8v43q58 0 91.5 13t49 45t15.5 89v641q0 95 -34.5 138t-121.5 43v43q64 -6 127 -6q130 0 213 28v-887q0 -57 15.5 -89zM439.5 1443q91.5 -95 208.5 -153l-16 -28q-111 38 -216 93.5t-169 110.5
q-52 -55 -134.5 -110.5t-168.5 -93.5l-17 28q117 58 208.5 153t133.5 199h37q42 -104 133.5 -199z" />
    <glyph glyph-name="idieresis" unicode="&#xef;" horiz-adv-x="600" 
d="M413.5 101q15.5 -32 49 -45t91.5 -13v-43q-188 8 -248 8t-248 -8v43q58 0 91.5 13t49 45t15.5 89v641q0 95 -34.5 138t-121.5 43v43q64 -6 127 -6q130 0 213 28v-887q0 -57 15.5 -89zM131.5 1505.5q27.5 -16.5 44 -44t16.5 -58.5q0 -32 -16.5 -59.5t-43.5 -43.5t-59 -16
q-49 0 -84 35t-35 84q0 31 16 58.5t43.5 44t59.5 16.5q31 0 58.5 -16.5zM565.5 1505.5q27.5 -16.5 44 -44t16.5 -58.5q0 -32 -16.5 -59.5t-43.5 -43.5t-59 -16q-49 0 -83.5 35t-34.5 84q0 31 16 58.5t43 44t59 16.5q31 0 58.5 -16.5z" />
    <glyph glyph-name="igrave" unicode="&#xec;" horiz-adv-x="600" 
d="M413.5 101q15.5 -32 49 -45t91.5 -13v-43q-188 8 -248 8t-248 -8v43q58 0 91.5 13t49 45t15.5 89v641q0 95 -34.5 138t-121.5 43v43q64 -6 127 -6q130 0 213 28v-887q0 -57 15.5 -89zM256.5 1329.5q-46.5 43.5 -118.5 107t-102 101.5q-28 37 -28 70q0 34 28 57
q19 15 44 15q44 0 79 -46q29 -38 65 -107.5t70.5 -134t87.5 -147.5l-23 -18q-56 59 -102.5 102.5z" />
    <glyph glyph-name="ij" unicode="&#x133;" horiz-adv-x="1151" 
d="M316 1549q30 -18 48 -48t18 -65t-18 -65.5t-48 -48t-65 -17.5t-65.5 17.5t-48 48t-17.5 65.5t17.5 65t48 48t65.5 18t65 -18zM939 1549q30 -18 48 -48t18 -65t-18 -65.5t-48 -48t-65 -17.5t-65.5 17.5t-48 48t-17.5 65.5t17.5 65t48 48t65.5 18t65 -18zM959.5 -85.5
q-28.5 -135.5 -104 -217.5t-209.5 -82q-81 0 -123.5 30t-42.5 85q0 45 27 72.5t74 27.5q42 0 69 -24t27 -66q0 -63 -70 -92q13 -2 35 -2q59 0 94.5 26.5t51.5 83t16 150.5v325q-38 -122 -124.5 -191t-211.5 -69q-138 0 -213 78q-37 40 -52.5 104t-15.5 164v514q0 95 -34 138
t-121 43v43q64 -6 127 -6q129 0 213 28v-805q0 -78 9 -126t43 -78.5t103 -30.5q83 0 146 48.5t97 133t34 189.5v423q0 95 -34.5 138t-121.5 43v43q64 -6 127 -6q130 0 213 28v-841q0 -186 -28.5 -321.5z" />
    <glyph glyph-name="imacron" unicode="&#x12b;" horiz-adv-x="600" 
d="M-23 1407v51h598v-51h-598zM414.5 101q15.5 -32 49 -45t91.5 -13v-43q-188 8 -248 8t-248 -8v43q58 0 91.5 13t49 45t15.5 89v641q0 95 -34.5 138t-121.5 43v43q64 -6 127 -6q130 0 213 28v-887q0 -57 15.5 -89z" />
    <glyph glyph-name="iogonek" unicode="&#x12f;" horiz-adv-x="600" 
d="M353 1549q30 -18 48 -48t18 -65t-18 -65.5t-48 -48t-65 -17.5t-65.5 17.5t-48 48t-17.5 65.5t17.5 65t48 48t65.5 18t65 -18zM413.5 101q15.5 -32 49 -45t91.5 -13v-43q-188 8 -248 8t-248 -8v43q58 0 91.5 13t49 45t15.5 89v641q0 95 -34.5 138t-121.5 43v43
q64 -6 127 -6q130 0 213 28v-887q0 -57 15.5 -89zM512 -4q-178 -76 -178 -193q0 -41 23.5 -65.5t64.5 -24.5q37 0 70.5 19.5t54.5 48.5l30 -27q-91 -139 -231 -139q-73 0 -117.5 36.5t-44.5 96.5q0 80 73.5 147t209.5 111h65q-5 -5 -20 -10z" />
    <glyph glyph-name="itilde" unicode="&#x129;" horiz-adv-x="600" 
d="M413.5 101q15.5 -32 49 -45t91.5 -13v-43q-188 8 -248 8t-248 -8v43q58 0 91.5 13t49 45t15.5 89v641q0 95 -34.5 138t-121.5 43v43q64 -6 127 -6q130 0 213 28v-887q0 -57 15.5 -89zM-11.5 1521.5q64.5 51.5 148.5 51.5q51 0 88 -18.5t101 -67.5t120 -49q93 0 158 108
l29 -14q-31 -108 -95.5 -159.5t-146.5 -51.5q-53 0 -90.5 19t-101.5 68.5t-119 49.5q-91 0 -158 -110l-29 14q31 108 95.5 159.5z" />
    <glyph glyph-name="j" unicode="j" horiz-adv-x="547" 
d="M337.5 1538.5q30.5 -17.5 48 -48t17.5 -65.5t-17.5 -65t-48 -48t-65.5 -18t-65 18t-48 48t-18 65t18 65.5t48 48t65 17.5t65.5 -17.5zM362.5 -55.5q-22.5 -124.5 -86.5 -204.5q-47 -61 -113.5 -93t-133.5 -32q-72 0 -115 31q-45 34 -45 94q0 47 29.5 76.5t76.5 29.5
q49 0 78 -25t29 -75q0 -70 -78 -98q12 -2 35 -2q71 0 115 47q47 59 47 174v964q0 95 -34.5 138t-121.5 43v43q64 -6 127 -6q130 0 213 28v-841q0 -167 -22.5 -291.5z" />
    <glyph glyph-name="dotlessj" unicode="&#x237;" horiz-adv-x="547" 
d="M362.5 -55.5q-22.5 -124.5 -86.5 -204.5q-47 -61 -113.5 -93t-133.5 -32q-72 0 -115 31q-45 34 -45 94q0 47 29.5 76.5t76.5 29.5q49 0 78 -25t29 -75q0 -70 -78 -98q12 -2 35 -2q71 0 115 47q47 59 47 174v964q0 95 -34.5 138t-121.5 43v43q64 -6 127 -6q130 0 213 28
v-841q0 -167 -22.5 -291.5z" />
    <glyph glyph-name="jcircumflex" unicode="&#x135;" horiz-adv-x="547" 
d="M362.5 -55.5q-22.5 -124.5 -86.5 -204.5q-47 -61 -113.5 -93t-133.5 -32q-72 0 -115 31q-45 34 -45 94q0 47 29.5 76.5t76.5 29.5q49 0 78 -25t29 -75q0 -70 -78 -98q12 -2 35 -2q71 0 115 47q47 59 47 174v964q0 95 -34.5 138t-121.5 43v43q64 -6 127 -6q130 0 213 28
v-841q0 -167 -22.5 -291.5zM424.5 1443q91.5 -95 208.5 -153l-16 -28q-111 38 -216 93.5t-169 110.5q-52 -55 -134.5 -110.5t-168.5 -93.5l-17 28q117 58 208.5 153t133.5 199h37q42 -104 133.5 -199z" />
    <glyph glyph-name="k" unicode="k" horiz-adv-x="1126" 
d="M1037 73.5q31 -24.5 74 -30.5v-43q-124 8 -166 8q-55 0 -227 -8v43q29 0 46 11t17 28q0 14 -12 31l-235 344q-37 52 -68 70t-86 20v-357q0 -57 13.5 -89t42 -45t79.5 -13v-43q-172 8 -227 8q-60 0 -248 -8v43q58 0 91.5 13t49 45t15.5 89v1170q0 95 -34.5 137.5
t-121.5 42.5v43q65 -6 127 -6q132 0 213 29v-1017q60 8 100 27.5t76 57.5l152 157q65 68 65 113q0 36 -41 53t-110 17v41q142 -8 231 -8q96 0 178 8v-41q-100 -9 -184 -96l-249 -262l370 -506q38 -52 69 -76.5z" />
    <glyph glyph-name="kcommaaccent" unicode="&#x137;" horiz-adv-x="1126" 
d="M1037 73.5q31 -24.5 74 -30.5v-43q-124 8 -166 8q-55 0 -227 -8v43q29 0 46 11t17 28q0 14 -12 31l-235 344q-37 52 -68 70t-86 20v-357q0 -57 13.5 -89t42 -45t79.5 -13v-43q-172 8 -227 8q-60 0 -248 -8v43q58 0 91.5 13t49 45t15.5 89v1170q0 95 -34.5 137.5
t-121.5 42.5v43q65 -6 127 -6q132 0 213 29v-1017q60 8 100 27.5t76 57.5l152 157q65 68 65 113q0 36 -41 53t-110 17v41q142 -8 231 -8q96 0 178 8v-41q-100 -9 -184 -96l-249 -262l370 -506q38 -52 69 -76.5zM172.5 -407q37.5 34 36.5 79q-37 -32 -86 -32q-47 0 -77 29
t-30 81q0 46 33.5 77.5t81.5 31.5q59 0 96 -41.5t37 -102.5q0 -77 -36.5 -125.5t-131.5 -83.5l-14 37q53 16 90.5 50z" />
    <glyph glyph-name="kgreenlandic" unicode="&#x138;" horiz-adv-x="1153" 
d="M1063.5 76.5q33.5 -28.5 65.5 -33.5v-43q-120 8 -165 8q-56 0 -228 -8v43q30 0 47.5 11t17.5 29q0 16 -14 30l-274 303q-33 41 -60 61t-55 23v-310q0 -57 13.5 -89t42.5 -45t80 -13v-43q-172 8 -228 8q-60 0 -248 -8v43q58 0 91.5 13t49 45t15.5 89v641q0 95 -34.5 138
t-121.5 43v43q64 -6 127 -6q130 0 213 28v-535q53 9 87 30t73 61l244 268q29 32 29 58t-28 40.5t-81 14.5v41q108 -6 211 -6q84 0 137 6v-41q-57 -5 -96.5 -23.5t-87.5 -72.5l-299 -328l397 -434q46 -51 79.5 -79.5z" />
    <glyph glyph-name="l" unicode="l" horiz-adv-x="586" 
d="M399.5 101q15.5 -32 49 -45t91.5 -13v-43q-188 8 -248 8t-248 -8v43q58 0 91.5 13t49 45t15.5 89v1170q0 95 -34.5 137.5t-121.5 42.5v43q64 -6 127 -6q132 0 213 29v-1416q0 -57 15.5 -89z" />
    <glyph glyph-name="lacute" unicode="&#x13a;" horiz-adv-x="586" 
d="M399.5 101q15.5 -32 49 -45t91.5 -13v-43q-188 8 -248 8t-248 -8v43q58 0 91.5 13t49 45t15.5 89v1170q0 95 -34.5 137.5t-121.5 42.5v43q64 -6 127 -6q132 0 213 29v-1416q0 -57 15.5 -89zM280.5 1830.5q48.5 41.5 119 106t111.5 90.5q31 20 62 20q40 0 63 -34
q11 -19 11 -38q0 -45 -54 -81q-41 -25 -113.5 -53t-141 -56t-157.5 -73l-14 27q65 50 113.5 91.5z" />
    <glyph glyph-name="lcaron" unicode="&#x13e;" horiz-adv-x="586" 
d="M399.5 101q15.5 -32 49 -45t91.5 -13v-43q-188 8 -248 8t-248 -8v43q58 0 91.5 13t49 45t15.5 89v1170q0 95 -34.5 137.5t-121.5 42.5v43q64 -6 127 -6q132 0 213 29v-1416q0 -57 15.5 -89zM544 1582q61 0 122 24q4 -11 7.5 -38t3.5 -46q0 -54 -30.5 -131.5
t-107.5 -237.5l-28 8q41 237 41 297q0 43 -8.5 62.5t-32.5 19.5v43q12 -1 33 -1z" />
    <glyph glyph-name="lcommaaccent" unicode="&#x13c;" horiz-adv-x="586" 
d="M399.5 101q15.5 -32 49 -45t91.5 -13v-43q-188 8 -248 8t-248 -8v43q58 0 91.5 13t49 45t15.5 89v1170q0 95 -34.5 137.5t-121.5 42.5v43q64 -6 127 -6q132 0 213 29v-1416q0 -57 15.5 -89zM-109.5 -407q37.5 34 36.5 79q-37 -32 -86 -32q-47 0 -77 29t-30 81
q0 46 33.5 77.5t81.5 31.5q59 0 96 -41.5t37 -102.5q0 -77 -36.5 -125.5t-131.5 -83.5l-14 37q53 16 90.5 50z" />
    <glyph glyph-name="ldot" unicode="&#x140;" horiz-adv-x="872" 
d="M399.5 101q15.5 -32 49 -45t91.5 -13v-43q-188 8 -248 8t-248 -8v43q58 0 91.5 13t49 45t15.5 89v1170q0 95 -34.5 137.5t-121.5 42.5v43q64 -6 127 -6q132 0 213 29v-1416q0 -57 15.5 -89zM793.5 717.5q30.5 -17.5 48 -48t17.5 -65.5t-17.5 -65t-48 -48t-65.5 -18
t-65.5 18t-48 48t-17.5 65t17.5 65.5t48 48t65.5 17.5t65.5 -17.5z" />
    <glyph glyph-name="lslash" unicode="&#x142;" horiz-adv-x="586" 
d="M385 190q0 -57 15.5 -89t49 -45t91.5 -13v-43q-188 8 -248 8t-248 -8v43q58 0 91.5 13t49 45t15.5 89v490l-232 -201v62l232 201v618q0 95 -34.5 137.5t-121.5 42.5v43q64 -6 127 -6q132 0 213 29v-724l231 201v-61l-231 -202v-630z" />
    <glyph glyph-name="m" unicode="m" horiz-adv-x="1819" 
d="M1646.5 101q15.5 -32 49 -45t91.5 -13v-43q-188 8 -246 8q-57 0 -229 -8v43q51 0 79.5 13t42 45t13.5 89v592q0 78 -9 126.5t-43 79t-104 30.5q-78 0 -141 -49t-99 -134t-36 -188v-457q0 -57 15.5 -89t48.5 -45t91 -13v-43q-188 8 -245 8q-58 0 -230 -8v43q51 0 80 13
t42 45t13 89v592q0 78 -9 126.5t-43 79t-103 30.5q-79 0 -142 -49.5t-99 -135t-36 -188.5v-455q0 -57 13.5 -89t42.5 -45t80 -13v-43q-172 8 -230 8t-246 -8v43q58 0 91.5 13t49 45t15.5 89v641q0 95 -34.5 138t-121.5 43v43q64 -6 127 -6q130 0 213 28v-241
q50 126 140 186.5t196 60.5q139 0 213 -77q51 -56 63 -165q51 129 141 185.5t200 56.5q139 0 213 -77q37 -41 52 -104.5t15 -164.5v-547q0 -57 15.5 -89z" />
    <glyph glyph-name="n" unicode="n" horiz-adv-x="1223" 
d="M540.5 1024.5q91.5 58.5 206.5 58.5q143 0 217 -77q38 -42 54.5 -103.5t16.5 -165.5v-547q0 -57 15.5 -89t49 -45t91.5 -13v-43q-188 8 -246 8q-57 0 -229 -8v43q51 0 79.5 13t42 45t13.5 89v592q0 74 -11.5 124t-48 81t-106.5 31q-84 0 -149.5 -49t-101.5 -134.5
t-36 -189.5v-455q0 -57 13.5 -89t42.5 -45t80 -13v-43q-172 8 -230 8t-246 -8v43q58 0 91.5 13t49 45t15.5 89v641q0 95 -34.5 138t-121.5 43v43q64 -6 127 -6q130 0 213 28v-241q51 130 142.5 188.5z" />
    <glyph glyph-name="nacute" unicode="&#x144;" horiz-adv-x="1223" 
d="M540.5 1024.5q91.5 58.5 206.5 58.5q143 0 217 -77q38 -42 54.5 -103.5t16.5 -165.5v-547q0 -57 15.5 -89t49 -45t91.5 -13v-43q-188 8 -246 8q-57 0 -229 -8v43q51 0 79.5 13t42 45t13.5 89v592q0 74 -11.5 124t-48 81t-106.5 31q-84 0 -149.5 -49t-101.5 -134.5
t-36 -189.5v-455q0 -57 13.5 -89t42.5 -45t80 -13v-43q-172 8 -230 8t-246 -8v43q58 0 91.5 13t49 45t15.5 89v641q0 95 -34.5 138t-121.5 43v43q64 -6 127 -6q130 0 213 28v-241q51 130 142.5 188.5zM574 1370q31 56 75 141t73 123q35 46 78 46q25 0 45 -15q28 -23 28 -57
q0 -33 -28 -70q-30 -38 -89 -89.5t-113 -100.5t-122 -121l-22 18q44 69 75 125z" />
    <glyph glyph-name="napostrophe" unicode="&#x149;" horiz-adv-x="1223" 
d="M540.5 1024.5q91.5 58.5 206.5 58.5q143 0 217 -77q38 -42 54.5 -103.5t16.5 -165.5v-547q0 -57 15.5 -89t49 -45t91.5 -13v-43q-188 8 -246 8q-57 0 -229 -8v43q51 0 79.5 13t42 45t13.5 89v592q0 74 -11.5 124t-48 81t-106.5 31q-84 0 -149.5 -49t-101.5 -134.5
t-36 -189.5v-455q0 -57 13.5 -89t42.5 -45t80 -13v-43q-172 8 -230 8t-246 -8v43q58 0 91.5 13t49 45t15.5 89v641q0 95 -34.5 138t-121.5 43v43q64 -6 127 -6q130 0 213 28v-241q51 130 142.5 188.5zM100 1161.5q46 57.5 46 116.5q0 25 -6 43q-35 -27 -76 -27
q-56 0 -93.5 35.5t-37.5 95.5q0 56 38 93.5t93 37.5q79 0 121 -65q35 -54 35 -135q0 -103 -52.5 -184.5t-158.5 -131.5l-19 37q64 27 110 84.5z" />
    <glyph glyph-name="ncaron" unicode="&#x148;" horiz-adv-x="1223" 
d="M540.5 1024.5q91.5 58.5 206.5 58.5q143 0 217 -77q38 -42 54.5 -103.5t16.5 -165.5v-547q0 -57 15.5 -89t49 -45t91.5 -13v-43q-188 8 -246 8q-57 0 -229 -8v43q51 0 79.5 13t42 45t13.5 89v592q0 74 -11.5 124t-48 81t-106.5 31q-84 0 -149.5 -49t-101.5 -134.5
t-36 -189.5v-455q0 -57 13.5 -89t42.5 -45t80 -13v-43q-172 8 -230 8t-246 -8v43q58 0 91.5 13t49 45t15.5 89v641q0 95 -34.5 138t-121.5 43v43q64 -6 127 -6q130 0 213 28v-241q51 130 142.5 188.5zM757.5 1461q-91.5 -95 -133.5 -199h-37q-42 104 -133.5 199t-208.5 153
l17 28q111 -38 216 -94t169 -110q52 55 134.5 110.5t168.5 93.5l16 -28q-117 -58 -208.5 -153z" />
    <glyph glyph-name="ncommaaccent" unicode="&#x146;" horiz-adv-x="1223" 
d="M540.5 1024.5q91.5 58.5 206.5 58.5q143 0 217 -77q38 -42 54.5 -103.5t16.5 -165.5v-547q0 -57 15.5 -89t49 -45t91.5 -13v-43q-188 8 -246 8q-57 0 -229 -8v43q51 0 79.5 13t42 45t13.5 89v592q0 74 -11.5 124t-48 81t-106.5 31q-84 0 -149.5 -49t-101.5 -134.5
t-36 -189.5v-455q0 -57 13.5 -89t42.5 -45t80 -13v-43q-172 8 -230 8t-246 -8v43q58 0 91.5 13t49 45t15.5 89v641q0 95 -34.5 138t-121.5 43v43q64 -6 127 -6q130 0 213 28v-241q51 130 142.5 188.5zM244.5 -407q37.5 34 36.5 79q-37 -32 -86 -32q-47 0 -77 29t-30 81
q0 46 33.5 77.5t81.5 31.5q59 0 96 -41.5t37 -102.5q0 -77 -36.5 -125.5t-131.5 -83.5l-14 37q53 16 90.5 50z" />
    <glyph glyph-name="eng" unicode="&#x14b;" horiz-adv-x="1186" 
d="M540.5 1023.5q91.5 57.5 206.5 57.5q143 0 217 -77q38 -42 54.5 -103.5t16.5 -165.5v-499q0 -167 -22.5 -291.5t-85.5 -204.5q-48 -61 -114.5 -93t-133.5 -32t-102 31t-35 78q0 42 26 69t70 27q41 0 66.5 -26.5t25.5 -65.5q0 -48 -33 -82q79 9 113 51q22 25 31 65
q10 48 10 105v913q0 74 -11.5 124t-48 81t-106.5 31q-84 0 -149.5 -49t-101.5 -133.5t-36 -188.5v-455q0 -57 13.5 -89t42.5 -45t80 -13v-43q-172 8 -230 8t-246 -8v43q58 0 91.5 13t49 45t15.5 89v641q0 95 -34.5 138t-121.5 43v43q64 -6 127 -6q130 0 213 28v-241
q51 130 142.5 187.5z" />
    <glyph glyph-name="ntilde" unicode="&#xf1;" horiz-adv-x="1223" 
d="M540.5 1024.5q91.5 58.5 206.5 58.5q143 0 217 -77q38 -42 54.5 -103.5t16.5 -165.5v-547q0 -57 15.5 -89t49 -45t91.5 -13v-43q-188 8 -246 8q-57 0 -229 -8v43q51 0 79.5 13t42 45t13.5 89v592q0 74 -11.5 124t-48 81t-106.5 31q-84 0 -149.5 -49t-101.5 -134.5
t-36 -189.5v-455q0 -57 13.5 -89t42.5 -45t80 -13v-43q-172 8 -230 8t-246 -8v43q58 0 91.5 13t49 45t15.5 89v641q0 95 -34.5 138t-121.5 43v43q64 -6 127 -6q130 0 213 28v-241q51 130 142.5 188.5zM326.5 1521.5q64.5 51.5 148.5 51.5q51 0 88 -18.5t101 -67.5t120 -49
q93 0 158 108l29 -14q-31 -108 -95.5 -159.5t-146.5 -51.5q-53 0 -90.5 19t-101.5 68.5t-119 49.5q-91 0 -158 -110l-29 14q31 108 95.5 159.5z" />
    <glyph glyph-name="o" unicode="o" horiz-adv-x="1122" 
d="M799.5 1024q104.5 -59 165 -183.5t60.5 -314.5t-60.5 -314t-165 -182.5t-239.5 -58.5t-239.5 58.5t-165 182.5t-60.5 314t60.5 314.5t165 183.5t239.5 59t239.5 -59zM365.5 916q-71.5 -126 -71.5 -390q0 -263 71.5 -388.5t194.5 -125.5t194.5 125.5t71.5 388.5
q0 264 -71.5 390t-194.5 126t-194.5 -126z" />
    <glyph glyph-name="oacute" unicode="&#xf3;" horiz-adv-x="1122" 
d="M799.5 1024q104.5 -59 165 -183.5t60.5 -314.5t-60.5 -314t-165 -182.5t-239.5 -58.5t-239.5 58.5t-165 182.5t-60.5 314t60.5 314.5t165 183.5t239.5 59t239.5 -59zM365.5 916q-71.5 -126 -71.5 -390q0 -263 71.5 -388.5t194.5 -125.5t194.5 125.5t71.5 388.5
q0 264 -71.5 390t-194.5 126t-194.5 -126zM514 1370q31 56 75 141t73 123q35 46 78 46q25 0 45 -15q28 -23 28 -57q0 -33 -28 -70q-30 -38 -89 -89.5t-113 -100.5t-122 -121l-22 18q44 69 75 125z" />
    <glyph glyph-name="obreve" unicode="&#x14f;" horiz-adv-x="1122" 
d="M799.5 1024q104.5 -59 165 -183.5t60.5 -314.5t-60.5 -314t-165 -182.5t-239.5 -58.5t-239.5 58.5t-165 182.5t-60.5 314t60.5 314.5t165 183.5t239.5 59t239.5 -59zM365.5 916q-71.5 -126 -71.5 -390q0 -263 71.5 -388.5t194.5 -125.5t194.5 125.5t71.5 388.5
q0 264 -71.5 390t-194.5 126t-194.5 -126zM786.5 1384.5q-93.5 -88.5 -222.5 -88.5q-128 0 -221.5 88.5t-144.5 210.5l34 19q120 -197 332 -197q120 0 201 56.5t131 140.5l35 -19q-51 -122 -144.5 -210.5z" />
    <glyph glyph-name="ocircumflex" unicode="&#xf4;" horiz-adv-x="1122" 
d="M799.5 1024q104.5 -59 165 -183.5t60.5 -314.5t-60.5 -314t-165 -182.5t-239.5 -58.5t-239.5 58.5t-165 182.5t-60.5 314t60.5 314.5t165 183.5t239.5 59t239.5 -59zM365.5 916q-71.5 -126 -71.5 -390q0 -263 71.5 -388.5t194.5 -125.5t194.5 125.5t71.5 388.5
q0 264 -71.5 390t-194.5 126t-194.5 -126zM717.5 1443q91.5 -95 208.5 -153l-16 -28q-111 38 -216 93.5t-169 110.5q-52 -55 -134.5 -110.5t-168.5 -93.5l-17 28q117 58 208.5 153t133.5 199h37q42 -104 133.5 -199z" />
    <glyph glyph-name="odieresis" unicode="&#xf6;" horiz-adv-x="1122" 
d="M799.5 1024q104.5 -59 165 -183.5t60.5 -314.5t-60.5 -314t-165 -182.5t-239.5 -58.5t-239.5 58.5t-165 182.5t-60.5 314t60.5 314.5t165 183.5t239.5 59t239.5 -59zM365.5 916q-71.5 -126 -71.5 -390q0 -263 71.5 -388.5t194.5 -125.5t194.5 125.5t71.5 388.5
q0 264 -71.5 390t-194.5 126t-194.5 -126zM409.5 1505.5q27.5 -16.5 44 -44t16.5 -58.5q0 -32 -16.5 -59.5t-43.5 -43.5t-59 -16q-49 0 -84 35t-35 84q0 31 16 58.5t43.5 44t59.5 16.5q31 0 58.5 -16.5zM843.5 1505.5q27.5 -16.5 44 -44t16.5 -58.5q0 -32 -16.5 -59.5
t-43.5 -43.5t-59 -16q-49 0 -83.5 35t-34.5 84q0 31 16 58.5t43 44t59 16.5q31 0 58.5 -16.5z" />
    <glyph glyph-name="ograve" unicode="&#xf2;" horiz-adv-x="1122" 
d="M799.5 1024q104.5 -59 165 -183.5t60.5 -314.5t-60.5 -314t-165 -182.5t-239.5 -58.5t-239.5 58.5t-165 182.5t-60.5 314t60.5 314.5t165 183.5t239.5 59t239.5 -59zM365.5 916q-71.5 -126 -71.5 -390q0 -263 71.5 -388.5t194.5 -125.5t194.5 125.5t71.5 388.5
q0 264 -71.5 390t-194.5 126t-194.5 -126zM534.5 1329.5q-46.5 43.5 -118.5 107t-102 101.5q-28 37 -28 70q0 34 28 57q19 15 44 15q44 0 79 -46q29 -38 65 -107.5t70.5 -134t87.5 -147.5l-23 -18q-56 59 -102.5 102.5z" />
    <glyph glyph-name="ohungarumlaut" unicode="&#x151;" horiz-adv-x="1122" 
d="M799.5 1024q104.5 -59 165 -183.5t60.5 -314.5t-60.5 -314t-165 -182.5t-239.5 -58.5t-239.5 58.5t-165 182.5t-60.5 314t60.5 314.5t165 183.5t239.5 59t239.5 -59zM365.5 916q-71.5 -126 -71.5 -390q0 -263 71.5 -388.5t194.5 -125.5t194.5 125.5t71.5 388.5
q0 264 -71.5 390t-194.5 126t-194.5 -126zM370 1370q31 56 75 141t73 123q35 46 79 46q25 0 44 -15q28 -23 28 -57q0 -33 -28 -70q-30 -38 -89 -90t-112.5 -100.5t-121.5 -120.5l-23 18q44 69 75 125zM735 1370q31 56 75 141t73 123q35 46 78 46q26 0 45 -15q28 -23 28 -57
q0 -33 -28 -70q-30 -38 -89 -89.5t-113 -100.5t-122 -121l-22 18q44 69 75 125z" />
    <glyph glyph-name="omacron" unicode="&#x14d;" horiz-adv-x="1122" 
d="M799.5 1024q104.5 -59 165 -183.5t60.5 -314.5t-60.5 -314t-165 -182.5t-239.5 -58.5t-239.5 58.5t-165 182.5t-60.5 314t60.5 314.5t165 183.5t239.5 59t239.5 -59zM365.5 916q-71.5 -126 -71.5 -390q0 -263 71.5 -388.5t194.5 -125.5t194.5 125.5t71.5 388.5
q0 264 -71.5 390t-194.5 126t-194.5 -126zM240 1407v51h639v-51h-639z" />
    <glyph glyph-name="oslash" unicode="&#xf8;" horiz-adv-x="1120" 
d="M1025 526q0 -190 -60.5 -314t-165 -182.5t-239.5 -58.5q-170 0 -285 89l-143 -210l-43 29l148 215q-142 145 -142 432q0 190 60.5 314.5t165 183.5t239.5 59q174 0 289 -93l145 212l39 -26l-148 -219q140 -145 140 -431zM560 1042q-123 0 -194.5 -126t-71.5 -390
q0 -192 41 -315l431 683q-68 148 -206 148zM560 12q123 0 194.5 125.5t71.5 388.5q0 189 -39 311l-429 -684q68 -141 202 -141z" />
    <glyph glyph-name="otilde" unicode="&#xf5;" horiz-adv-x="1122" 
d="M799.5 1024q104.5 -59 165 -183.5t60.5 -314.5t-60.5 -314t-165 -182.5t-239.5 -58.5t-239.5 58.5t-165 182.5t-60.5 314t60.5 314.5t165 183.5t239.5 59t239.5 -59zM365.5 916q-71.5 -126 -71.5 -390q0 -263 71.5 -388.5t194.5 -125.5t194.5 125.5t71.5 388.5
q0 264 -71.5 390t-194.5 126t-194.5 -126zM266.5 1521.5q64.5 51.5 148.5 51.5q51 0 88 -18.5t101 -67.5t120 -49q93 0 158 108l29 -14q-31 -108 -95.5 -159.5t-146.5 -51.5q-53 0 -90.5 19t-101.5 68.5t-119 49.5q-91 0 -158 -110l-29 14q31 108 95.5 159.5z" />
    <glyph glyph-name="oe" unicode="&#x153;" horiz-adv-x="1710" 
d="M1548.5 111.5q-49.5 -62.5 -124 -101.5t-165.5 -39q-128 0 -222.5 61t-147.5 172q-51 -118 -141.5 -175.5t-205.5 -57.5q-129 0 -229 58.5t-158 183t-58 313.5q0 190 58 314t158 182.5t229 58.5q117 0 208.5 -59.5t141.5 -181.5q54 117 146 180t212 63q175 0 269 -111.5
t94 -338.5h-620q-7 -53 -7 -131q0 -135 44.5 -236t116.5 -155t152 -54q92 0 162 47.5t119 157.5l41 -16q-23 -72 -72.5 -134.5zM1400.5 859.5q-18.5 84.5 -59 134.5t-99.5 50q-63 0 -116 -40t-89 -123.5t-47 -208.5h426q3 103 -15.5 187.5zM721 137.5q66 125.5 66 388.5
t-66 388.5t-179 125.5q-114 0 -180 -125t-66 -389q0 -263 66 -388.5t180 -125.5q113 0 179 125.5z" />
    <glyph glyph-name="p" unicode="p" horiz-adv-x="1190" 
d="M516 1025q86 58 196 58q109 0 195.5 -59t136 -174t49.5 -275q0 -157 -50 -294.5t-155.5 -223.5t-263.5 -86q-78 0 -141.5 30.5t-98.5 80.5v-262q0 -83 49 -115.5t148 -32.5v-43q-26 1 -116.5 5t-178.5 4q-65 0 -134 -4t-87 -5v43q75 0 105 27.5t30 99.5v1032
q0 95 -34.5 138t-121.5 43v43q64 -6 127 -6q130 0 213 28v-216q46 106 132 164zM469 53.5q55 -35.5 132 -35.5q293 0 293 529q0 475 -238 475q-93 0 -166.5 -66.5t-105.5 -192.5v-613q30 -61 85 -96.5z" />
    <glyph glyph-name="thorn" unicode="&#xfe;" horiz-adv-x="1145" 
d="M472 1025q86 58 196 58q109 0 195.5 -59t136 -174t49.5 -275q0 -157 -50 -294.5t-155.5 -223.5t-263.5 -86q-78 0 -141.5 30.5t-98.5 80.5v-262q0 -83 49 -115.5t148 -32.5v-43q-26 1 -117 5t-178 4q-65 0 -134.5 -4t-87.5 -5v43q51 0 80 11.5t42.5 39t13.5 76.5v1559
q0 95 -34.5 137.5t-121.5 42.5v43q65 -6 127 -6q132 0 213 29v-743q46 106 132 164zM424.5 53.5q54.5 -35.5 132.5 -35.5q293 0 293 529q0 475 -238 475q-93 0 -166.5 -66.5t-105.5 -192.5v-613q30 -61 84.5 -96.5z" />
    <glyph glyph-name="q" unicode="q" horiz-adv-x="1153" 
d="M1018 -300.5q30 -27.5 105 -27.5v-43q-18 1 -87 5t-134 4q-88 0 -178.5 -4t-116.5 -5v43q99 0 148 32.5t49 115.5v353q-41 -97 -116.5 -149.5t-170.5 -52.5q-120 0 -215.5 62t-151 187t-55.5 306t57.5 306.5t156.5 188t225 62.5q104 0 174 -35.5t114 -113.5
q109 115 146 153l35 -14q-15 -50 -15 -119v-1155q0 -72 30 -99.5zM550 1036q-124 0 -190 -127.5t-66 -382.5q0 -245 72.5 -369t210.5 -124q76 0 138.5 61.5t88.5 175.5v629q-78 137 -254 137z" />
    <glyph glyph-name="r" unicode="r" horiz-adv-x="911" 
d="M464.5 945q43.5 60 103.5 99t127 39q54 0 96.5 -21.5t66.5 -58.5t24 -81q0 -54 -32 -91.5t-85 -37.5q-45 0 -77 28.5t-32 77.5q0 67 70 111q-14 20 -43 20q-81 0 -146 -62t-102 -153t-37 -170v-434q0 -95 54 -131.5t163 -36.5v-43q-252 8 -315 8q-54 0 -242 -8v43
q58 0 91.5 13t49 45t15.5 89v641q0 95 -34.5 138t-121.5 43v43q64 -6 127 -6q130 0 213 28v-256q23 64 66.5 124z" />
    <glyph glyph-name="racute" unicode="&#x155;" horiz-adv-x="911" 
d="M464.5 945q43.5 60 103.5 99t127 39q54 0 96.5 -21.5t66.5 -58.5t24 -81q0 -54 -32 -91.5t-85 -37.5q-45 0 -77 28.5t-32 77.5q0 67 70 111q-14 20 -43 20q-81 0 -146 -62t-102 -153t-37 -170v-434q0 -95 54 -131.5t163 -36.5v-43q-252 8 -315 8q-54 0 -242 -8v43
q58 0 91.5 13t49 45t15.5 89v641q0 95 -34.5 138t-121.5 43v43q64 -6 127 -6q130 0 213 28v-256q23 64 66.5 124zM430 1370q31 56 75 141t73 123q35 46 78 46q25 0 45 -15q28 -23 28 -57q0 -33 -28 -70q-30 -38 -89 -89.5t-113 -100.5t-122 -121l-22 18q44 69 75 125z" />
    <glyph glyph-name="rcaron" unicode="&#x159;" horiz-adv-x="911" 
d="M464.5 945q43.5 60 103.5 99t127 39q54 0 96.5 -21.5t66.5 -58.5t24 -81q0 -54 -32 -91.5t-85 -37.5q-45 0 -77 28.5t-32 77.5q0 67 70 111q-14 20 -43 20q-81 0 -146 -62t-102 -153t-37 -170v-434q0 -95 54 -131.5t163 -36.5v-43q-252 8 -315 8q-54 0 -242 -8v43
q58 0 91.5 13t49 45t15.5 89v641q0 95 -34.5 138t-121.5 43v43q64 -6 127 -6q130 0 213 28v-256q23 64 66.5 124zM613.5 1461q-91.5 -95 -133.5 -199h-37q-42 104 -133.5 199t-208.5 153l17 28q111 -38 216 -94t169 -110q52 55 134.5 110.5t168.5 93.5l16 -28
q-117 -58 -208.5 -153z" />
    <glyph glyph-name="rcommaaccent" unicode="&#x157;" horiz-adv-x="911" 
d="M464.5 945q43.5 60 103.5 99t127 39q54 0 96.5 -21.5t66.5 -58.5t24 -81q0 -54 -32 -91.5t-85 -37.5q-45 0 -77 28.5t-32 77.5q0 67 70 111q-14 20 -43 20q-81 0 -146 -62t-102 -153t-37 -170v-434q0 -95 54 -131.5t163 -36.5v-43q-252 8 -315 8q-54 0 -242 -8v43
q58 0 91.5 13t49 45t15.5 89v641q0 95 -34.5 138t-121.5 43v43q64 -6 127 -6q130 0 213 28v-256q23 64 66.5 124zM-56.5 -407q37.5 34 36.5 79q-37 -32 -86 -32q-47 0 -77 29t-30 81q0 46 33.5 77.5t81.5 31.5q59 0 96 -41.5t37 -102.5q0 -77 -36.5 -125.5t-131.5 -83.5
l-14 37q53 16 90.5 50z" />
    <glyph glyph-name="s" unicode="s" horiz-adv-x="913" 
d="M210 186q28 -82 86 -128t156 -46q45 0 86.5 19.5t68.5 63t27 112.5q0 56 -28.5 100.5t-74.5 80t-129 87.5q-101 64 -154.5 105t-90.5 100t-37 139q0 87 41 146.5t109.5 88.5t152.5 29q72 0 129.5 -23t93.5 -52q22 -17 36 -17q36 0 46 90h47q-8 -100 -8 -348h-47
q-22 135 -87 223t-192 88q-74 0 -121 -41.5t-47 -115.5q0 -71 48.5 -118.5t117 -90.5t97.5 -62q94 -61 151.5 -108.5t93 -109t35.5 -140.5q0 -91 -47.5 -155.5t-127.5 -98t-175 -33.5q-91 0 -162 29q-40 20 -84 55q-8 8 -19 8q-30 0 -42 -77h-47q8 117 8 409h47
q15 -127 43 -209z" />
    <glyph glyph-name="sacute" unicode="&#x15b;" horiz-adv-x="913" 
d="M210 186q28 -82 86 -128t156 -46q45 0 86.5 19.5t68.5 63t27 112.5q0 56 -28.5 100.5t-74.5 80t-129 87.5q-101 64 -154.5 105t-90.5 100t-37 139q0 87 41 146.5t109.5 88.5t152.5 29q72 0 129.5 -23t93.5 -52q22 -17 36 -17q36 0 46 90h47q-8 -100 -8 -348h-47
q-22 135 -87 223t-192 88q-74 0 -121 -41.5t-47 -115.5q0 -71 48.5 -118.5t117 -90.5t97.5 -62q94 -61 151.5 -108.5t93 -109t35.5 -140.5q0 -91 -47.5 -155.5t-127.5 -98t-175 -33.5q-91 0 -162 29q-40 20 -84 55q-8 8 -19 8q-30 0 -42 -77h-47q8 117 8 409h47
q15 -127 43 -209zM414 1370q31 56 75 141t73 123q35 46 78 46q25 0 45 -15q28 -23 28 -57q0 -33 -28 -70q-30 -38 -89 -89.5t-113 -100.5t-122 -121l-22 18q44 69 75 125z" />
    <glyph glyph-name="scaron" unicode="&#x161;" horiz-adv-x="913" 
d="M210 186q28 -82 86 -128t156 -46q45 0 86.5 19.5t68.5 63t27 112.5q0 56 -28.5 100.5t-74.5 80t-129 87.5q-101 64 -154.5 105t-90.5 100t-37 139q0 87 41 146.5t109.5 88.5t152.5 29q72 0 129.5 -23t93.5 -52q22 -17 36 -17q36 0 46 90h47q-8 -100 -8 -348h-47
q-22 135 -87 223t-192 88q-74 0 -121 -41.5t-47 -115.5q0 -71 48.5 -118.5t117 -90.5t97.5 -62q94 -61 151.5 -108.5t93 -109t35.5 -140.5q0 -91 -47.5 -155.5t-127.5 -98t-175 -33.5q-91 0 -162 29q-40 20 -84 55q-8 8 -19 8q-30 0 -42 -77h-47q8 117 8 409h47
q15 -127 43 -209zM597.5 1461q-91.5 -95 -133.5 -199h-37q-42 104 -133.5 199t-208.5 153l17 28q111 -38 216 -94t169 -110q52 55 134.5 110.5t168.5 93.5l16 -28q-117 -58 -208.5 -153z" />
    <glyph glyph-name="scedilla" unicode="&#x15f;" horiz-adv-x="913" 
d="M210 186q28 -82 86 -128t156 -46q45 0 86.5 19.5t68.5 63t27 112.5q0 56 -28.5 100.5t-74.5 80t-129 87.5q-101 64 -154.5 105t-90.5 100t-37 139q0 87 41 146.5t109.5 88.5t152.5 29q72 0 129.5 -23t93.5 -52q22 -17 36 -17q36 0 46 90h47q-8 -100 -8 -348h-47
q-22 135 -87 223t-192 88q-74 0 -121 -41.5t-47 -115.5q0 -71 48.5 -118.5t117 -90.5t97.5 -62q94 -61 151.5 -108.5t93 -109t35.5 -140.5q0 -91 -47.5 -155.5t-127.5 -98t-175 -33.5q-91 0 -162 29q-40 20 -84 55q-8 8 -19 8q-30 0 -42 -77h-47q8 117 8 409h47
q15 -127 43 -209zM527 -133q58 0 91.5 -25.5t33.5 -70.5q0 -54 -35.5 -89t-88.5 -51t-108 -16q-105 0 -170 23l9 36q42 -6 77 -6q74 0 129.5 21.5t55.5 70.5q0 58 -86 58q-59 0 -101 -15l70 209h55l-53 -159q61 14 121 14z" />
    <glyph glyph-name="scircumflex" unicode="&#x15d;" horiz-adv-x="913" 
d="M210 186q28 -82 86 -128t156 -46q45 0 86.5 19.5t68.5 63t27 112.5q0 56 -28.5 100.5t-74.5 80t-129 87.5q-101 64 -154.5 105t-90.5 100t-37 139q0 87 41 146.5t109.5 88.5t152.5 29q72 0 129.5 -23t93.5 -52q22 -17 36 -17q36 0 46 90h47q-8 -100 -8 -348h-47
q-22 135 -87 223t-192 88q-74 0 -121 -41.5t-47 -115.5q0 -71 48.5 -118.5t117 -90.5t97.5 -62q94 -61 151.5 -108.5t93 -109t35.5 -140.5q0 -91 -47.5 -155.5t-127.5 -98t-175 -33.5q-91 0 -162 29q-40 20 -84 55q-8 8 -19 8q-30 0 -42 -77h-47q8 117 8 409h47
q15 -127 43 -209zM617.5 1443q91.5 -95 208.5 -153l-16 -28q-111 38 -216 93.5t-169 110.5q-52 -55 -134.5 -110.5t-168.5 -93.5l-17 28q117 58 208.5 153t133.5 199h37q42 -104 133.5 -199z" />
    <glyph glyph-name="scommaaccent" unicode="&#x219;" horiz-adv-x="913" 
d="M210 186q28 -82 86 -128t156 -46q45 0 86.5 19.5t68.5 63t27 112.5q0 56 -28.5 100.5t-74.5 80t-129 87.5q-101 64 -154.5 105t-90.5 100t-37 139q0 87 41 146.5t109.5 88.5t152.5 29q72 0 129.5 -23t93.5 -52q22 -17 36 -17q36 0 46 90h47q-8 -100 -8 -348h-47
q-22 135 -87 223t-192 88q-74 0 -121 -41.5t-47 -115.5q0 -71 48.5 -118.5t117 -90.5t97.5 -62q94 -61 151.5 -108.5t93 -109t35.5 -140.5q0 -91 -47.5 -155.5t-127.5 -98t-175 -33.5q-91 0 -162 29q-40 20 -84 55q-8 8 -19 8q-30 0 -42 -77h-47q8 117 8 409h47
q15 -127 43 -209zM64.5 -407q37.5 34 36.5 79q-37 -32 -86 -32q-47 0 -77 29t-30 81q0 46 33.5 77.5t81.5 31.5q59 0 96 -41.5t37 -102.5q0 -77 -36.5 -125.5t-131.5 -83.5l-14 37q53 16 90.5 50z" />
    <glyph glyph-name="germandbls" unicode="&#xdf;" horiz-adv-x="1196" 
d="M305 1483q107 119 296 119q175 0 269 -78t94 -215q0 -98 -59.5 -185.5t-141 -148.5t-148.5 -88q134 -31 246.5 -105t180 -183.5t67.5 -240.5q0 -116 -51 -204t-136 -135.5t-184 -47.5q-59 0 -116.5 19.5t-95.5 59.5t-38 97q0 50 28.5 80.5t78.5 30.5q47 0 78 -27t31 -73
q0 -79 -89 -107q7 -19 38 -34t69 -15q52 0 98.5 31.5t76.5 102.5t30 183q0 120 -37 232.5t-114 197t-189 119.5q-49 -30 -76 -30q-16 0 -28.5 9t-12.5 25q0 18 12 28.5t35 10.5q31 0 74 -16q101 78 144.5 174t43.5 231q0 131 -51 201t-149 70q-78 0 -137.5 -62t-59.5 -231
v-1301q-81 29 -213 29q-62 0 -127 -6v43q87 0 121.5 42.5t34.5 137.5v879q0 262 107 381z" />
    <glyph glyph-name="t" unicode="t" horiz-adv-x="725" 
d="M692 1053v-41h-303v-793q0 -93 33 -133.5t98 -40.5q64 0 109 51t76 168l40 -10q-50 -283 -266 -283q-69 0 -114 16.5t-80 51.5q-44 45 -62 110.5t-18 176.5v686h-197v41h197v313q115 3 184 29v-342h303z" />
    <glyph glyph-name="tbar" unicode="&#x167;" horiz-adv-x="770" 
d="M485 -29q-69 0 -114 16.5t-80 51.5q-44 45 -62 110.5t-18 176.5v495h-197v41h197v150h-197v41h197v313q115 3 184 29v-342h303v-41h-303v-150h303v-41h-303v-602q0 -93 33 -133.5t98 -40.5q64 0 109 51t76 168l40 -10q-50 -283 -266 -283z" />
    <glyph glyph-name="tcaron" unicode="&#x165;" horiz-adv-x="725" 
d="M692 1053v-41h-303v-793q0 -93 33 -133.5t98 -40.5q64 0 109 51t76 168l40 -10q-50 -283 -266 -283q-69 0 -114 16.5t-80 51.5q-44 45 -62 110.5t-18 176.5v686h-197v41h197v313q115 3 184 29v-342h303zM561 1580q61 0 122 24q4 -11 7.5 -38t3.5 -46q0 -54 -30.5 -131.5
t-107.5 -237.5l-28 8q41 237 41 297q0 43 -8.5 62.5t-32.5 19.5v43q12 -1 33 -1z" />
    <glyph glyph-name="tcedilla" unicode="&#x163;" horiz-adv-x="725" 
d="M692 1053v-41h-303v-793q0 -93 33 -133.5t98 -40.5q64 0 109 51t76 168l40 -10q-50 -283 -266 -283q-69 0 -114 16.5t-80 51.5q-44 45 -62 110.5t-18 176.5v686h-197v41h197v313q115 3 184 29v-342h303zM539 -133q58 0 91.5 -25.5t33.5 -70.5q0 -54 -35.5 -89t-88.5 -51
t-108 -16q-105 0 -170 23l9 36q42 -6 77 -6q74 0 129.5 21.5t55.5 70.5q0 58 -86 58q-59 0 -101 -15l70 209h55l-53 -159q61 14 121 14z" />
    <glyph glyph-name="uni021B" unicode="&#x21b;" horiz-adv-x="725" 
d="M692 1053v-41h-303v-793q0 -93 33 -133.5t98 -40.5q64 0 109 51t76 168l40 -10q-50 -283 -266 -283q-69 0 -114 16.5t-80 51.5q-44 45 -62 110.5t-18 176.5v686h-197v41h197v313q115 3 184 29v-342h303zM76.5 -407q37.5 34 36.5 79q-37 -32 -86 -32q-47 0 -77 29t-30 81
q0 46 33.5 77.5t81.5 31.5q59 0 96 -41.5t37 -102.5q0 -77 -36.5 -125.5t-131.5 -83.5l-14 37q53 16 90.5 50z" />
    <glyph glyph-name="u" unicode="u" horiz-adv-x="1190" 
d="M1022.5 83.5q34.5 -42.5 121.5 -42.5v-43q-64 6 -127 6q-132 0 -213 -29v242q-50 -126 -139.5 -186t-196.5 -60q-138 0 -213 78q-37 40 -52.5 104t-15.5 164v514q0 95 -34 138t-121 43v43q64 -6 127 -6q129 0 213 28v-805q0 -78 9 -126t43 -78.5t103 -30.5q79 0 142 49
t99 134t36 188v423q0 95 -34.5 138t-121.5 43v43q64 -6 127 -6q130 0 213 28v-856q0 -95 34.5 -137.5z" />
    <glyph glyph-name="uacute" unicode="&#xfa;" horiz-adv-x="1190" 
d="M1022.5 83.5q34.5 -42.5 121.5 -42.5v-43q-64 6 -127 6q-132 0 -213 -29v242q-50 -126 -139.5 -186t-196.5 -60q-138 0 -213 78q-37 40 -52.5 104t-15.5 164v514q0 95 -34 138t-121 43v43q64 -6 127 -6q129 0 213 28v-805q0 -78 9 -126t43 -78.5t103 -30.5q79 0 142 49
t99 134t36 188v423q0 95 -34.5 138t-121.5 43v43q64 -6 127 -6q130 0 213 28v-856q0 -95 34.5 -137.5zM520 1370q31 56 75 141t73 123q35 46 78 46q25 0 45 -15q28 -23 28 -57q0 -33 -28 -70q-30 -38 -89 -89.5t-113 -100.5t-122 -121l-22 18q44 69 75 125z" />
    <glyph glyph-name="ubreve" unicode="&#x16d;" horiz-adv-x="1190" 
d="M1022.5 83.5q34.5 -42.5 121.5 -42.5v-43q-64 6 -127 6q-132 0 -213 -29v242q-50 -126 -139.5 -186t-196.5 -60q-138 0 -213 78q-37 40 -52.5 104t-15.5 164v514q0 95 -34 138t-121 43v43q64 -6 127 -6q129 0 213 28v-805q0 -78 9 -126t43 -78.5t103 -30.5q79 0 142 49
t99 134t36 188v423q0 95 -34.5 138t-121.5 43v43q64 -6 127 -6q130 0 213 28v-856q0 -95 34.5 -137.5zM792.5 1384.5q-93.5 -88.5 -222.5 -88.5q-128 0 -221.5 88.5t-144.5 210.5l34 19q120 -197 332 -197q120 0 201 56.5t131 140.5l35 -19q-51 -122 -144.5 -210.5z" />
    <glyph glyph-name="ucircumflex" unicode="&#xfb;" horiz-adv-x="1190" 
d="M1022.5 83.5q34.5 -42.5 121.5 -42.5v-43q-64 6 -127 6q-132 0 -213 -29v242q-50 -126 -139.5 -186t-196.5 -60q-138 0 -213 78q-37 40 -52.5 104t-15.5 164v514q0 95 -34 138t-121 43v43q64 -6 127 -6q129 0 213 28v-805q0 -78 9 -126t43 -78.5t103 -30.5q79 0 142 49
t99 134t36 188v423q0 95 -34.5 138t-121.5 43v43q64 -6 127 -6q130 0 213 28v-856q0 -95 34.5 -137.5zM723.5 1443q91.5 -95 208.5 -153l-16 -28q-111 38 -216 93.5t-169 110.5q-52 -55 -134.5 -110.5t-168.5 -93.5l-17 28q117 58 208.5 153t133.5 199h37
q42 -104 133.5 -199z" />
    <glyph glyph-name="udieresis" unicode="&#xfc;" horiz-adv-x="1190" 
d="M1022.5 83.5q34.5 -42.5 121.5 -42.5v-43q-64 6 -127 6q-132 0 -213 -29v242q-50 -126 -139.5 -186t-196.5 -60q-138 0 -213 78q-37 40 -52.5 104t-15.5 164v514q0 95 -34 138t-121 43v43q64 -6 127 -6q129 0 213 28v-805q0 -78 9 -126t43 -78.5t103 -30.5q79 0 142 49
t99 134t36 188v423q0 95 -34.5 138t-121.5 43v43q64 -6 127 -6q130 0 213 28v-856q0 -95 34.5 -137.5zM415.5 1505.5q27.5 -16.5 44 -44t16.5 -58.5q0 -32 -16.5 -59.5t-43.5 -43.5t-59 -16q-49 0 -84 35t-35 84q0 31 16 58.5t43.5 44t59.5 16.5q31 0 58.5 -16.5z
M849.5 1505.5q27.5 -16.5 44 -44t16.5 -58.5q0 -32 -16.5 -59.5t-43.5 -43.5t-59 -16q-49 0 -83.5 35t-34.5 84q0 31 16 58.5t43 44t59 16.5q31 0 58.5 -16.5z" />
    <glyph glyph-name="ugrave" unicode="&#xf9;" horiz-adv-x="1190" 
d="M1022.5 83.5q34.5 -42.5 121.5 -42.5v-43q-64 6 -127 6q-132 0 -213 -29v242q-50 -126 -139.5 -186t-196.5 -60q-138 0 -213 78q-37 40 -52.5 104t-15.5 164v514q0 95 -34 138t-121 43v43q64 -6 127 -6q129 0 213 28v-805q0 -78 9 -126t43 -78.5t103 -30.5q79 0 142 49
t99 134t36 188v423q0 95 -34.5 138t-121.5 43v43q64 -6 127 -6q130 0 213 28v-856q0 -95 34.5 -137.5zM540.5 1329.5q-46.5 43.5 -118.5 107t-102 101.5q-28 37 -28 70q0 34 28 57q19 15 44 15q44 0 79 -46q29 -38 65 -107.5t70.5 -134t87.5 -147.5l-23 -18
q-56 59 -102.5 102.5z" />
    <glyph glyph-name="uhungarumlaut" unicode="&#x171;" horiz-adv-x="1190" 
d="M1022.5 83.5q34.5 -42.5 121.5 -42.5v-43q-64 6 -127 6q-132 0 -213 -29v242q-50 -126 -139.5 -186t-196.5 -60q-138 0 -213 78q-37 40 -52.5 104t-15.5 164v514q0 95 -34 138t-121 43v43q64 -6 127 -6q129 0 213 28v-805q0 -78 9 -126t43 -78.5t103 -30.5q79 0 142 49
t99 134t36 188v423q0 95 -34.5 138t-121.5 43v43q64 -6 127 -6q130 0 213 28v-856q0 -95 34.5 -137.5zM376 1370q31 56 75 141t73 123q35 46 79 46q25 0 44 -15q28 -23 28 -57q0 -33 -28 -70q-30 -38 -89 -90t-112.5 -100.5t-121.5 -120.5l-23 18q44 69 75 125zM741 1370
q31 56 75 141t73 123q35 46 78 46q26 0 45 -15q28 -23 28 -57q0 -33 -28 -70q-30 -38 -89 -89.5t-113 -100.5t-122 -121l-22 18q44 69 75 125z" />
    <glyph glyph-name="umacron" unicode="&#x16b;" horiz-adv-x="1190" 
d="M1022.5 83.5q34.5 -42.5 121.5 -42.5v-43q-64 6 -127 6q-132 0 -213 -29v242q-50 -126 -139.5 -186t-196.5 -60q-138 0 -213 78q-37 40 -52.5 104t-15.5 164v514q0 95 -34 138t-121 43v43q64 -6 127 -6q129 0 213 28v-805q0 -78 9 -126t43 -78.5t103 -30.5q79 0 142 49
t99 134t36 188v423q0 95 -34.5 138t-121.5 43v43q64 -6 127 -6q130 0 213 28v-856q0 -95 34.5 -137.5zM246 1407v51h639v-51h-639z" />
    <glyph glyph-name="uogonek" unicode="&#x173;" horiz-adv-x="1190" 
d="M1022.5 83.5q34.5 -42.5 121.5 -42.5v-43q-64 6 -127 6q-132 0 -213 -29v242q-50 -126 -139.5 -186t-196.5 -60q-138 0 -213 78q-37 40 -52.5 104t-15.5 164v514q0 95 -34 138t-121 43v43q64 -6 127 -6q129 0 213 28v-805q0 -78 9 -126t43 -78.5t103 -30.5q79 0 142 49
t99 134t36 188v423q0 95 -34.5 138t-121.5 43v43q64 -6 127 -6q130 0 213 28v-856q0 -95 34.5 -137.5zM1097 -4q-178 -76 -178 -193q0 -41 23.5 -65.5t64.5 -24.5q37 0 70.5 19.5t54.5 48.5l30 -27q-91 -139 -231 -139q-73 0 -117.5 36.5t-44.5 96.5q0 80 73.5 147
t209.5 111h65q-5 -5 -20 -10z" />
    <glyph glyph-name="uring" unicode="&#x16f;" horiz-adv-x="1190" 
d="M1022.5 83.5q34.5 -42.5 121.5 -42.5v-43q-64 6 -127 6q-132 0 -213 -29v242q-50 -126 -139.5 -186t-196.5 -60q-138 0 -213 78q-37 40 -52.5 104t-15.5 164v514q0 95 -34 138t-121 43v43q64 -6 127 -6q129 0 213 28v-805q0 -78 9 -126t43 -78.5t103 -30.5q79 0 142 49
t99 134t36 188v423q0 95 -34.5 138t-121.5 43v43q64 -6 127 -6q130 0 213 28v-856q0 -95 34.5 -137.5zM671.5 1597q45.5 -23 72.5 -65.5t27 -97.5q0 -57 -27 -100t-72.5 -66t-99.5 -23q-53 0 -97.5 23t-71.5 66t-27 100q0 55 27 97.5t72 65.5t97 23q54 0 99.5 -23zM506 1560
q-32 -17 -52.5 -50t-20.5 -78q0 -46 20.5 -78.5t52.5 -49t66 -16.5q36 0 68.5 16.5t53 49t20.5 78.5q0 45 -20.5 78t-53.5 50t-68 17q-34 0 -66 -17z" />
    <glyph glyph-name="utilde" unicode="&#x169;" horiz-adv-x="1190" 
d="M1022.5 83.5q34.5 -42.5 121.5 -42.5v-43q-64 6 -127 6q-132 0 -213 -29v242q-50 -126 -139.5 -186t-196.5 -60q-138 0 -213 78q-37 40 -52.5 104t-15.5 164v514q0 95 -34 138t-121 43v43q64 -6 127 -6q129 0 213 28v-805q0 -78 9 -126t43 -78.5t103 -30.5q79 0 142 49
t99 134t36 188v423q0 95 -34.5 138t-121.5 43v43q64 -6 127 -6q130 0 213 28v-856q0 -95 34.5 -137.5zM272.5 1521.5q64.5 51.5 148.5 51.5q51 0 88 -18.5t101 -67.5t120 -49q93 0 158 108l29 -14q-31 -108 -95.5 -159.5t-146.5 -51.5q-53 0 -90.5 19t-101.5 68.5t-119 49.5
q-91 0 -158 -110l-29 14q31 108 95.5 159.5z" />
    <glyph glyph-name="v" unicode="v" horiz-adv-x="1001" 
d="M840 1049q90 0 155 6v-41q-41 -5 -73 -37t-60 -107l-336 -880h-34l-377 907q-30 71 -59.5 93t-59.5 22v43q106 -8 180 -8q157 0 266 8v-43q-51 0 -79.5 -3.5t-47 -18.5t-18.5 -48q0 -34 22 -90l252 -623l226 592q22 56 22 95q0 47 -36 70t-115 28v41q106 -6 172 -6z" />
    <glyph glyph-name="w" unicode="w" horiz-adv-x="1577" 
d="M1415 1049q91 0 156 6v-41q-43 -5 -76 -37t-57 -107l-297 -880h-35l-325 824l-292 -824h-34l-336 907q-28 72 -58 93.5t-61 21.5v43q86 -13 180 -13q91 0 266 13v-43q-67 0 -99.5 -8t-42 -45t19.5 -119l205 -589l294 812h47l314 -829l192 587q19 60 19 93q0 49 -35.5 72
t-116.5 28v41q108 -6 172 -6z" />
    <glyph glyph-name="wacute" unicode="&#x1e83;" horiz-adv-x="1577" 
d="M1415 1049q91 0 156 6v-41q-43 -5 -76 -37t-57 -107l-297 -880h-35l-325 824l-292 -824h-34l-336 907q-28 72 -58 93.5t-61 21.5v43q86 -13 180 -13q91 0 266 13v-43q-67 0 -99.5 -8t-42 -45t19.5 -119l205 -589l294 812h47l314 -829l192 587q19 60 19 93q0 49 -35.5 72
t-116.5 28v41q108 -6 172 -6zM789 1370q31 56 75 141t73 123q35 46 78 46q25 0 45 -15q28 -23 28 -57q0 -33 -28 -70q-30 -38 -89 -89.5t-113 -100.5t-122 -121l-22 18q44 69 75 125z" />
    <glyph glyph-name="wcircumflex" unicode="&#x175;" horiz-adv-x="1577" 
d="M1415 1049q91 0 156 6v-41q-43 -5 -76 -37t-57 -107l-297 -880h-35l-325 824l-292 -824h-34l-336 907q-28 72 -58 93.5t-61 21.5v43q86 -13 180 -13q91 0 266 13v-43q-67 0 -99.5 -8t-42 -45t19.5 -119l205 -589l294 812h47l314 -829l192 587q19 60 19 93q0 49 -35.5 72
t-116.5 28v41q108 -6 172 -6zM992.5 1443q91.5 -95 208.5 -153l-16 -28q-111 38 -216 93.5t-169 110.5q-52 -55 -134.5 -110.5t-168.5 -93.5l-17 28q117 58 208.5 153t133.5 199h37q42 -104 133.5 -199z" />
    <glyph glyph-name="wdieresis" unicode="&#x1e85;" horiz-adv-x="1577" 
d="M1415 1049q91 0 156 6v-41q-43 -5 -76 -37t-57 -107l-297 -880h-35l-325 824l-292 -824h-34l-336 907q-28 72 -58 93.5t-61 21.5v43q86 -13 180 -13q91 0 266 13v-43q-67 0 -99.5 -8t-42 -45t19.5 -119l205 -589l294 812h47l314 -829l192 587q19 60 19 93q0 49 -35.5 72
t-116.5 28v41q108 -6 172 -6zM684.5 1505.5q27.5 -16.5 44 -44t16.5 -58.5q0 -32 -16.5 -59.5t-43.5 -43.5t-59 -16q-49 0 -84 35t-35 84q0 31 16 58.5t43.5 44t59.5 16.5q31 0 58.5 -16.5zM1118.5 1505.5q27.5 -16.5 44 -44t16.5 -58.5q0 -32 -16.5 -59.5t-43.5 -43.5
t-59 -16q-49 0 -83.5 35t-34.5 84q0 31 16 58.5t43 44t59 16.5q31 0 58.5 -16.5z" />
    <glyph glyph-name="wgrave" unicode="&#x1e81;" horiz-adv-x="1577" 
d="M1415 1049q91 0 156 6v-41q-43 -5 -76 -37t-57 -107l-297 -880h-35l-325 824l-292 -824h-34l-336 907q-28 72 -58 93.5t-61 21.5v43q86 -13 180 -13q91 0 266 13v-43q-67 0 -99.5 -8t-42 -45t19.5 -119l205 -589l294 812h47l314 -829l192 587q19 60 19 93q0 49 -35.5 72
t-116.5 28v41q108 -6 172 -6zM809.5 1329.5q-46.5 43.5 -118.5 107t-102 101.5q-28 37 -28 70q0 34 28 57q19 15 44 15q44 0 79 -46q29 -38 65 -107.5t70.5 -134t87.5 -147.5l-23 -18q-56 59 -102.5 102.5z" />
    <glyph glyph-name="x" unicode="x" horiz-adv-x="1063" 
d="M970 71.5q26 -21.5 65 -28.5v-43q-104 8 -145 8q-70 0 -242 -8v43q33 0 57 13t24 33q0 10 -9 24l-233 340l-150 -195q-57 -73 -57 -123q0 -84 151 -94v-41q-108 6 -233 6q-91 0 -156 -6v41q40 5 82 37t98 106l236 311l-285 414q-28 41 -47 61.5t-36.5 29.5t-43.5 12v43
q108 -8 146 -8q69 0 241 8v-43q-33 0 -56.5 -12.5t-23.5 -33.5q0 -12 8 -24l219 -319l142 198q62 87 62 129q0 29 -28 44.5t-89 19.5v41q106 -6 172 -6q90 0 155 6v-41q-83 -10 -180 -144l-207 -286l301 -439q36 -52 62 -73.5z" />
    <glyph glyph-name="y" unicode="y" horiz-adv-x="1032" 
d="M856 1049q91 0 156 6v-41q-41 -5 -73 -37t-60 -107l-336 -880l-70 -178q-39 -101 -88 -144q-58 -53 -160 -53q-61 0 -100 32.5t-39 90.5q0 49 29 78.5t80 29.5q45 0 74.5 -25t29.5 -71q0 -61 -55 -92q4 -2 12 -2q113 0 174 160l73 187l-372 894q-35 71 -69.5 93t-69.5 22
v43q96 -13 201 -13q88 0 266 13v-43q-50 0 -78 -3.5t-46.5 -19t-18.5 -48.5q0 -37 26 -101l247 -612l226 593q22 60 22 94q0 48 -36.5 71t-116.5 28v41q108 -6 172 -6z" />
    <glyph glyph-name="yacute" unicode="&#xfd;" horiz-adv-x="1032" 
d="M856 1049q91 0 156 6v-41q-41 -5 -73 -37t-60 -107l-336 -880l-70 -178q-39 -101 -88 -144q-58 -53 -160 -53q-61 0 -100 32.5t-39 90.5q0 49 29 78.5t80 29.5q45 0 74.5 -25t29.5 -71q0 -61 -55 -92q4 -2 12 -2q113 0 174 160l73 187l-372 894q-35 71 -69.5 93t-69.5 22
v43q96 -13 201 -13q88 0 266 13v-43q-50 0 -78 -3.5t-46.5 -19t-18.5 -48.5q0 -37 26 -101l247 -612l226 593q22 60 22 94q0 48 -36.5 71t-116.5 28v41q108 -6 172 -6zM467 1370q31 56 75 141t73 123q35 46 78 46q25 0 45 -15q28 -23 28 -57q0 -33 -28 -70
q-30 -38 -89 -89.5t-113 -100.5t-122 -121l-22 18q44 69 75 125z" />
    <glyph glyph-name="ycircumflex" unicode="&#x177;" horiz-adv-x="1032" 
d="M856 1049q91 0 156 6v-41q-41 -5 -73 -37t-60 -107l-336 -880l-70 -178q-39 -101 -88 -144q-58 -53 -160 -53q-61 0 -100 32.5t-39 90.5q0 49 29 78.5t80 29.5q45 0 74.5 -25t29.5 -71q0 -61 -55 -92q4 -2 12 -2q113 0 174 160l73 187l-372 894q-35 71 -69.5 93t-69.5 22
v43q96 -13 201 -13q88 0 266 13v-43q-50 0 -78 -3.5t-46.5 -19t-18.5 -48.5q0 -37 26 -101l247 -612l226 593q22 60 22 94q0 48 -36.5 71t-116.5 28v41q108 -6 172 -6zM670.5 1443q91.5 -95 208.5 -153l-16 -28q-111 38 -216 93.5t-169 110.5q-52 -55 -134.5 -110.5
t-168.5 -93.5l-17 28q117 58 208.5 153t133.5 199h37q42 -104 133.5 -199z" />
    <glyph glyph-name="ydieresis" unicode="&#xff;" horiz-adv-x="1032" 
d="M856 1049q91 0 156 6v-41q-41 -5 -73 -37t-60 -107l-336 -880l-70 -178q-39 -101 -88 -144q-58 -53 -160 -53q-61 0 -100 32.5t-39 90.5q0 49 29 78.5t80 29.5q45 0 74.5 -25t29.5 -71q0 -61 -55 -92q4 -2 12 -2q113 0 174 160l73 187l-372 894q-35 71 -69.5 93t-69.5 22
v43q96 -13 201 -13q88 0 266 13v-43q-50 0 -78 -3.5t-46.5 -19t-18.5 -48.5q0 -37 26 -101l247 -612l226 593q22 60 22 94q0 48 -36.5 71t-116.5 28v41q108 -6 172 -6zM362.5 1505.5q27.5 -16.5 44 -44t16.5 -58.5q0 -32 -16.5 -59.5t-43.5 -43.5t-59 -16q-49 0 -84 35
t-35 84q0 31 16 58.5t43.5 44t59.5 16.5q31 0 58.5 -16.5zM796.5 1505.5q27.5 -16.5 44 -44t16.5 -58.5q0 -32 -16.5 -59.5t-43.5 -43.5t-59 -16q-49 0 -83.5 35t-34.5 84q0 31 16 58.5t43 44t59 16.5q31 0 58.5 -16.5z" />
    <glyph glyph-name="ygrave" unicode="&#x1ef3;" horiz-adv-x="1032" 
d="M856 1049q91 0 156 6v-41q-41 -5 -73 -37t-60 -107l-336 -880l-70 -178q-39 -101 -88 -144q-58 -53 -160 -53q-61 0 -100 32.5t-39 90.5q0 49 29 78.5t80 29.5q45 0 74.5 -25t29.5 -71q0 -61 -55 -92q4 -2 12 -2q113 0 174 160l73 187l-372 894q-35 71 -69.5 93t-69.5 22
v43q96 -13 201 -13q88 0 266 13v-43q-50 0 -78 -3.5t-46.5 -19t-18.5 -48.5q0 -37 26 -101l247 -612l226 593q22 60 22 94q0 48 -36.5 71t-116.5 28v41q108 -6 172 -6zM487.5 1329.5q-46.5 43.5 -118.5 107t-102 101.5q-28 37 -28 70q0 34 28 57q19 15 44 15q44 0 79 -46
q29 -38 65 -107.5t70.5 -134t87.5 -147.5l-23 -18q-56 59 -102.5 102.5z" />
    <glyph glyph-name="z" unicode="z" horiz-adv-x="975" 
d="M531 31q126 0 199 78.5t86 250.5h47q0 -267 8 -368q-160 8 -380 8q-196 0 -414 -10l592 1034h-226q-92 0 -151 -33t-91.5 -105.5t-41.5 -191.5h-47q0 271 -9 369q161 -8 381 -8q196 0 414 10l-592 -1034h225z" />
    <glyph glyph-name="zacute" unicode="&#x17a;" horiz-adv-x="975" 
d="M531 31q126 0 199 78.5t86 250.5h47q0 -267 8 -368q-160 8 -380 8q-196 0 -414 -10l592 1034h-226q-92 0 -151 -33t-91.5 -105.5t-41.5 -191.5h-47q0 271 -9 369q161 -8 381 -8q196 0 414 10l-592 -1034h225zM467 1370q31 56 75 141t73 123q35 46 78 46q25 0 45 -15
q28 -23 28 -57q0 -33 -28 -70q-30 -38 -89 -89.5t-113 -100.5t-122 -121l-22 18q44 69 75 125z" />
    <glyph glyph-name="zcaron" unicode="&#x17e;" horiz-adv-x="975" 
d="M531 31q126 0 199 78.5t86 250.5h47q0 -267 8 -368q-160 8 -380 8q-196 0 -414 -10l592 1034h-226q-92 0 -151 -33t-91.5 -105.5t-41.5 -191.5h-47q0 271 -9 369q161 -8 381 -8q196 0 414 10l-592 -1034h225zM650.5 1461q-91.5 -95 -133.5 -199h-37q-42 104 -133.5 199
t-208.5 153l17 28q111 -38 216 -94t169 -110q52 55 134.5 110.5t168.5 93.5l16 -28q-117 -58 -208.5 -153z" />
    <glyph glyph-name="zdotaccent" unicode="&#x17c;" horiz-adv-x="975" 
d="M531 31q126 0 199 78.5t86 250.5h47q0 -267 8 -368q-160 8 -380 8q-196 0 -414 -10l592 1034h-226q-92 0 -151 -33t-91.5 -105.5t-41.5 -191.5h-47q0 271 -9 369q161 -8 381 -8q196 0 414 10l-592 -1034h225zM584 1549q30 -18 48 -48t18 -65t-18 -65.5t-48 -48t-65 -17.5
t-65.5 17.5t-48 48t-17.5 65.5t17.5 65t48 48t65.5 18t65 -18z" />
    <glyph glyph-name="Cacute.loclPLK" horiz-adv-x="1409" 
d="M1211.5 92.5q-11.5 28.5 -33.5 28.5q-16 0 -42 -17q-61 -43 -112.5 -70.5t-117.5 -45t-149 -17.5q-195 0 -341.5 88t-227 255.5t-80.5 398.5q0 226 83 400t231 270t337 96q122 0 208.5 -35t168.5 -98q22 -18 40 -18q42 0 52 122h47q-8 -133 -8 -471h-47q-15 92 -27.5 143
t-29.5 86.5t-46 73.5q-62 80 -157 120t-205 40q-133 0 -233 -88t-155 -251t-55 -382q0 -223 60 -383t165 -243t238 -83q102 0 199 39t151 117q42 56 60 121.5t35 202.5h47q0 -353 8 -492h-47q-5 64 -16.5 92.5zM706 1654.5q7 40.5 16.5 111t23.5 106.5q21 48 69 48
q16 0 37 -7q20 -10 33 -29t13 -42q0 -17 -7 -34q-11 -25 -27.5 -48.5t-64.5 -84t-86 -121.5l-27 13q13 47 20 87.5z" />
    <glyph glyph-name="Nacute.loclPLK" horiz-adv-x="1446" 
d="M1265.5 1388.5q-34.5 -17.5 -47.5 -57.5t-13 -119v-1222h-47l-860 1329v-1081q0 -79 14 -119t52.5 -57.5t119.5 -20.5v-41q-73 6 -209 6q-122 0 -190 -6v41q71 3 105.5 20.5t47.5 57.5t13 119v995q0 77 -12.5 112t-46 48t-107.5 16v41q67 -6 190 -6q92 0 160 6l723 -1114
v876q0 79 -13.5 119t-52.5 57.5t-120 20.5v41q73 -6 209 -6q122 0 190 6v-41q-71 -3 -105.5 -20.5zM727 1654.5q7 40.5 16.5 111t23.5 106.5q21 48 69 48q16 0 37 -7q20 -10 33 -29t13 -42q0 -17 -7 -34q-11 -25 -27.5 -48.5t-64.5 -84t-86 -121.5l-27 13q13 47 20 87.5z
" />
    <glyph glyph-name="Oacute.loclPLK" horiz-adv-x="1518" 
d="M1100.5 1391q146.5 -88 227 -255.5t80.5 -398.5q0 -226 -83 -400t-231 -270t-337 -96q-195 0 -341.5 88t-227 255.5t-80.5 398.5q0 226 83 400t231 270t337 96q195 0 341.5 -88zM520 1350.5q-100 -91.5 -154 -255t-54 -374.5q0 -213 60 -375t163.5 -250t229.5 -88
q131 0 230.5 91.5t153.5 255t54 374.5q0 213 -60 375t-163 250t-229 88q-131 0 -231 -91.5zM717 1654.5q7 40.5 16.5 111t23.5 106.5q21 48 69 48q16 0 37 -7q20 -10 33 -29t13 -42q0 -17 -7 -34q-11 -25 -27.5 -48.5t-64.5 -84t-86 -121.5l-27 13q13 47 20 87.5z" />
    <glyph glyph-name="Sacute.loclPLK" horiz-adv-x="1106" 
d="M285 140.5q88 -128.5 271 -128.5q70 0 130.5 29t98 90.5t37.5 153.5q0 79 -38.5 141.5t-104.5 114.5t-176 118q-122 73 -196 131t-121.5 138.5t-47.5 189.5q0 116 52.5 196t140 119.5t192.5 39.5q63 0 108.5 -10.5t75.5 -26t66 -39.5q46 -29 70 -29q19 0 29 21.5t16 68.5
h47q-10 -120 -10 -418h-47q-8 105 -45.5 194t-110 144.5t-180.5 55.5q-72 0 -129 -30t-89 -84t-32 -124q0 -111 67 -179t156.5 -122.5t120.5 -73.5q129 -81 204 -140.5t120 -138t45 -182.5q0 -126 -58 -213.5t-156.5 -131.5t-220.5 -44q-98 0 -161 20.5t-119 55.5
q-46 29 -70 29q-19 0 -29 -21.5t-16 -68.5h-47q8 112 8 491h47q14 -208 102 -336.5zM524 1654.5q7 40.5 16.5 111t23.5 106.5q21 48 69 48q16 0 37 -7q20 -10 33 -29t13 -42q0 -17 -7 -34q-11 -25 -27.5 -48.5t-64.5 -84t-86 -121.5l-27 13q13 47 20 87.5z" />
    <glyph glyph-name="Zacute.loclPLK" horiz-adv-x="1217" 
d="M278 47h432q128 0 194.5 36t96 115t45.5 232h47q-7 -75 -7 -168q0 -106 15 -262q-152 6 -510 6q-350 0 -506 -6v41l854 1362h-430q-128 0 -194.5 -36t-96 -115t-45.5 -232h-47q6 65 6 168q0 116 -14 262q151 -6 510 -6q348 0 497 6v-41zM565 1654.5q7 40.5 16.5 111
t23.5 106.5q21 48 69 48q16 0 37 -7q20 -10 33 -29t13 -42q0 -17 -7 -34q-11 -25 -27.5 -48.5t-64.5 -84t-86 -121.5l-27 13q13 47 20 87.5z" />
    <glyph glyph-name="i.loclTRK" horiz-adv-x="600" 
d="M353 1549q30 -18 48 -48t18 -65t-18 -65.5t-48 -48t-65 -17.5t-65.5 17.5t-48 48t-17.5 65.5t17.5 65t48 48t65.5 18t65 -18zM413.5 101q15.5 -32 49 -45t91.5 -13v-43q-188 8 -248 8t-248 -8v43q58 0 91.5 13t49 45t15.5 89v641q0 95 -34.5 138t-121.5 43v43
q64 -6 127 -6q130 0 213 28v-887q0 -57 15.5 -89z" />
    <glyph glyph-name="cacute.loclPLK" horiz-adv-x="995" 
d="M852 118.5q-48 -64.5 -125.5 -106t-180.5 -41.5q-128 0 -231 66t-162.5 189t-59.5 288q0 166 60.5 295.5t169.5 201.5t247 72t238 -65q96 -65 96 -158q0 -54 -30.5 -84.5t-77.5 -30.5q-48 0 -80.5 27.5t-32.5 75.5q0 44 24.5 73.5t61.5 39.5q-20 37 -73 61.5t-111 24.5
q-75 0 -141 -48t-109 -160t-43 -294q0 -255 82 -370.5t213 -115.5q87 0 166.5 51t130.5 160l39 -14q-23 -73 -71 -137.5zM546 1376.5q13 56.5 24.5 128t28.5 111.5q14 33 36 49.5t46 16.5q14 0 31 -7q19 -9 31 -27t12 -43q0 -24 -12 -53q-19 -42 -58 -94t-71.5 -99
t-81.5 -134l-27 12q28 83 41 139.5z" />
    <glyph glyph-name="nacute.loclPLK" horiz-adv-x="1223" 
d="M540.5 1024.5q91.5 58.5 206.5 58.5q143 0 217 -77q38 -42 54.5 -103.5t16.5 -165.5v-547q0 -57 15.5 -89t49 -45t91.5 -13v-43q-188 8 -246 8q-57 0 -229 -8v43q51 0 79.5 13t42 45t13.5 89v592q0 74 -11.5 124t-48 81t-106.5 31q-84 0 -149.5 -49t-101.5 -134.5
t-36 -189.5v-455q0 -57 13.5 -89t42.5 -45t80 -13v-43q-172 8 -230 8t-246 -8v43q58 0 91.5 13t49 45t15.5 89v641q0 95 -34.5 138t-121.5 43v43q64 -6 127 -6q130 0 213 28v-241q51 130 142.5 188.5zM634 1376.5q13 56.5 24.5 128t28.5 111.5q14 33 36 49.5t46 16.5
q14 0 31 -7q19 -9 31 -27t12 -43q0 -24 -12 -53q-19 -42 -58 -94t-71.5 -99t-81.5 -134l-27 12q28 83 41 139.5z" />
    <glyph glyph-name="oacute.loclPLK" horiz-adv-x="1122" 
d="M799.5 1024q104.5 -59 165 -183.5t60.5 -314.5t-60.5 -314t-165 -182.5t-239.5 -58.5t-239.5 58.5t-165 182.5t-60.5 314t60.5 314.5t165 183.5t239.5 59t239.5 -59zM365.5 916q-71.5 -126 -71.5 -390q0 -263 71.5 -388.5t194.5 -125.5t194.5 125.5t71.5 388.5
q0 264 -71.5 390t-194.5 126t-194.5 -126zM574 1376.5q13 56.5 24.5 128t28.5 111.5q14 33 36 49.5t46 16.5q14 0 31 -7q19 -9 31 -27t12 -43q0 -24 -12 -53q-19 -42 -58 -94t-71.5 -99t-81.5 -134l-27 12q28 83 41 139.5z" />
    <glyph glyph-name="sacute.loclPLK" horiz-adv-x="913" 
d="M210 186q28 -82 86 -128t156 -46q45 0 86.5 19.5t68.5 63t27 112.5q0 56 -28.5 100.5t-74.5 80t-129 87.5q-101 64 -154.5 105t-90.5 100t-37 139q0 87 41 146.5t109.5 88.5t152.5 29q72 0 129.5 -23t93.5 -52q22 -17 36 -17q36 0 46 90h47q-8 -100 -8 -348h-47
q-22 135 -87 223t-192 88q-74 0 -121 -41.5t-47 -115.5q0 -71 48.5 -118.5t117 -90.5t97.5 -62q94 -61 151.5 -108.5t93 -109t35.5 -140.5q0 -91 -47.5 -155.5t-127.5 -98t-175 -33.5q-91 0 -162 29q-40 20 -84 55q-8 8 -19 8q-30 0 -42 -77h-47q8 117 8 409h47
q15 -127 43 -209zM474 1376.5q13 56.5 24.5 128t28.5 111.5q14 33 36 49.5t46 16.5q14 0 31 -7q19 -9 31 -27t12 -43q0 -24 -12 -53q-19 -42 -58 -94t-71.5 -99t-81.5 -134l-27 12q28 83 41 139.5z" />
    <glyph glyph-name="cacute.loclPLK.smcp" horiz-adv-x="1317" 
d="M1091 124q-16 0 -41 -20q-78 -65 -152.5 -99t-179.5 -34q-183 0 -320 75.5t-212.5 219.5t-75.5 344q0 196 78 347t216.5 234t315.5 83q69 0 124.5 -17.5t98 -45.5t92.5 -70q25 -20 40 -20q42 0 52 124h48q-9 -118 -9 -430h-47q-20 107 -40.5 157.5t-61.5 104.5
q-58 76 -137.5 116t-167.5 40q-120 0 -210 -74t-139 -213t-49 -328q0 -192 54.5 -328.5t148 -207t209.5 -70.5q91 0 174 40t139 116q40 53 59.5 112.5t35.5 170.5h47q0 -323 8 -451h-47q-10 124 -51 124zM641 1531.5q7 40.5 16.5 111t23.5 106.5q21 48 69 48q16 0 37 -7
q20 -9 33 -28t13 -42q0 -17 -7 -34q-12 -25 -28.5 -49.5t-64.5 -85t-85 -119.5l-27 12q13 47 20 87.5z" />
    <glyph glyph-name="nacute.loclPLK.smcp" horiz-adv-x="1403" 
d="M1224.5 1183.5q-34.5 -17.5 -47.5 -57.5t-13 -118v-1018h-47l-819 1134v-886q0 -79 14 -119t52.5 -57.5t119.5 -20.5v-41q-73 6 -209 6q-122 0 -190 -6v41q71 3 105.5 20.5t47.5 57.5t13 119v790q0 77 -12.5 112t-46 48t-107.5 16v41q67 -6 190 -6q113 0 189 6l653 -909
v672q0 79 -13.5 118.5t-52.5 57t-120 20.5v41q73 -6 209 -6q123 0 190 6v-41q-71 -3 -105.5 -20.5zM656 1531.5q7 40.5 16.5 111t23.5 106.5q21 48 69 48q16 0 37 -7q20 -9 33 -28t13 -42q0 -17 -7 -34q-12 -25 -28.5 -49.5t-64.5 -85t-85 -119.5l-27 12q13 47 20 87.5z" />
    <glyph glyph-name="oacute.loclPLK.smcp" horiz-adv-x="1477" 
d="M1069 1198.5q142 -75.5 220 -219.5t78 -344q0 -196 -80.5 -346.5t-224 -234t-326.5 -83.5q-189 0 -330.5 75.5t-219.5 219.5t-78 344q0 196 80.5 347t223.5 234t326 83q189 0 331 -75.5zM510 1158.5q-95 -78.5 -146.5 -219t-51.5 -321.5q0 -182 57.5 -321t156 -214
t218.5 -75q125 0 220 78.5t146.5 219t51.5 321.5q0 182 -57.5 321t-156 214t-218.5 75q-125 0 -220 -78.5zM676 1531.5q7 40.5 16.5 111t23.5 106.5q21 48 69 48q16 0 37 -7q20 -9 33 -28t13 -42q0 -17 -7 -34q-12 -25 -28.5 -49.5t-64.5 -85t-85 -119.5l-27 12
q13 47 20 87.5z" />
    <glyph glyph-name="sacute.loclPLK.smcp" horiz-adv-x="1096" 
d="M285 129q88 -117 271 -117q65 0 122.5 25t93.5 77t36 130q0 68 -39.5 120t-104.5 93.5t-182 101.5q-109 56 -181.5 107.5t-117.5 122.5t-45 165q0 102 53 174.5t140.5 109t191.5 36.5q63 0 108.5 -10.5t75.5 -26t66 -39.5q48 -29 70 -29q19 0 29 22t16 69h47
q-10 -107 -10 -377h-47q-8 94 -45.5 173.5t-110 129t-180.5 49.5q-72 0 -129 -26.5t-89 -72.5t-32 -104q0 -91 60.5 -146t145 -100.5t117.5 -64.5q127 -67 204.5 -121t124 -122.5t46.5 -158.5q0 -112 -56 -190.5t-151.5 -118t-212.5 -39.5q-98 0 -161 20.5t-119 55.5
q-46 29 -70 29q-19 0 -29 -21.5t-16 -68.5h-47q8 100 8 450h47q14 -190 102 -307zM494 1531.5q7 40.5 16.5 111t23.5 106.5q21 48 69 48q16 0 37 -7q20 -9 33 -28t13 -42q0 -17 -7 -34q-12 -25 -28.5 -49.5t-64.5 -85t-85 -119.5l-27 12q13 47 20 87.5z" />
    <glyph glyph-name="zacute.loclPLK.smcp" horiz-adv-x="1178" 
d="M333 47h450q72 0 119 32.5t75.5 107.5t39.5 202h47q-6 -64 -6 -168q0 -98 14 -221q-145 6 -489 6q-328 0 -478 -6v41l723 1157h-430q-71 0 -118.5 -32.5t-75.5 -107.5t-39 -202h-47q6 65 6 168q0 98 -14 221q145 -6 489 -6q313 0 457 6v-41zM541 1531.5q7 40.5 16.5 111
t23.5 106.5q21 48 69 48q16 0 37 -7q20 -9 33 -28t13 -42q0 -17 -7 -34q-12 -25 -28.5 -49.5t-64.5 -85t-85 -119.5l-27 12q13 47 20 87.5z" />
    <glyph glyph-name="zacute.loclPLK" horiz-adv-x="975" 
d="M531 31q126 0 199 78.5t86 250.5h47q0 -267 8 -368q-160 8 -380 8q-196 0 -414 -10l592 1034h-226q-92 0 -151 -33t-91.5 -105.5t-41.5 -191.5h-47q0 271 -9 369q161 -8 381 -8q196 0 414 10l-592 -1034h225zM527 1376.5q13 56.5 24.5 128t28.5 111.5q14 33 36 49.5
t46 16.5q14 0 31 -7q19 -9 31 -27t12 -43q0 -24 -12 -53q-19 -42 -58 -94t-71.5 -99t-81.5 -134l-27 12q28 83 41 139.5z" />
    <glyph glyph-name="T_h" horiz-adv-x="2314" 
d="M2142.5 99q15.5 -32 49 -45t91.5 -13v-43q-192 8 -246 8q-58 0 -230 -8v43q51 0 80 13t42.5 45t13.5 89v592q0 74 -12 124t-48.5 81t-105.5 31q-83 0 -148.5 -47.5t-102 -132t-36.5 -191.5v-457q0 -57 13.5 -89t42 -45t79.5 -13v-43q-172 8 -229 8q-58 0 -246 -8v43
q58 0 91.5 13t49 45t15.5 89v1215h-555v-1165q0 -86 16 -125t57.5 -54t132.5 -18v-41q-106 6 -301 6q-204 0 -303 -6v41q91 3 133 18t58 54.5t16 124.5v1165h-131q-127 0 -188.5 -35.5t-86 -112t-40.5 -235.5h-47q6 65 6 168q0 120 -15 262q177 -6 598 -6q448 0 650 5v124
q115 3 184 29v-766q51 130 142.5 187.5t205.5 57.5q143 0 217 -77q39 -42 55.5 -104t16.5 -165v-547q0 -57 15.5 -89z" />
    <glyph glyph-name="c_t" horiz-adv-x="1769" 
d="M1476 -29q-71 0 -116.5 15.5t-80.5 50.5q-43 45 -60.5 111t-17.5 178v686h-196v41h196v239q0 130 -61.5 201.5t-175.5 71.5q-105 0 -174.5 -55.5t-69.5 -170.5q0 -75 22 -130t71.5 -137.5t72.5 -135.5q18 -36 18 -76q0 -54 -30.5 -84.5t-77.5 -30.5q-48 0 -80.5 30
t-32.5 81q0 42 23.5 69.5t62.5 35.5q-20 37 -73 61.5t-111 24.5q-75 0 -141 -47.5t-109 -161.5t-43 -299q0 -169 39.5 -276t105 -155.5t148.5 -48.5q89 0 168.5 51t130.5 160l39 -14q-22 -73 -70.5 -137.5t-125.5 -106t-179 -41.5q-129 0 -232.5 66t-163 189t-59.5 288
q0 166 60.5 295.5t169.5 201.5t249 72q78 0 144.5 -23t108.5 -72q-17 27 -61.5 92t-67.5 126.5t-23 130.5q0 88 40.5 147.5t107.5 88.5t147 29q106 0 176.5 -57t87.5 -178q94 6 153 28v-342h324v-41h-324v-785q0 -182 132 -182q63 0 110.5 50.5t83.5 166.5l41 -12
q-58 -279 -276 -279z" />
    <glyph glyph-name="s_p" horiz-adv-x="2103" 
d="M1429.5 1024.5q86.5 58.5 195.5 58.5t195.5 -59t136 -174t49.5 -275q0 -157 -49.5 -294.5t-155 -223.5t-264.5 -86q-78 0 -141.5 31t-98.5 82v-244q0 -95 54 -131.5t164 -36.5v-43q-28 1 -125 5t-191 4q-70 0 -146 -4t-96 -5v43q58 0 91.5 13.5t49 45t15.5 89.5v1472
q0 130 -61.5 201.5t-175.5 71.5q-97 0 -160.5 -50t-63.5 -155q0 -45 12 -83.5t46 -114.5t34 -132q0 -29 -7 -56q33 -30 52 -77t19 -92q0 -52 -26.5 -81.5t-67.5 -29.5q-44 0 -68 30t-24 73q0 36 17.5 78.5t51.5 82.5q-30 37 -90.5 61.5t-130.5 24.5q-88 0 -142.5 -41.5
t-54.5 -115.5q0 -71 49 -119t118 -91.5t96 -60.5q91 -58 148.5 -105.5t94.5 -110t37 -142.5q0 -91 -47.5 -155.5t-127.5 -98t-175 -33.5q-96 0 -162 29q-28 13 -84 55q-11 8 -19 8q-30 0 -42 -77h-47q8 117 8 409h47q19 -180 79 -281.5t191 -101.5q90 0 143.5 49.5
t53.5 137.5q0 61 -27 106t-72.5 80t-132.5 90q-101 64 -154.5 105t-90.5 99.5t-37 137.5q0 88 45.5 148t119.5 89t160 29q76 0 145 -21t117 -61q3 50 -10 89.5t-52.5 117.5t-39.5 150q0 81 37.5 135.5t100 81.5t137.5 27q121 0 194.5 -74t73.5 -230v-51q88 5 149 27v-414
q46 106 132.5 164.5zM1382 53.5q55 -35.5 133 -35.5q292 0 292 529q0 475 -237 475q-93 0 -167 -67t-106 -193v-612q30 -61 85 -96.5z" />
    <glyph glyph-name="s_t" horiz-adv-x="1681" 
d="M1388 -29q-71 0 -116.5 15.5t-80.5 50.5q-43 45 -60.5 111t-17.5 178v686h-196v41h196v239q0 130 -61.5 201.5t-175.5 71.5q-97 0 -160.5 -50t-63.5 -155q0 -45 12 -83.5t46 -114.5t34 -132q0 -29 -7 -56q33 -30 52 -77t19 -92q0 -52 -26.5 -81.5t-67.5 -29.5
q-44 0 -68 30t-24 73q0 36 17.5 78.5t51.5 82.5q-30 37 -90.5 61.5t-130.5 24.5q-88 0 -142.5 -41.5t-54.5 -115.5q0 -71 49 -119t118 -91.5t96 -60.5q91 -58 148.5 -105.5t94.5 -110t37 -142.5q0 -91 -47.5 -155.5t-127.5 -98t-175 -33.5q-96 0 -162 29q-28 13 -84 55
q-11 8 -19 8q-30 0 -42 -77h-47q8 117 8 409h47q19 -180 79 -281.5t191 -101.5q90 0 143.5 49.5t53.5 137.5q0 61 -27 106t-72.5 80t-132.5 90q-101 64 -154.5 105t-90.5 99.5t-37 137.5q0 88 45.5 148t119.5 89t160 29q76 0 145 -21t117 -61q3 50 -10 89.5t-52.5 117.5
t-39.5 150q0 81 37.5 135.5t100 81.5t137.5 27q106 0 176.5 -57t87.5 -178q94 6 153 28v-342h324v-41h-324v-785q0 -182 132 -182q63 0 110.5 50.5t83.5 166.5l41 -12q-58 -279 -276 -279z" />
    <glyph glyph-name="a.smcp" horiz-adv-x="1262" 
d="M1268 41v-41q-84 6 -219 6q-176 0 -263 -6v41q77 3 112 19t35 56q0 37 -28 97l-103 233h-500l-69 -153q-34 -79 -34 -131q0 -108 159 -121v-41q-61 6 -186 6t-178 -6v41q54 14 94 62.5t74 127.5l452 1024h33l479 -1083q56 -127 142 -131zM553 1008l-233 -521h464z" />
    <glyph glyph-name="aacute.smcp" horiz-adv-x="1262" 
d="M1268 41v-41q-84 6 -219 6q-176 0 -263 -6v41q77 3 112 19t35 56q0 37 -28 97l-103 233h-500l-69 -153q-34 -79 -34 -131q0 -108 159 -121v-41q-61 6 -186 6t-178 -6v41q54 14 94 62.5t74 127.5l452 1024h33l479 -1083q56 -127 142 -131zM553 1008l-233 -521h464z
M577.5 1569q48.5 42 119 106t110.5 90q33 20 62 20q42 0 63 -34q12 -18 12 -39q0 -44 -55 -80q-41 -25 -114 -53.5t-140.5 -56t-156.5 -72.5l-15 27q66 50 114.5 92z" />
    <glyph glyph-name="abreve.smcp" horiz-adv-x="1262" 
d="M1268 41v-41q-84 6 -219 6q-176 0 -263 -6v41q77 3 112 19t35 56q0 37 -28 97l-103 233h-500l-69 -153q-34 -79 -34 -131q0 -108 159 -121v-41q-61 6 -186 6t-178 -6v41q54 14 94 62.5t74 127.5l452 1024h33l479 -1083q56 -127 142 -131zM553 1008l-233 -521h464z
M837.5 1506q-97.5 -70 -232.5 -70t-233 70t-154 167l26 21q54 -55 143.5 -93t217.5 -38q127 0 218 39t144 94l25 -23q-57 -97 -154.5 -167z" />
    <glyph glyph-name="acircumflex.smcp" horiz-adv-x="1262" 
d="M1268 41v-41q-84 6 -219 6q-176 0 -263 -6v41q77 3 112 19t35 56q0 37 -28 97l-103 233h-500l-69 -153q-34 -79 -34 -131q0 -108 159 -121v-41q-61 6 -186 6t-178 -6v41q54 14 94 62.5t74 127.5l452 1024h33l479 -1083q56 -127 142 -131zM553 1008l-233 -521h464z
M769.5 1597q96.5 -73 220.5 -118l-10 -29q-118 26 -231.5 65.5t-180.5 77.5q-55 -38 -146 -77.5t-184 -65.5l-10 29q124 45 220.5 118t142.5 152h37q45 -79 141.5 -152z" />
    <glyph glyph-name="adieresis.smcp" horiz-adv-x="1262" 
d="M1268 41v-41q-84 6 -219 6q-176 0 -263 -6v41q77 3 112 19t35 56q0 37 -28 97l-103 233h-500l-69 -153q-34 -79 -34 -131q0 -108 159 -121v-41q-61 6 -186 6t-178 -6v41q54 14 94 62.5t74 127.5l452 1024h33l479 -1083q56 -127 142 -131zM553 1008l-233 -521h464z
M448.5 1683.5q27.5 -16.5 44 -44t16.5 -58.5q0 -32 -16.5 -59.5t-44 -43.5t-58.5 -16q-49 0 -84 35t-35 84q0 32 16 59t43.5 43.5t59.5 16.5q31 0 58.5 -16.5zM882.5 1683.5q27.5 -16.5 44 -44t16.5 -58.5q0 -32 -16.5 -59.5t-43.5 -43.5t-59 -16q-49 0 -84 35t-35 84
q0 32 16 59t43.5 43.5t59.5 16.5q31 0 58.5 -16.5z" />
    <glyph glyph-name="agrave.smcp" horiz-adv-x="1262" 
d="M1268 41v-41q-84 6 -219 6q-176 0 -263 -6v41q77 3 112 19t35 56q0 37 -28 97l-103 233h-500l-69 -153q-34 -79 -34 -131q0 -108 159 -121v-41q-61 6 -186 6t-178 -6v41q54 14 94 62.5t74 127.5l452 1024h33l479 -1083q56 -127 142 -131zM553 1008l-233 -521h464z
M581 1512q-59 25 -148.5 60t-130.5 60q-54 36 -54 81q0 19 11 38q23 34 63 34q31 0 62 -20q41 -26 98.5 -79t112 -101t133.5 -108l-14 -27q-74 37 -133 62z" />
    <glyph glyph-name="amacron.smcp" horiz-adv-x="1262" 
d="M1268 41v-41q-84 6 -219 6q-176 0 -263 -6v41q77 3 112 19t35 56q0 37 -28 97l-103 233h-500l-69 -153q-34 -79 -34 -131q0 -108 159 -121v-41q-61 6 -186 6t-178 -6v41q54 14 94 62.5t74 127.5l452 1024h33l479 -1083q56 -127 142 -131zM553 1008l-233 -521h464z
M242 1530v51h721v-51h-721z" />
    <glyph glyph-name="aogonek.smcp" horiz-adv-x="1262" 
d="M1268 41v-41q-84 6 -219 6q-176 0 -263 -6v41q77 3 112 19t35 56q0 37 -28 97l-103 233h-500l-69 -153q-34 -79 -34 -131q0 -108 159 -121v-41q-61 6 -186 6t-178 -6v41q54 14 94 62.5t74 127.5l452 1024h33l479 -1083q56 -127 142 -131zM553 1008l-233 -521h464z
M1050 -80q-50 -56 -50 -117q0 -41 23.5 -65.5t64.5 -24.5q37 0 70.5 19.5t54.5 48.5l30 -27q-91 -139 -231 -139q-73 0 -117.5 36.5t-44.5 96.5q0 80 73.5 147t209.5 111h78q-111 -30 -161 -86z" />
    <glyph glyph-name="aring.smcp" horiz-adv-x="1262" 
d="M1268 41v-41q-84 6 -219 6q-176 0 -263 -6v41q77 3 112 19t35 56q0 37 -28 97l-103 233h-500l-69 -153q-34 -79 -34 -131q0 -108 159 -121v-41q-61 6 -186 6t-178 -6v41q54 14 94 62.5t74 127.5l452 1024h33l479 -1083q56 -127 142 -131zM553 1008l-233 -521h464z
M706.5 1749q45.5 -23 72.5 -65.5t27 -98.5q0 -57 -27 -99.5t-72.5 -65.5t-99.5 -23q-53 0 -97.5 23t-71.5 65.5t-27 99.5q0 56 27 98.5t72 65.5t97 23q54 0 99.5 -23zM541 1711.5q-32 -17.5 -52.5 -50.5t-20.5 -78q0 -46 20.5 -78t52.5 -48.5t66 -16.5q36 0 68.5 16.5
t53 48.5t20.5 78q0 45 -20.5 78t-53.5 50.5t-68 17.5q-34 0 -66 -17.5z" />
    <glyph glyph-name="atilde.smcp" horiz-adv-x="1262" 
d="M1268 41v-41q-84 6 -219 6q-176 0 -263 -6v41q77 3 112 19t35 56q0 37 -28 97l-103 233h-500l-69 -153q-34 -79 -34 -131q0 -108 159 -121v-41q-61 6 -186 6t-178 -6v41q54 14 94 62.5t74 127.5l452 1024h33l479 -1083q56 -127 142 -131zM553 1008l-233 -521h464z
M285.5 1658.5q59.5 57.5 144.5 57.5q52 0 98 -20.5t139.5 -78.5t160.5 -58q104 0 143 118l35 -10q-23 -102 -82.5 -159.5t-144.5 -57.5q-52 0 -98 20.5t-139.5 79t-160.5 58.5q-51 0 -86.5 -27.5t-56.5 -91.5l-35 10q23 102 82.5 159.5z" />
    <glyph glyph-name="ae.smcp" horiz-adv-x="1624" 
d="M1497 242q0 -108 14 -242q-120 6 -407 6q-322 0 -492 -6v41q57 3 82 16t34 47.5t9 112.5v389h-304l-222 -393q-35 -61 -35 -99q0 -37 34 -53.5t107 -19.5v-41q-62 6 -186 6q-85 0 -137 -6v41q33 1 66.5 31t74.5 100l570 999q-17 17 -48 23.5t-86 9.5v41q75 -3 174 -4
l62 109h47l-62 -110q91 -1 171.5 -1h140.5q258 0 366 6q-14 -123 -14 -221q0 -80 6 -127h-47q-11 123 -28.5 184t-59.5 89t-125 28h-108q-74 0 -107.5 -11.5t-46 -46t-12.5 -112.5v-381h149q82 0 108.5 46.5t32.5 96.5t9 66h47q-7 -80 -7 -152l1 -77q0 -80 12 -230h-47
q-9 78 -18 114.5t-40.5 65.5t-97.5 29h-149v-389q0 -77 12.5 -111.5t46 -46.5t107.5 -12h129q99 0 144 31t60.5 96.5t28.5 214.5h47q-6 -56 -6 -147zM737 1028q0 67 -9 100l-272 -481h281v381z" />
    <glyph glyph-name="b.smcp" horiz-adv-x="1235" 
d="M1050 547.5q92 -89.5 92 -211.5q0 -99 -56.5 -175t-163 -118.5t-251.5 -42.5q-39 0 -136.5 3t-195.5 3q-168 0 -254 -6v41q74 3 107.5 16t46 48t12.5 112v811q0 78 -12.5 113t-45.5 47.5t-108 15.5v41q85 -6 250 -6q75 0 165.5 2t123.5 2q133 0 225.5 -35.5t139 -98.5
t46.5 -146q0 -99 -69 -177t-222 -118v-4q214 -27 306 -116.5zM777 739.5q62 71.5 62 200.5q0 132 -63.5 198t-203.5 66q-55 0 -82.5 -14.5t-38 -51.5t-10.5 -110v-360h117q157 0 219 71.5zM451.5 108q10.5 -35 38 -48t84.5 -13q187 0 275 75t88 222q0 142 -82 215.5
t-262 73.5h-152v-416q0 -74 10.5 -109z" />
    <glyph glyph-name="c.smcp" horiz-adv-x="1317" 
d="M1091 124q-16 0 -41 -20q-78 -65 -152.5 -99t-179.5 -34q-183 0 -320 75.5t-212.5 219.5t-75.5 344q0 196 78 347t216.5 234t315.5 83q69 0 124.5 -17.5t98 -45.5t92.5 -70q25 -20 40 -20q42 0 52 124h48q-9 -118 -9 -430h-47q-20 107 -40.5 157.5t-61.5 104.5
q-58 76 -137.5 116t-167.5 40q-120 0 -210 -74t-139 -213t-49 -328q0 -192 54.5 -328.5t148 -207t209.5 -70.5q91 0 174 40t139 116q40 53 59.5 112.5t35.5 170.5h47q0 -323 8 -451h-47q-10 124 -51 124z" />
    <glyph glyph-name="cacute.smcp" horiz-adv-x="1317" 
d="M1091 124q-16 0 -41 -20q-78 -65 -152.5 -99t-179.5 -34q-183 0 -320 75.5t-212.5 219.5t-75.5 344q0 196 78 347t216.5 234t315.5 83q69 0 124.5 -17.5t98 -45.5t92.5 -70q25 -20 40 -20q42 0 52 124h48q-9 -118 -9 -430h-47q-20 107 -40.5 157.5t-61.5 104.5
q-58 76 -137.5 116t-167.5 40q-120 0 -210 -74t-139 -213t-49 -328q0 -192 54.5 -328.5t148 -207t209.5 -70.5q91 0 174 40t139 116q40 53 59.5 112.5t35.5 170.5h47q0 -323 8 -451h-47q-10 124 -51 124zM669.5 1569q48.5 42 119 106t110.5 90q33 20 62 20q42 0 63 -34
q12 -18 12 -39q0 -44 -55 -80q-41 -25 -114 -53.5t-140.5 -56t-156.5 -72.5l-15 27q66 50 114.5 92z" />
    <glyph glyph-name="ccaron.smcp" horiz-adv-x="1317" 
d="M1091 124q-16 0 -41 -20q-78 -65 -152.5 -99t-179.5 -34q-183 0 -320 75.5t-212.5 219.5t-75.5 344q0 196 78 347t216.5 234t315.5 83q69 0 124.5 -17.5t98 -45.5t92.5 -70q25 -20 40 -20q42 0 52 124h48q-9 -118 -9 -430h-47q-20 107 -40.5 157.5t-61.5 104.5
q-58 76 -137.5 116t-167.5 40q-120 0 -210 -74t-139 -213t-49 -328q0 -192 54.5 -328.5t148 -207t209.5 -70.5q91 0 174 40t139 116q40 53 59.5 112.5t35.5 170.5h47q0 -323 8 -451h-47q-10 124 -51 124zM857.5 1585.5q-96.5 -72.5 -141.5 -151.5h-37q-46 79 -142.5 151.5
t-220.5 118.5l10 29q117 -26 231 -66t181 -78q55 38 146.5 78t183.5 66l10 -29q-124 -46 -220.5 -118.5z" />
    <glyph glyph-name="ccedilla.smcp" horiz-adv-x="1317" 
d="M1091 124q-16 0 -41 -20q-78 -65 -152.5 -99t-179.5 -34q-183 0 -320 75.5t-212.5 219.5t-75.5 344q0 196 78 347t216.5 234t315.5 83q69 0 124.5 -17.5t98 -45.5t92.5 -70q25 -20 40 -20q42 0 52 124h48q-9 -118 -9 -430h-47q-20 107 -40.5 157.5t-61.5 104.5
q-58 76 -137.5 116t-167.5 40q-120 0 -210 -74t-139 -213t-49 -328q0 -192 54.5 -328.5t148 -207t209.5 -70.5q91 0 174 40t139 116q40 53 59.5 112.5t35.5 170.5h47q0 -323 8 -451h-47q-10 124 -51 124zM816 -133q58 0 91.5 -25.5t33.5 -70.5q0 -54 -35.5 -89t-88.5 -51
t-107 -16q-105 0 -170 23l8 36q42 -6 78 -6q74 0 129 21.5t55 70.5q0 58 -86 58q-58 0 -100 -15l69 207h56l-54 -157q61 14 121 14z" />
    <glyph glyph-name="ccircumflex.smcp" horiz-adv-x="1317" 
d="M1091 124q-16 0 -41 -20q-78 -65 -152.5 -99t-179.5 -34q-183 0 -320 75.5t-212.5 219.5t-75.5 344q0 196 78 347t216.5 234t315.5 83q69 0 124.5 -17.5t98 -45.5t92.5 -70q25 -20 40 -20q42 0 52 124h48q-9 -118 -9 -430h-47q-20 107 -40.5 157.5t-61.5 104.5
q-58 76 -137.5 116t-167.5 40q-120 0 -210 -74t-139 -213t-49 -328q0 -192 54.5 -328.5t148 -207t209.5 -70.5q91 0 174 40t139 116q40 53 59.5 112.5t35.5 170.5h47q0 -323 8 -451h-47q-10 124 -51 124zM861.5 1597q96.5 -73 220.5 -118l-10 -29q-118 26 -231.5 65.5
t-180.5 77.5q-55 -38 -146 -77.5t-184 -65.5l-10 29q124 45 220.5 118t142.5 152h37q45 -79 141.5 -152z" />
    <glyph glyph-name="cdotaccent.smcp" horiz-adv-x="1317" 
d="M1091 124q-16 0 -41 -20q-78 -65 -152.5 -99t-179.5 -34q-183 0 -320 75.5t-212.5 219.5t-75.5 344q0 196 78 347t216.5 234t315.5 83q69 0 124.5 -17.5t98 -45.5t92.5 -70q25 -20 40 -20q42 0 52 124h48q-9 -118 -9 -430h-47q-20 107 -40.5 157.5t-61.5 104.5
q-58 76 -137.5 116t-167.5 40q-120 0 -210 -74t-139 -213t-49 -328q0 -192 54.5 -328.5t148 -207t209.5 -70.5q91 0 174 40t139 116q40 53 59.5 112.5t35.5 170.5h47q0 -323 8 -451h-47q-10 124 -51 124zM764 1694.5q30 -17.5 48 -48t18 -65.5t-18 -65.5t-48 -48t-65 -17.5
t-65.5 17.5t-48 48t-17.5 65.5t17.5 65.5t48 48t65.5 17.5t65 -17.5z" />
    <glyph glyph-name="d.smcp" horiz-adv-x="1399" 
d="M285 1238l50 1q282 6 309 6q320 0 480.5 -154.5t160.5 -451.5q0 -193 -77.5 -337t-225.5 -223t-356 -79q-28 0 -133.5 3t-153.5 3q-168 0 -254 -6v41q74 3 107.5 16t46 48t12.5 112v811q0 78 -12.5 113t-45.5 47.5t-108 15.5v41q110 -7 200 -7zM453 102.5
q12 -36.5 44.5 -51t97.5 -14.5q186 0 292.5 67t149.5 195.5t43 331.5q0 199 -46.5 325t-153.5 189t-287 63q-64 0 -96 -14.5t-44 -51t-12 -110.5v-819q0 -74 12 -110.5z" />
    <glyph glyph-name="eth.smcp" horiz-adv-x="1401" 
d="M287 1238l50 1q282 6 309 6q320 0 480.5 -154.5t160.5 -451.5q0 -193 -77.5 -337t-225.5 -223t-356 -79q-28 0 -133.5 3t-153.5 3q-168 0 -254 -6v41q74 3 107.5 16t46 48t12.5 112v389h-166v41h166v381q0 78 -12.5 113t-45.5 47.5t-108 15.5v41q110 -7 200 -7z
M455 102.5q12 -36.5 44.5 -51t97.5 -14.5q186 0 292.5 67t149.5 195.5t43 331.5q0 199 -46.5 325t-153.5 189t-287 63q-64 0 -96 -14.5t-44 -51t-12 -110.5v-385h283v-41h-283v-393q0 -74 12 -110.5z" />
    <glyph glyph-name="dcaron.smcp" horiz-adv-x="1399" 
d="M285 1238l50 1q282 6 309 6q320 0 480.5 -154.5t160.5 -451.5q0 -193 -77.5 -337t-225.5 -223t-356 -79q-28 0 -133.5 3t-153.5 3q-168 0 -254 -6v41q74 3 107.5 16t46 48t12.5 112v811q0 78 -12.5 113t-45.5 47.5t-108 15.5v41q110 -7 200 -7zM453 102.5
q12 -36.5 44.5 -51t97.5 -14.5q186 0 292.5 67t149.5 195.5t43 331.5q0 199 -46.5 325t-153.5 189t-287 63q-64 0 -96 -14.5t-44 -51t-12 -110.5v-819q0 -74 12 -110.5zM802.5 1585.5q-96.5 -72.5 -141.5 -151.5h-37q-46 79 -142.5 151.5t-220.5 118.5l10 29
q117 -26 231 -66t181 -78q55 38 146.5 78t183.5 66l10 -29q-124 -46 -220.5 -118.5z" />
    <glyph glyph-name="dcroat.smcp" horiz-adv-x="1401" 
d="M287 1238l50 1q282 6 309 6q320 0 480.5 -154.5t160.5 -451.5q0 -193 -77.5 -337t-225.5 -223t-356 -79q-28 0 -133.5 3t-153.5 3q-168 0 -254 -6v41q74 3 107.5 16t46 48t12.5 112v389h-166v41h166v381q0 78 -12.5 113t-45.5 47.5t-108 15.5v41q110 -7 200 -7z
M455 102.5q12 -36.5 44.5 -51t97.5 -14.5q186 0 292.5 67t149.5 195.5t43 331.5q0 199 -46.5 325t-153.5 189t-287 63q-64 0 -96 -14.5t-44 -51t-12 -110.5v-385h283v-41h-283v-393q0 -74 12 -110.5z" />
    <glyph glyph-name="e.smcp" horiz-adv-x="1219" 
d="M1093 242q0 -108 14 -242q-133 6 -449 6q-378 0 -573 -6v41q74 3 107.5 16t46 48t12.5 112v811q0 77 -12.5 112t-46 48t-107.5 16v41q195 -6 573 -6q287 0 408 6q-14 -123 -14 -221q0 -80 6 -127h-47q-11 114 -38.5 179t-79 93.5t-136.5 28.5h-150q-74 0 -107.5 -11.5
t-46 -46.5t-12.5 -112v-381h170q65 0 100.5 33.5t47.5 74t22 101.5h47q-7 -80 -7 -152l1 -77q0 -82 13 -230h-48q-8 63 -22.5 107t-51 73t-102.5 29h-170v-389q0 -77 12.5 -111.5t46 -46.5t107.5 -12h150q101 0 161 32.5t91 106t43 203.5h47q-6 -55 -6 -147z" />
    <glyph glyph-name="eacute.smcp" horiz-adv-x="1219" 
d="M1093 242q0 -108 14 -242q-133 6 -449 6q-378 0 -573 -6v41q74 3 107.5 16t46 48t12.5 112v811q0 77 -12.5 112t-46 48t-107.5 16v41q195 -6 573 -6q287 0 408 6q-14 -123 -14 -221q0 -80 6 -127h-47q-11 114 -38.5 179t-79 93.5t-136.5 28.5h-150q-74 0 -107.5 -11.5
t-46 -46.5t-12.5 -112v-381h170q65 0 100.5 33.5t47.5 74t22 101.5h47q-7 -80 -7 -152l1 -77q0 -82 13 -230h-48q-8 63 -22.5 107t-51 73t-102.5 29h-170v-389q0 -77 12.5 -111.5t46 -46.5t107.5 -12h150q101 0 161 32.5t91 106t43 203.5h47q-6 -55 -6 -147zM581.5 1569
q48.5 42 119 106t110.5 90q33 20 62 20q42 0 63 -34q12 -18 12 -39q0 -44 -55 -80q-41 -25 -114 -53.5t-140.5 -56t-156.5 -72.5l-15 27q66 50 114.5 92z" />
    <glyph glyph-name="ebreve.smcp" horiz-adv-x="1219" 
d="M1093 242q0 -108 14 -242q-133 6 -449 6q-378 0 -573 -6v41q74 3 107.5 16t46 48t12.5 112v811q0 77 -12.5 112t-46 48t-107.5 16v41q195 -6 573 -6q287 0 408 6q-14 -123 -14 -221q0 -80 6 -127h-47q-11 114 -38.5 179t-79 93.5t-136.5 28.5h-150q-74 0 -107.5 -11.5
t-46 -46.5t-12.5 -112v-381h170q65 0 100.5 33.5t47.5 74t22 101.5h47q-7 -80 -7 -152l1 -77q0 -82 13 -230h-48q-8 63 -22.5 107t-51 73t-102.5 29h-170v-389q0 -77 12.5 -111.5t46 -46.5t107.5 -12h150q101 0 161 32.5t91 106t43 203.5h47q-6 -55 -6 -147zM841.5 1506
q-97.5 -70 -232.5 -70t-233 70t-154 167l26 21q54 -55 143.5 -93t217.5 -38q127 0 218 39t144 94l25 -23q-57 -97 -154.5 -167z" />
    <glyph glyph-name="ecaron.smcp" horiz-adv-x="1219" 
d="M1093 242q0 -108 14 -242q-133 6 -449 6q-378 0 -573 -6v41q74 3 107.5 16t46 48t12.5 112v811q0 77 -12.5 112t-46 48t-107.5 16v41q195 -6 573 -6q287 0 408 6q-14 -123 -14 -221q0 -80 6 -127h-47q-11 114 -38.5 179t-79 93.5t-136.5 28.5h-150q-74 0 -107.5 -11.5
t-46 -46.5t-12.5 -112v-381h170q65 0 100.5 33.5t47.5 74t22 101.5h47q-7 -80 -7 -152l1 -77q0 -82 13 -230h-48q-8 63 -22.5 107t-51 73t-102.5 29h-170v-389q0 -77 12.5 -111.5t46 -46.5t107.5 -12h150q101 0 161 32.5t91 106t43 203.5h47q-6 -55 -6 -147zM769.5 1585.5
q-96.5 -72.5 -141.5 -151.5h-37q-46 79 -142.5 151.5t-220.5 118.5l10 29q117 -26 231 -66t181 -78q55 38 146.5 78t183.5 66l10 -29q-124 -46 -220.5 -118.5z" />
    <glyph glyph-name="ecircumflex.smcp" horiz-adv-x="1219" 
d="M1093 242q0 -108 14 -242q-133 6 -449 6q-378 0 -573 -6v41q74 3 107.5 16t46 48t12.5 112v811q0 77 -12.5 112t-46 48t-107.5 16v41q195 -6 573 -6q287 0 408 6q-14 -123 -14 -221q0 -80 6 -127h-47q-11 114 -38.5 179t-79 93.5t-136.5 28.5h-150q-74 0 -107.5 -11.5
t-46 -46.5t-12.5 -112v-381h170q65 0 100.5 33.5t47.5 74t22 101.5h47q-7 -80 -7 -152l1 -77q0 -82 13 -230h-48q-8 63 -22.5 107t-51 73t-102.5 29h-170v-389q0 -77 12.5 -111.5t46 -46.5t107.5 -12h150q101 0 161 32.5t91 106t43 203.5h47q-6 -55 -6 -147zM773.5 1597
q96.5 -73 220.5 -118l-10 -29q-118 26 -231.5 65.5t-180.5 77.5q-55 -38 -146 -77.5t-184 -65.5l-10 29q124 45 220.5 118t142.5 152h37q45 -79 141.5 -152z" />
    <glyph glyph-name="edieresis.smcp" horiz-adv-x="1219" 
d="M1093 242q0 -108 14 -242q-133 6 -449 6q-378 0 -573 -6v41q74 3 107.5 16t46 48t12.5 112v811q0 77 -12.5 112t-46 48t-107.5 16v41q195 -6 573 -6q287 0 408 6q-14 -123 -14 -221q0 -80 6 -127h-47q-11 114 -38.5 179t-79 93.5t-136.5 28.5h-150q-74 0 -107.5 -11.5
t-46 -46.5t-12.5 -112v-381h170q65 0 100.5 33.5t47.5 74t22 101.5h47q-7 -80 -7 -152l1 -77q0 -82 13 -230h-48q-8 63 -22.5 107t-51 73t-102.5 29h-170v-389q0 -77 12.5 -111.5t46 -46.5t107.5 -12h150q101 0 161 32.5t91 106t43 203.5h47q-6 -55 -6 -147zM452.5 1683.5
q27.5 -16.5 44 -44t16.5 -58.5q0 -32 -16.5 -59.5t-44 -43.5t-58.5 -16q-49 0 -84 35t-35 84q0 32 16 59t43.5 43.5t59.5 16.5q31 0 58.5 -16.5zM886.5 1683.5q27.5 -16.5 44 -44t16.5 -58.5q0 -32 -16.5 -59.5t-43.5 -43.5t-59 -16q-49 0 -84 35t-35 84q0 32 16 59
t43.5 43.5t59.5 16.5q31 0 58.5 -16.5z" />
    <glyph glyph-name="edotaccent.smcp" horiz-adv-x="1219" 
d="M1093 242q0 -108 14 -242q-133 6 -449 6q-378 0 -573 -6v41q74 3 107.5 16t46 48t12.5 112v811q0 77 -12.5 112t-46 48t-107.5 16v41q195 -6 573 -6q287 0 408 6q-14 -123 -14 -221q0 -80 6 -127h-47q-11 114 -38.5 179t-79 93.5t-136.5 28.5h-150q-74 0 -107.5 -11.5
t-46 -46.5t-12.5 -112v-381h170q65 0 100.5 33.5t47.5 74t22 101.5h47q-7 -80 -7 -152l1 -77q0 -82 13 -230h-48q-8 63 -22.5 107t-51 73t-102.5 29h-170v-389q0 -77 12.5 -111.5t46 -46.5t107.5 -12h150q101 0 161 32.5t91 106t43 203.5h47q-6 -55 -6 -147zM676 1694.5
q30 -17.5 48 -48t18 -65.5t-18 -65.5t-48 -48t-65 -17.5t-65.5 17.5t-48 48t-17.5 65.5t17.5 65.5t48 48t65.5 17.5t65 -17.5z" />
    <glyph glyph-name="egrave.smcp" horiz-adv-x="1219" 
d="M1093 242q0 -108 14 -242q-133 6 -449 6q-378 0 -573 -6v41q74 3 107.5 16t46 48t12.5 112v811q0 77 -12.5 112t-46 48t-107.5 16v41q195 -6 573 -6q287 0 408 6q-14 -123 -14 -221q0 -80 6 -127h-47q-11 114 -38.5 179t-79 93.5t-136.5 28.5h-150q-74 0 -107.5 -11.5
t-46 -46.5t-12.5 -112v-381h170q65 0 100.5 33.5t47.5 74t22 101.5h47q-7 -80 -7 -152l1 -77q0 -82 13 -230h-48q-8 63 -22.5 107t-51 73t-102.5 29h-170v-389q0 -77 12.5 -111.5t46 -46.5t107.5 -12h150q101 0 161 32.5t91 106t43 203.5h47q-6 -55 -6 -147zM585 1512
q-59 25 -148.5 60t-130.5 60q-54 36 -54 81q0 19 11 38q23 34 63 34q31 0 62 -20q41 -26 98.5 -79t112 -101t133.5 -108l-14 -27q-74 37 -133 62z" />
    <glyph glyph-name="emacron.smcp" horiz-adv-x="1219" 
d="M1093 242q0 -108 14 -242q-133 6 -449 6q-378 0 -573 -6v41q74 3 107.5 16t46 48t12.5 112v811q0 77 -12.5 112t-46 48t-107.5 16v41q195 -6 573 -6q287 0 408 6q-14 -123 -14 -221q0 -80 6 -127h-47q-11 114 -38.5 179t-79 93.5t-136.5 28.5h-150q-74 0 -107.5 -11.5
t-46 -46.5t-12.5 -112v-381h170q65 0 100.5 33.5t47.5 74t22 101.5h47q-7 -80 -7 -152l1 -77q0 -82 13 -230h-48q-8 63 -22.5 107t-51 73t-102.5 29h-170v-389q0 -77 12.5 -111.5t46 -46.5t107.5 -12h150q101 0 161 32.5t91 106t43 203.5h47q-6 -55 -6 -147zM246 1530v51
h721v-51h-721z" />
    <glyph glyph-name="eogonek.smcp" horiz-adv-x="1219" 
d="M1093 242q0 -108 14 -242q-133 6 -449 6q-378 0 -573 -6v41q74 3 107.5 16t46 48t12.5 112v811q0 77 -12.5 112t-46 48t-107.5 16v41q195 -6 573 -6q287 0 408 6q-14 -123 -14 -221q0 -80 6 -127h-47q-11 114 -38.5 179t-79 93.5t-136.5 28.5h-150q-74 0 -107.5 -11.5
t-46 -46.5t-12.5 -112v-381h170q65 0 100.5 33.5t47.5 74t22 101.5h47q-7 -80 -7 -152l1 -77q0 -82 13 -230h-48q-8 63 -22.5 107t-51 73t-102.5 29h-170v-389q0 -77 12.5 -111.5t46 -46.5t107.5 -12h150q101 0 161 32.5t91 106t43 203.5h47q-6 -55 -6 -147zM946 -80
q-50 -56 -50 -117q0 -41 23.5 -65.5t64.5 -24.5q37 0 70.5 19.5t54.5 48.5l30 -27q-91 -139 -231 -139q-73 0 -117.5 36.5t-44.5 96.5q0 80 73.5 147t209.5 111h78q-111 -30 -161 -86z" />
    <glyph glyph-name="f.smcp" horiz-adv-x="1128" 
d="M658 1239q287 0 408 6q-14 -123 -14 -221q0 -80 6 -127h-47q-11 114 -38.5 179t-79 93.5t-136.5 28.5h-150q-74 0 -107.5 -11.5t-46 -46.5t-12.5 -112v-381h170q65 0 100.5 33.5t47.5 74t22 101.5h47q-7 -80 -7 -152l1 -77q0 -82 13 -230h-48q-8 63 -22.5 107t-51 73
t-102.5 29h-170v-389q0 -77 16 -112t58 -48t133 -16v-41q-106 6 -301 6q-176 0 -262 -6v41q74 3 107.5 16t46 48t12.5 112v811q0 77 -12.5 112t-46 48t-107.5 16v41q195 -6 573 -6z" />
    <glyph glyph-name="g.smcp" horiz-adv-x="1354" 
d="M1111 49q-14 0 -48 -15t-42 -18q-132 -45 -268 -45q-204 0 -348.5 74t-219.5 215t-75 338q0 204 77.5 357.5t216 236t316.5 82.5q80 0 139 -17.5t101 -44.5t96 -71q25 -20 41 -20q40 0 51 124h47q-8 -117 -8 -409h-47q-17 78 -40 137t-63 104q-68 78 -142 119t-179 41
q-123 0 -213.5 -75t-139.5 -214t-49 -327q0 -314 115 -461.5t342 -147.5q92 0 158 17q36 9 49.5 26.5t13.5 50.5v177q0 85 -16 124.5t-58 54t-133 17.5v41q111 -6 289 -6q139 0 213 6v-41q-47 -3 -68 -15.5t-28.5 -47.5t-7.5 -113v-303h-41q-3 49 -31 49z" />
    <glyph glyph-name="gacute.smcp" horiz-adv-x="1354" 
d="M1111 49q-14 0 -48 -15t-42 -18q-132 -45 -268 -45q-204 0 -348.5 74t-219.5 215t-75 338q0 204 77.5 357.5t216 236t316.5 82.5q80 0 139 -17.5t101 -44.5t96 -71q25 -20 41 -20q40 0 51 124h47q-8 -117 -8 -409h-47q-17 78 -40 137t-63 104q-68 78 -142 119t-179 41
q-123 0 -213.5 -75t-139.5 -214t-49 -327q0 -314 115 -461.5t342 -147.5q92 0 158 17q36 9 49.5 26.5t13.5 50.5v177q0 85 -16 124.5t-58 54t-133 17.5v41q111 -6 289 -6q139 0 213 6v-41q-47 -3 -68 -15.5t-28.5 -47.5t-7.5 -113v-303h-41q-3 49 -31 49zM700.5 1569
q48.5 42 119 106t110.5 90q33 20 62 20q42 0 63 -34q12 -18 12 -39q0 -44 -55 -80q-41 -25 -114 -53.5t-140.5 -56t-156.5 -72.5l-15 27q66 50 114.5 92z" />
    <glyph glyph-name="gbreve.smcp" horiz-adv-x="1354" 
d="M1111 49q-14 0 -48 -15t-42 -18q-132 -45 -268 -45q-204 0 -348.5 74t-219.5 215t-75 338q0 204 77.5 357.5t216 236t316.5 82.5q80 0 139 -17.5t101 -44.5t96 -71q25 -20 41 -20q40 0 51 124h47q-8 -117 -8 -409h-47q-17 78 -40 137t-63 104q-68 78 -142 119t-179 41
q-123 0 -213.5 -75t-139.5 -214t-49 -327q0 -314 115 -461.5t342 -147.5q92 0 158 17q36 9 49.5 26.5t13.5 50.5v177q0 85 -16 124.5t-58 54t-133 17.5v41q111 -6 289 -6q139 0 213 6v-41q-47 -3 -68 -15.5t-28.5 -47.5t-7.5 -113v-303h-41q-3 49 -31 49zM960.5 1506
q-97.5 -70 -232.5 -70t-233 70t-154 167l26 21q54 -55 143.5 -93t217.5 -38q127 0 218 39t144 94l25 -23q-57 -97 -154.5 -167z" />
    <glyph glyph-name="gcircumflex.smcp" horiz-adv-x="1354" 
d="M1111 49q-14 0 -48 -15t-42 -18q-132 -45 -268 -45q-204 0 -348.5 74t-219.5 215t-75 338q0 204 77.5 357.5t216 236t316.5 82.5q80 0 139 -17.5t101 -44.5t96 -71q25 -20 41 -20q40 0 51 124h47q-8 -117 -8 -409h-47q-17 78 -40 137t-63 104q-68 78 -142 119t-179 41
q-123 0 -213.5 -75t-139.5 -214t-49 -327q0 -314 115 -461.5t342 -147.5q92 0 158 17q36 9 49.5 26.5t13.5 50.5v177q0 85 -16 124.5t-58 54t-133 17.5v41q111 -6 289 -6q139 0 213 6v-41q-47 -3 -68 -15.5t-28.5 -47.5t-7.5 -113v-303h-41q-3 49 -31 49zM892.5 1597
q96.5 -73 220.5 -118l-10 -29q-118 26 -231.5 65.5t-180.5 77.5q-55 -38 -146 -77.5t-184 -65.5l-10 29q124 45 220.5 118t142.5 152h37q45 -79 141.5 -152z" />
    <glyph glyph-name="gcommaaccent.smcp" horiz-adv-x="1354" 
d="M1111 49q-14 0 -48 -15t-42 -18q-132 -45 -268 -45q-204 0 -348.5 74t-219.5 215t-75 338q0 204 77.5 357.5t216 236t316.5 82.5q80 0 139 -17.5t101 -44.5t96 -71q25 -20 41 -20q40 0 51 124h47q-8 -117 -8 -409h-47q-17 78 -40 137t-63 104q-68 78 -142 119t-179 41
q-123 0 -213.5 -75t-139.5 -214t-49 -327q0 -314 115 -461.5t342 -147.5q92 0 158 17q36 9 49.5 26.5t13.5 50.5v177q0 85 -16 124.5t-58 54t-133 17.5v41q111 -6 289 -6q139 0 213 6v-41q-47 -3 -68 -15.5t-28.5 -47.5t-7.5 -113v-303h-41q-3 49 -31 49zM792.5 -407
q37.5 34 36.5 79q-37 -32 -86 -32q-47 0 -77 29t-30 81q0 46 33.5 77.5t81.5 31.5q59 0 96 -41.5t37 -102.5q0 -77 -36.5 -125.5t-131.5 -83.5l-14 37q53 16 90.5 50z" />
    <glyph glyph-name="gdotaccent.smcp" horiz-adv-x="1354" 
d="M1111 49q-14 0 -48 -15t-42 -18q-132 -45 -268 -45q-204 0 -348.5 74t-219.5 215t-75 338q0 204 77.5 357.5t216 236t316.5 82.5q80 0 139 -17.5t101 -44.5t96 -71q25 -20 41 -20q40 0 51 124h47q-8 -117 -8 -409h-47q-17 78 -40 137t-63 104q-68 78 -142 119t-179 41
q-123 0 -213.5 -75t-139.5 -214t-49 -327q0 -314 115 -461.5t342 -147.5q92 0 158 17q36 9 49.5 26.5t13.5 50.5v177q0 85 -16 124.5t-58 54t-133 17.5v41q111 -6 289 -6q139 0 213 6v-41q-47 -3 -68 -15.5t-28.5 -47.5t-7.5 -113v-303h-41q-3 49 -31 49zM824 1694.5
q30 -17.5 48 -48t18 -65.5t-18 -65.5t-48 -48t-65 -17.5t-65.5 17.5t-48 48t-17.5 65.5t17.5 65.5t48 48t65.5 17.5t65 -17.5z" />
    <glyph glyph-name="h.smcp" horiz-adv-x="1509" 
d="M1314.5 1188q-33.5 -13 -46 -48t-12.5 -112v-811q0 -77 12.5 -112t46 -48t107.5 -16v-41q-85 6 -262 6q-164 0 -260 -6v41q74 3 107.5 16t46 48t12.5 112v408h-625v-408q0 -77 12.5 -112t46 -48t107.5 -16v-41q-94 6 -260 6q-176 0 -262 -6v41q74 3 107.5 16t46 48
t12.5 112v811q0 77 -12.5 112t-46 48t-107.5 16v41q85 -6 262 -6q166 0 260 6v-41q-74 -3 -107.5 -16t-46 -48t-12.5 -112v-362h625v362q0 77 -12.5 112t-46 48t-107.5 16v41q96 -6 260 -6q177 0 262 6v-41q-74 -3 -107.5 -16z" />
    </font>
</defs>
</svg>
